<?xml version="1.0" encoding="utf-8"?>
<!-- Generator: Adobe Illustrator 27.2.0, SVG Export Plug-In . SVG Version: 6.00 Build 0)  -->
<svg version="1.1" id="Layer_1" xmlns="http://www.w3.org/2000/svg" xmlns:xlink="http://www.w3.org/1999/xlink" x="0px" y="0px"
	 viewBox="0 0 1000 470" style="enable-background:new 0 0 1000 470;" xml:space="preserve">
<style type="text/css">
	.st0{fill:#FFFFFF;stroke:#0083D4;stroke-width:1.9136;stroke-linecap:round;stroke-linejoin:round;stroke-miterlimit:10;}
	.st1{clip-path:url(#SVGID_00000011725540197707206780000010285382141663316901_);}
	.st2{fill:none;stroke:#00CE7C;stroke-width:1.9136;stroke-linecap:round;stroke-linejoin:round;stroke-miterlimit:10;}
	.st3{fill:none;stroke:#0083D4;stroke-width:1.9136;stroke-linecap:round;stroke-linejoin:round;stroke-miterlimit:10;}
	.st4{clip-path:url(#SVGID_00000114774852770027599140000012934750655889149086_);}
	.st5{clip-path:url(#SVGID_00000062873792938521841110000007716929527854390713_);}
	.st6{clip-path:url(#SVGID_00000142895579193036799680000002836572892437039790_);}
</style>
<g>
	<g>
		<path class="st0" d="M557.19,338.83H393.59c-6.63,0-12-5.37-12-12V226.68c0-6.63,5.37-12,12-12h163.59c6.63,0,12,5.37,12,12
			v100.15C569.19,333.46,563.81,338.83,557.19,338.83z"/>
		<g>
			<defs>
				<path id="SVGID_1_" d="M557.19,338.83H393.59c-6.63,0-12-5.37-12-12V226.68c0-6.63,5.37-12,12-12h163.59c6.63,0,12,5.37,12,12
					v100.15C569.19,333.46,563.81,338.83,557.19,338.83z"/>
			</defs>
			<clipPath id="SVGID_00000111166538180335627800000009393551650543120789_">
				<use xlink:href="#SVGID_1_"  style="overflow:visible;"/>
			</clipPath>
			<g style="clip-path:url(#SVGID_00000111166538180335627800000009393551650543120789_);">
				<line class="st2" x1="431.94" y1="277.11" x2="431.94" y2="266.26"/>
				<line class="st2" x1="447.78" y1="271.69" x2="458.88" y2="280.91"/>
				<line class="st2" x1="419.67" y1="307.54" x2="431.94" y2="298.66"/>
				<line class="st2" x1="453.33" y1="307.54" x2="458.88" y2="317.51"/>
				<line class="st2" x1="404.87" y1="280.91" x2="410.05" y2="280.91"/>
				<line class="st2" x1="407.46" y1="248.78" x2="415.23" y2="257.23"/>
				<line class="st2" x1="465.54" y1="248.78" x2="472.2" y2="242.44"/>
				<line class="st2" x1="444.08" y1="242.44" x2="443.34" y2="231.34"/>
				<line class="st2" x1="483.29" y1="271.69" x2="492.91" y2="277.11"/>
				<line class="st2" x1="478.86" y1="298.66" x2="483.29" y2="303.1"/>
				<line class="st2" x1="499.57" y1="248.78" x2="506.97" y2="236.89"/>
				<line class="st2" x1="478.86" y1="220.45" x2="478.86" y2="207.66"/>
				<line class="st2" x1="419.67" y1="214.06" x2="407.46" y2="207.66"/>
				<line class="st2" x1="447.78" y1="195.09" x2="447.78" y2="186.21"/>
				<line class="st2" x1="390.07" y1="231.34" x2="384.16" y2="231.34"/>
				<line class="st2" x1="384.16" y1="248.78" x2="384.16" y2="248.78"/>
				<line class="st2" x1="384.16" y1="280.91" x2="378.24" y2="298.66"/>
				<line class="st2" x1="396.73" y1="307.54" x2="396.73" y2="307.54"/>
				<line class="st2" x1="411.34" y1="328.26" x2="415.23" y2="329.74"/>
				<line class="st2" x1="443.34" y1="342.31" x2="447.78" y2="340.09"/>
				<line class="st2" x1="437.42" y1="323.08" x2="443.34" y2="323.08"/>
				<line class="st2" x1="478.86" y1="329.74" x2="483.29" y2="329.74"/>
				<line class="st2" x1="503.27" y1="312.53" x2="506.97" y2="312.53"/>
				<line class="st2" x1="510.67" y1="280.91" x2="512.89" y2="289.79"/>
				<line class="st2" x1="525.47" y1="271.69" x2="529.9" y2="271.69"/>
				<line class="st2" x1="525.47" y1="248.78" x2="525.47" y2="245.61"/>
				<line class="st2" x1="505.12" y1="210.86" x2="510.67" y2="207.66"/>
				<line class="st2" x1="532.86" y1="214.06" x2="536.56" y2="214.06"/>
				<line class="st2" x1="503.27" y1="186.21" x2="499.57" y2="180.29"/>
				<line class="st2" x1="478.86" y1="190.65" x2="472.2" y2="195.09"/>
				<line class="st2" x1="458.88" y1="210.86" x2="465.54" y2="220.45"/>
				<line class="st2" x1="419.67" y1="190.65" x2="425.8" y2="195.09"/>
				<line class="st2" x1="422.74" y1="236.89" x2="425.8" y2="231.34"/>
				<line class="st2" x1="384.16" y1="210.86" x2="381.2" y2="207.66"/>
				<line class="st2" x1="396.73" y1="180.29" x2="396.73" y2="186.21"/>
				<line class="st2" x1="437.42" y1="164.01" x2="431.94" y2="167.71"/>
				<line class="st2" x1="546.18" y1="242.83" x2="554.32" y2="245.61"/>
				<line class="st2" x1="566.9" y1="231.34" x2="572.82" y2="231.34"/>
				<line class="st2" x1="554.32" y1="203.96" x2="554.32" y2="201.74"/>
				<line class="st2" x1="540.26" y1="190.65" x2="536.56" y2="190.65"/>
				<line class="st2" x1="367.88" y1="220.45" x2="364.18" y2="220.45"/>
				<line class="st2" x1="361.22" y1="253.01" x2="359.74" y2="253.01"/>
				<line class="st2" x1="361.22" y1="274.4" x2="361.22" y2="274.4"/>
				<line class="st2" x1="390.07" y1="266.26" x2="396.73" y2="266.26"/>
				<line class="st2" x1="507.89" y1="328.26" x2="512.89" y2="335.66"/>
				<line class="st2" x1="536.56" y1="300.88" x2="546.18" y2="298.66"/>
				<line class="st2" x1="557.28" y1="277.11" x2="566.9" y2="280.91"/>
				<line class="st2" x1="468.87" y1="167.71" x2="468.87" y2="175.11"/>
				<line class="st2" x1="521.77" y1="171.41" x2="520.29" y2="175.11"/>
				<line class="st2" x1="492.91" y1="225.42" x2="492.91" y2="234.11"/>
				<line class="st2" x1="393.4" y1="335.66" x2="390.07" y2="342.31"/>
				<line class="st2" x1="413.56" y1="355.63" x2="413.56" y2="360.07"/>
				<line class="st2" x1="468.87" y1="360.07" x2="472.2" y2="363.77"/>
				<line class="st2" x1="492.91" y1="351.19" x2="499.57" y2="355.63"/>
				<line class="st2" x1="445.56" y1="363.77" x2="443.34" y2="373.39"/>
				<line class="st2" x1="356.04" y1="317.51" x2="361.22" y2="312.53"/>
				<line class="st2" x1="356.04" y1="300.88" x2="356.04" y2="299.77"/>
				<line class="st2" x1="550.25" y1="335.66" x2="554.32" y2="335.66"/>
				<line class="st2" x1="529.9" y1="323.08" x2="534.71" y2="323.08"/>
				<line class="st2" x1="529.9" y1="342.31" x2="532.86" y2="351.19"/>
				<line class="st2" x1="516.59" y1="373.39" x2="520.29" y2="368.58"/>
				<line class="st2" x1="562.09" y1="215.66" x2="572.82" y2="207.66"/>
				<line class="st2" x1="488.1" y1="167.71" x2="499.57" y2="160.31"/>
				<line class="st2" x1="475.53" y1="151.43" x2="475.53" y2="152.91"/>
				<line class="st2" x1="407.46" y1="160.31" x2="411.34" y2="167.71"/>
				<line class="st2" x1="580.95" y1="262.41" x2="585.39" y2="261.67"/>
				<line class="st2" x1="569.86" y1="307.54" x2="576.51" y2="315.02"/>
				<line class="st2" x1="492.91" y1="373.39" x2="497.74" y2="373.39"/>
			</g>
			
				<use xlink:href="#SVGID_1_"  style="overflow:visible;fill:none;stroke:#0083D4;stroke-width:1.9136;stroke-linecap:round;stroke-linejoin:round;stroke-miterlimit:10;"/>
		</g>
		<line class="st3" x1="475.39" y1="302.96" x2="475.39" y2="409.38"/>
	</g>
	<g>
		<path class="st0" d="M625.96,137.11c4.94-8.91,7.32-19.43,6.12-30.59c-2.55-23.73-21.65-42.93-45.37-45.57
			c-31.14-3.46-57.5,20.82-57.5,51.26c0,8.92,2.27,17.3,6.27,24.61c3.48,6.37,2.55,14.35-2.89,19.16
			c-16.81,14.86-26.7,37.36-24.22,62.07c3.52,35.05,32.52,62.9,67.67,65.13c42.37,2.69,77.57-30.87,77.57-72.66
			c0-21.55-9.37-40.91-24.26-54.24C623.91,151.4,622.41,143.51,625.96,137.11z"/>
		<line class="st3" x1="580.8" y1="219.85" x2="580.8" y2="409.38"/>
	</g>
	<g>
		<path class="st0" d="M794.17,304.48H682.4c-4.69,0-8.12-4.44-6.93-8.98l55.88-213.17c1.87-7.13,11.98-7.13,13.85,0L801.1,295.5
			C802.29,300.04,798.86,304.48,794.17,304.48z"/>
		<g>
			<defs>
				<path id="SVGID_00000028315882669728740150000016512625572725300642_" d="M794.17,304.48H682.4c-4.69,0-8.12-4.44-6.93-8.98
					l55.88-213.17c1.87-7.13,11.98-7.13,13.85,0L801.1,295.5C802.29,300.04,798.86,304.48,794.17,304.48z"/>
			</defs>
			<clipPath id="SVGID_00000134963701041832118220000000981578722720580244_">
				<use xlink:href="#SVGID_00000028315882669728740150000016512625572725300642_"  style="overflow:visible;"/>
			</clipPath>
			<g style="clip-path:url(#SVGID_00000134963701041832118220000000981578722720580244_);">
				<line class="st2" x1="698.62" y1="216.16" x2="698.62" y2="205.3"/>
				<line class="st2" x1="714.46" y1="210.73" x2="725.56" y2="219.95"/>
				<line class="st2" x1="686.35" y1="246.58" x2="698.62" y2="237.7"/>
				<line class="st2" x1="720.01" y1="246.58" x2="725.56" y2="256.56"/>
				<line class="st2" x1="671.55" y1="219.95" x2="676.73" y2="219.95"/>
				<line class="st2" x1="674.14" y1="187.82" x2="681.91" y2="196.27"/>
				<line class="st2" x1="732.22" y1="187.82" x2="738.88" y2="181.48"/>
				<line class="st2" x1="710.76" y1="181.48" x2="710.02" y2="170.38"/>
				<line class="st2" x1="749.98" y1="210.73" x2="759.59" y2="216.16"/>
				<line class="st2" x1="745.54" y1="237.7" x2="749.98" y2="242.14"/>
				<line class="st2" x1="766.25" y1="187.82" x2="773.65" y2="175.93"/>
				<line class="st2" x1="745.54" y1="159.49" x2="745.54" y2="146.7"/>
				<line class="st2" x1="686.35" y1="153.1" x2="674.14" y2="146.7"/>
				<line class="st2" x1="714.46" y1="134.13" x2="714.46" y2="125.25"/>
				<line class="st2" x1="656.76" y1="170.38" x2="650.84" y2="170.38"/>
				<line class="st2" x1="650.84" y1="187.82" x2="650.84" y2="187.82"/>
				<line class="st2" x1="650.84" y1="219.95" x2="644.92" y2="237.7"/>
				<line class="st2" x1="663.41" y1="246.58" x2="663.41" y2="246.58"/>
				<line class="st2" x1="678.03" y1="267.3" x2="681.91" y2="268.78"/>
				<line class="st2" x1="710.02" y1="281.36" x2="714.46" y2="279.14"/>
				<line class="st2" x1="704.11" y1="262.12" x2="710.02" y2="262.12"/>
				<line class="st2" x1="745.54" y1="268.78" x2="749.98" y2="268.78"/>
				<line class="st2" x1="769.95" y1="251.57" x2="773.65" y2="251.57"/>
				<line class="st2" x1="777.35" y1="219.95" x2="779.57" y2="228.83"/>
				<line class="st2" x1="792.15" y1="210.73" x2="796.59" y2="210.73"/>
				<line class="st2" x1="792.15" y1="187.82" x2="792.15" y2="184.65"/>
				<line class="st2" x1="771.8" y1="149.9" x2="777.35" y2="146.7"/>
				<line class="st2" x1="799.55" y1="153.1" x2="803.25" y2="153.1"/>
				<line class="st2" x1="769.95" y1="125.25" x2="766.25" y2="119.33"/>
				<line class="st2" x1="745.54" y1="129.69" x2="738.88" y2="134.13"/>
				<line class="st2" x1="725.56" y1="149.9" x2="732.22" y2="159.49"/>
				<line class="st2" x1="686.35" y1="129.69" x2="692.49" y2="134.13"/>
				<line class="st2" x1="689.42" y1="175.93" x2="692.49" y2="170.38"/>
				<line class="st2" x1="650.84" y1="149.9" x2="647.88" y2="146.7"/>
				<line class="st2" x1="663.41" y1="119.33" x2="663.41" y2="125.25"/>
				<line class="st2" x1="704.11" y1="103.05" x2="698.62" y2="106.75"/>
				<line class="st2" x1="812.86" y1="181.88" x2="821" y2="184.65"/>
				<line class="st2" x1="833.58" y1="170.38" x2="839.5" y2="170.38"/>
				<line class="st2" x1="821" y1="143" x2="821" y2="140.79"/>
				<line class="st2" x1="806.94" y1="129.69" x2="803.25" y2="129.69"/>
				<line class="st2" x1="634.56" y1="159.49" x2="630.86" y2="159.49"/>
				<line class="st2" x1="627.9" y1="192.05" x2="626.42" y2="192.05"/>
				<line class="st2" x1="627.9" y1="213.44" x2="627.9" y2="213.44"/>
				<line class="st2" x1="656.76" y1="205.3" x2="663.41" y2="205.3"/>
				<line class="st2" x1="774.58" y1="267.3" x2="779.57" y2="274.7"/>
				<line class="st2" x1="803.25" y1="239.92" x2="812.86" y2="237.7"/>
				<line class="st2" x1="823.96" y1="216.16" x2="833.58" y2="219.95"/>
				<line class="st2" x1="735.55" y1="106.75" x2="735.55" y2="114.15"/>
				<line class="st2" x1="788.45" y1="110.45" x2="786.97" y2="114.15"/>
				<line class="st2" x1="759.59" y1="164.46" x2="759.59" y2="173.15"/>
				<line class="st2" x1="660.09" y1="274.7" x2="656.76" y2="281.36"/>
				<line class="st2" x1="680.25" y1="294.67" x2="680.25" y2="299.11"/>
				<line class="st2" x1="735.55" y1="299.11" x2="738.88" y2="302.81"/>
				<line class="st2" x1="759.59" y1="290.23" x2="766.25" y2="294.67"/>
				<line class="st2" x1="712.24" y1="302.81" x2="710.02" y2="312.43"/>
				<line class="st2" x1="622.72" y1="256.56" x2="627.9" y2="251.57"/>
				<line class="st2" x1="622.72" y1="239.92" x2="622.72" y2="238.81"/>
				<line class="st2" x1="816.93" y1="274.7" x2="821" y2="274.7"/>
				<line class="st2" x1="796.59" y1="262.12" x2="801.4" y2="262.12"/>
				<line class="st2" x1="796.59" y1="281.36" x2="799.55" y2="290.23"/>
				<line class="st2" x1="783.27" y1="312.43" x2="786.97" y2="307.62"/>
				<line class="st2" x1="828.77" y1="154.7" x2="839.5" y2="146.7"/>
				<line class="st2" x1="754.79" y1="106.75" x2="766.25" y2="99.35"/>
				<line class="st2" x1="742.21" y1="90.48" x2="742.21" y2="91.96"/>
				<line class="st2" x1="674.14" y1="99.35" x2="678.03" y2="106.75"/>
				<line class="st2" x1="847.64" y1="201.45" x2="852.07" y2="200.71"/>
				<line class="st2" x1="836.54" y1="246.58" x2="843.2" y2="254.06"/>
				<line class="st2" x1="759.59" y1="312.43" x2="764.42" y2="312.43"/>
			</g>
			
				<use xlink:href="#SVGID_00000028315882669728740150000016512625572725300642_"  style="overflow:visible;fill:none;stroke:#0083D4;stroke-width:1.9136;stroke-linecap:round;stroke-linejoin:round;stroke-miterlimit:10;"/>
		</g>
		<line class="st3" x1="738.29" y1="277.45" x2="738.29" y2="409.38"/>
		<polyline class="st3" points="758.97,256.77 738.29,277.45 717.61,256.77 		"/>
	</g>
	<g>
		<ellipse class="st0" cx="429.19" cy="194.2" rx="33.6" ry="123.08"/>
		<line class="st3" x1="429.19" y1="193.75" x2="429.19" y2="409.38"/>
		<line class="st3" x1="447.4" y1="211.02" x2="429.19" y2="221.75"/>
		<line class="st3" x1="447.4" y1="243.7" x2="429.19" y2="254.43"/>
	</g>
	<g>
		<g>
			<path class="st0" d="M93.5,223.03c-0.07-1.21-0.1-2.43-0.1-3.67v-81.57c0-35.4,28.69-64.09,64.09-64.09
				c35.4,0,64.09,28.69,64.09,64.09v81.57c0,35.4-28.69,64.09-64.09,64.09c-14.16,0-27.25-4.59-37.86-12.37"/>
			<g>
				<defs>
					<path id="SVGID_00000165204664927072569000000007409586117592729256_" d="M93.5,223.03c-0.07-1.21-0.1-2.43-0.1-3.67v-81.57
						c0-35.4,28.69-64.09,64.09-64.09c35.4,0,64.09,28.69,64.09,64.09v81.57c0,35.4-28.69,64.09-64.09,64.09
						c-14.16,0-27.25-4.59-37.86-12.37"/>
				</defs>
				<clipPath id="SVGID_00000002371530889169662810000011687775975806026680_">
					<use xlink:href="#SVGID_00000165204664927072569000000007409586117592729256_"  style="overflow:visible;"/>
				</clipPath>
				<g style="clip-path:url(#SVGID_00000002371530889169662810000011687775975806026680_);">
					<line class="st2" x1="119.71" y1="196.48" x2="119.71" y2="185.63"/>
					<line class="st2" x1="135.55" y1="191.06" x2="146.65" y2="200.28"/>
					<line class="st2" x1="107.43" y1="226.91" x2="119.71" y2="218.03"/>
					<line class="st2" x1="141.1" y1="226.91" x2="146.65" y2="236.88"/>
					<line class="st2" x1="92.64" y1="200.28" x2="97.82" y2="200.28"/>
					<line class="st2" x1="95.23" y1="168.15" x2="103" y2="176.6"/>
					<line class="st2" x1="153.3" y1="168.15" x2="159.96" y2="161.8"/>
					<line class="st2" x1="131.85" y1="161.8" x2="131.11" y2="150.71"/>
					<line class="st2" x1="171.06" y1="191.06" x2="180.68" y2="196.48"/>
					<line class="st2" x1="166.62" y1="218.03" x2="171.06" y2="222.47"/>
					<line class="st2" x1="187.34" y1="168.15" x2="194.74" y2="156.25"/>
					<line class="st2" x1="166.62" y1="139.82" x2="166.62" y2="127.03"/>
					<line class="st2" x1="107.43" y1="133.43" x2="95.23" y2="127.03"/>
					<line class="st2" x1="135.55" y1="114.45" x2="135.55" y2="105.58"/>
					<line class="st2" x1="77.84" y1="150.71" x2="71.92" y2="150.71"/>
					<line class="st2" x1="71.92" y1="168.15" x2="71.92" y2="168.15"/>
					<line class="st2" x1="71.92" y1="200.28" x2="66" y2="218.03"/>
					<line class="st2" x1="84.5" y1="226.91" x2="84.5" y2="226.91"/>
					<line class="st2" x1="99.11" y1="247.63" x2="103" y2="249.1"/>
					<line class="st2" x1="131.11" y1="261.68" x2="135.55" y2="259.46"/>
					<line class="st2" x1="125.19" y1="242.45" x2="131.11" y2="242.45"/>
					<line class="st2" x1="166.62" y1="249.1" x2="171.06" y2="249.1"/>
					<line class="st2" x1="191.04" y1="231.9" x2="194.74" y2="231.9"/>
					<line class="st2" x1="198.44" y1="200.28" x2="200.65" y2="209.15"/>
					<line class="st2" x1="213.23" y1="191.06" x2="217.67" y2="191.06"/>
					<line class="st2" x1="213.23" y1="168.15" x2="213.23" y2="164.98"/>
					<line class="st2" x1="192.89" y1="130.23" x2="198.44" y2="127.03"/>
					<line class="st2" x1="220.63" y1="133.43" x2="224.33" y2="133.43"/>
					<line class="st2" x1="191.04" y1="105.58" x2="187.34" y2="99.66"/>
					<line class="st2" x1="166.62" y1="110.01" x2="159.96" y2="114.45"/>
					<line class="st2" x1="146.65" y1="130.23" x2="153.3" y2="139.82"/>
					<line class="st2" x1="107.43" y1="110.01" x2="113.57" y2="114.45"/>
					<line class="st2" x1="110.5" y1="156.25" x2="113.57" y2="150.71"/>
					<line class="st2" x1="71.92" y1="130.23" x2="68.96" y2="127.03"/>
					<line class="st2" x1="84.5" y1="99.66" x2="84.5" y2="105.58"/>
					<line class="st2" x1="125.19" y1="83.38" x2="119.71" y2="87.08"/>
					<line class="st2" x1="233.95" y1="162.2" x2="242.09" y2="164.98"/>
					<line class="st2" x1="254.66" y1="150.71" x2="260.58" y2="150.71"/>
					<line class="st2" x1="242.09" y1="123.33" x2="242.09" y2="121.11"/>
					<line class="st2" x1="228.03" y1="110.01" x2="224.33" y2="110.01"/>
					<line class="st2" x1="55.65" y1="139.82" x2="51.95" y2="139.82"/>
					<line class="st2" x1="48.99" y1="172.38" x2="47.51" y2="172.38"/>
					<line class="st2" x1="48.99" y1="193.77" x2="48.99" y2="193.77"/>
					<line class="st2" x1="77.84" y1="185.63" x2="84.5" y2="185.63"/>
					<line class="st2" x1="195.66" y1="247.63" x2="200.65" y2="255.02"/>
					<line class="st2" x1="224.33" y1="220.25" x2="233.95" y2="218.03"/>
					<line class="st2" x1="245.05" y1="196.48" x2="254.66" y2="200.28"/>
					<line class="st2" x1="156.63" y1="87.08" x2="156.63" y2="94.48"/>
					<line class="st2" x1="209.53" y1="90.78" x2="208.05" y2="94.48"/>
					<line class="st2" x1="180.68" y1="144.79" x2="180.68" y2="153.48"/>
					<line class="st2" x1="81.17" y1="255.02" x2="77.84" y2="261.68"/>
					<line class="st2" x1="101.33" y1="275" x2="101.33" y2="279.44"/>
					<line class="st2" x1="156.63" y1="279.44" x2="159.96" y2="283.14"/>
					<line class="st2" x1="180.68" y1="270.56" x2="187.34" y2="275"/>
					<line class="st2" x1="133.33" y1="283.14" x2="131.11" y2="292.76"/>
					<line class="st2" x1="43.81" y1="236.88" x2="48.99" y2="231.9"/>
					<line class="st2" x1="43.81" y1="220.25" x2="43.81" y2="219.14"/>
					<line class="st2" x1="238.02" y1="255.02" x2="242.09" y2="255.02"/>
					<line class="st2" x1="217.67" y1="242.45" x2="222.48" y2="242.45"/>
					<line class="st2" x1="217.67" y1="261.68" x2="220.63" y2="270.56"/>
					<line class="st2" x1="204.35" y1="292.76" x2="208.05" y2="287.95"/>
					<line class="st2" x1="249.85" y1="135.02" x2="260.58" y2="127.03"/>
					<line class="st2" x1="175.87" y1="87.08" x2="187.34" y2="79.68"/>
					<line class="st2" x1="163.29" y1="70.8" x2="163.29" y2="72.28"/>
					<line class="st2" x1="95.23" y1="79.68" x2="99.11" y2="87.08"/>
					<line class="st2" x1="268.72" y1="181.78" x2="273.16" y2="181.04"/>
					<line class="st2" x1="257.62" y1="226.91" x2="264.28" y2="234.39"/>
					<line class="st2" x1="180.68" y1="292.76" x2="185.5" y2="292.76"/>
				</g>
				
					<use xlink:href="#SVGID_00000165204664927072569000000007409586117592729256_"  style="overflow:visible;fill:none;stroke:#0083D4;stroke-width:1.9136;stroke-linecap:round;stroke-linejoin:round;stroke-miterlimit:10;"/>
			</g>
			<line class="st3" x1="157.49" y1="234.82" x2="157.49" y2="409.38"/>
		</g>
		<circle class="st0" cx="78.01" cy="261.89" r="42.01"/>
		<line class="st3" x1="80.94" y1="267.49" x2="157.49" y2="332.83"/>
		<g>
			<defs>
				<circle id="SVGID_00000135662737877947031170000004011260354120472255_" cx="78.01" cy="261.89" r="42.01"/>
			</defs>
			<clipPath id="SVGID_00000140708718038129250570000014295369957014685834_">
				<use xlink:href="#SVGID_00000135662737877947031170000004011260354120472255_"  style="overflow:visible;"/>
			</clipPath>
			<g style="clip-path:url(#SVGID_00000140708718038129250570000014295369957014685834_);">
				<line class="st2" x1="47.15" y1="277.06" x2="47.15" y2="266.21"/>
				<line class="st2" x1="62.99" y1="271.64" x2="74.09" y2="280.85"/>
				<line class="st2" x1="34.88" y1="307.49" x2="47.15" y2="298.61"/>
				<line class="st2" x1="68.54" y1="307.49" x2="74.09" y2="317.46"/>
				<line class="st2" x1="20.08" y1="280.85" x2="25.26" y2="280.85"/>
				<line class="st2" x1="22.67" y1="248.73" x2="30.44" y2="257.18"/>
				<line class="st2" x1="80.75" y1="248.73" x2="87.41" y2="242.38"/>
				<line class="st2" x1="59.29" y1="242.38" x2="58.55" y2="231.29"/>
				<line class="st2" x1="98.51" y1="271.64" x2="108.12" y2="277.06"/>
				<line class="st2" x1="94.07" y1="298.61" x2="98.51" y2="303.05"/>
				<line class="st2" x1="114.78" y1="248.73" x2="122.18" y2="236.83"/>
				<line class="st2" x1="94.07" y1="220.4" x2="94.07" y2="207.61"/>
				<line class="st2" x1="34.88" y1="214.01" x2="22.67" y2="207.61"/>
				<line class="st2" x1="62.99" y1="195.03" x2="62.99" y2="186.15"/>
				<line class="st2" x1="5.28" y1="231.29" x2="-0.63" y2="231.29"/>
				<line class="st2" x1="-0.63" y1="248.73" x2="-0.63" y2="248.73"/>
				<line class="st2" x1="-0.63" y1="280.85" x2="-6.55" y2="298.61"/>
				<line class="st2" x1="11.94" y1="307.49" x2="11.94" y2="307.49"/>
				<line class="st2" x1="26.56" y1="328.2" x2="30.44" y2="329.68"/>
				<line class="st2" x1="58.55" y1="342.26" x2="62.99" y2="340.04"/>
				<line class="st2" x1="52.63" y1="323.03" x2="58.55" y2="323.03"/>
				<line class="st2" x1="94.07" y1="329.68" x2="98.51" y2="329.68"/>
				<line class="st2" x1="118.48" y1="312.48" x2="122.18" y2="312.48"/>
				<line class="st2" x1="125.88" y1="280.85" x2="128.1" y2="289.73"/>
				<line class="st2" x1="140.68" y1="271.64" x2="145.12" y2="271.64"/>
				<line class="st2" x1="140.68" y1="248.73" x2="140.68" y2="245.56"/>
				<line class="st2" x1="120.33" y1="210.81" x2="125.88" y2="207.61"/>
				<line class="st2" x1="148.07" y1="214.01" x2="151.77" y2="214.01"/>
				<line class="st2" x1="118.48" y1="186.15" x2="114.78" y2="180.24"/>
				<line class="st2" x1="94.07" y1="190.59" x2="87.41" y2="195.03"/>
				<line class="st2" x1="74.09" y1="210.81" x2="80.75" y2="220.4"/>
				<line class="st2" x1="34.88" y1="190.59" x2="41.01" y2="195.03"/>
				<line class="st2" x1="37.95" y1="236.83" x2="41.01" y2="231.29"/>
				<line class="st2" x1="-0.63" y1="210.81" x2="-3.59" y2="207.61"/>
				<line class="st2" x1="11.94" y1="180.24" x2="11.94" y2="186.15"/>
				<line class="st2" x1="52.63" y1="163.96" x2="47.15" y2="167.66"/>
				<line class="st2" x1="161.39" y1="242.78" x2="169.53" y2="245.56"/>
				<line class="st2" x1="182.11" y1="231.29" x2="188.03" y2="231.29"/>
				<line class="st2" x1="169.53" y1="203.91" x2="169.53" y2="201.69"/>
				<line class="st2" x1="155.47" y1="190.59" x2="151.77" y2="190.59"/>
				<line class="st2" x1="-16.91" y1="220.4" x2="-20.61" y2="220.4"/>
				<line class="st2" x1="-23.57" y1="252.96" x2="-25.05" y2="252.96"/>
				<line class="st2" x1="-23.57" y1="274.35" x2="-23.57" y2="274.35"/>
				<line class="st2" x1="5.28" y1="266.21" x2="11.94" y2="266.21"/>
				<line class="st2" x1="123.1" y1="328.2" x2="128.1" y2="335.6"/>
				<line class="st2" x1="151.77" y1="300.83" x2="161.39" y2="298.61"/>
				<line class="st2" x1="172.49" y1="277.06" x2="182.11" y2="280.85"/>
				<line class="st2" x1="84.08" y1="167.66" x2="84.08" y2="175.06"/>
				<line class="st2" x1="136.98" y1="171.36" x2="135.5" y2="175.06"/>
				<line class="st2" x1="108.12" y1="225.37" x2="108.12" y2="234.06"/>
				<line class="st2" x1="8.61" y1="335.6" x2="5.28" y2="342.26"/>
				<line class="st2" x1="28.77" y1="355.58" x2="28.77" y2="360.02"/>
				<line class="st2" x1="84.08" y1="360.02" x2="87.41" y2="363.72"/>
				<line class="st2" x1="108.12" y1="351.14" x2="114.78" y2="355.58"/>
				<line class="st2" x1="60.77" y1="363.72" x2="58.55" y2="373.34"/>
				<line class="st2" x1="-28.75" y1="317.46" x2="-23.57" y2="312.48"/>
				<line class="st2" x1="-28.75" y1="300.83" x2="-28.75" y2="299.72"/>
				<line class="st2" x1="165.46" y1="335.6" x2="169.53" y2="335.6"/>
				<line class="st2" x1="145.12" y1="323.03" x2="149.92" y2="323.03"/>
				<line class="st2" x1="145.12" y1="342.26" x2="148.07" y2="351.14"/>
				<line class="st2" x1="131.8" y1="373.34" x2="135.5" y2="368.53"/>
				<line class="st2" x1="177.3" y1="215.6" x2="188.03" y2="207.61"/>
				<line class="st2" x1="103.31" y1="167.66" x2="114.78" y2="160.26"/>
				<line class="st2" x1="90.74" y1="151.38" x2="90.74" y2="152.86"/>
				<line class="st2" x1="22.67" y1="160.26" x2="26.56" y2="167.66"/>
				<line class="st2" x1="196.16" y1="262.36" x2="200.6" y2="261.62"/>
				<line class="st2" x1="185.07" y1="307.49" x2="191.73" y2="314.97"/>
				<line class="st2" x1="108.12" y1="373.34" x2="112.95" y2="373.34"/>
			</g>
			
				<use xlink:href="#SVGID_00000135662737877947031170000004011260354120472255_"  style="overflow:visible;fill:none;stroke:#0083D4;stroke-width:1.9136;stroke-linecap:round;stroke-linejoin:round;stroke-miterlimit:10;"/>
		</g>
	</g>
	<g>
		<circle class="st0" cx="862.16" cy="255.99" r="83.26"/>
		<line class="st3" x1="862.16" y1="263.32" x2="862.16" y2="409.38"/>
		<line class="st3" x1="862.16" y1="294.56" x2="892.03" y2="281.42"/>
	</g>
	<g>
		<path class="st0" d="M359.69,226.13c1.97-5.36,2.92-11.22,2.59-17.34c-1.2-22.11-19.5-40.19-41.62-41.12
			c-24.91-1.04-45.43,18.84-45.43,43.52c0,5.27,0.95,10.31,2.67,14.98c1.88,5.08,0.24,10.73-3.98,14.11
			c-18.23,14.59-29.21,37.87-26.63,63.56c3.47,34.6,32.1,62.1,66.81,64.3c41.82,2.66,76.57-30.48,76.57-71.73
			c0-22.71-10.53-42.94-26.98-56.11C359.43,236.91,357.81,231.25,359.69,226.13z"/>
		<line class="st3" x1="318.78" y1="302.96" x2="318.78" y2="409.38"/>
		<line class="st3" x1="298.25" y1="314.17" x2="318.78" y2="332.83"/>
	</g>
	<line class="st0" x1="36" y1="409.38" x2="964" y2="409.38"/>
</g>
</svg>
