<?xml version="1.0" encoding="utf-8"?>
<!-- Generator: Adobe Illustrator 27.2.0, SVG Export Plug-In . SVG Version: 6.00 Build 0)  -->
<svg version="1.1" id="Layer_1" xmlns="http://www.w3.org/2000/svg" xmlns:xlink="http://www.w3.org/1999/xlink" x="0px" y="0px"
	 viewBox="0 0 566.9 470" style="enable-background:new 0 0 566.9 470;" xml:space="preserve">
<style type="text/css">
	.st0{clip-path:url(#SVGID_00000002354364123627770410000017655154136544780675_);}
	.st1{fill:#FFFFFF;stroke:#0083D4;stroke-width:3.1381;stroke-linecap:round;stroke-linejoin:round;stroke-miterlimit:10;}
</style>
<g>
	<defs>
		<rect id="SVGID_1_" x="12.3" y="48.5" width="542.2" height="373"/>
	</defs>
	<clipPath id="SVGID_00000155122699619019648680000005947982661243509670_">
		<use xlink:href="#SVGID_1_"  style="overflow:visible;"/>
	</clipPath>
	<g style="clip-path:url(#SVGID_00000155122699619019648680000005947982661243509670_);">
		<g>
			<g>
				<g>
					
						<rect x="79.1" y="264.1" transform="matrix(-1 -8.798049e-04 8.798049e-04 -1 178.9831 654.4032)" class="st1" width="21.1" height="126.2"/>
					<line class="st1" x1="100.2" y1="310.2" x2="79.1" y2="310.1"/>
					<line class="st1" x1="100.1" y1="352.6" x2="79.1" y2="352.5"/>
					<path class="st1" d="M104.8,318.2c-4.5,6-4.5,13.8-4.5,13.8s7.3-2,11.8-8.1c4.5-6,4.5-13.8,4.5-13.8S109.3,312.2,104.8,318.2z"
						/>
					<path class="st1" d="M74.5,356c4.5,6.1,4.5,13.8,4.5,13.8s-7.3-2.1-11.8-8.1c-4.5-6.1-4.5-13.8-4.5-13.8S70,350,74.5,356z"/>
				</g>
				<g>
					
						<rect x="79.1" y="175.4" transform="matrix(-1 -8.798051e-04 8.798051e-04 -1 179.1123 439.2908)" class="st1" width="21.1" height="88.5"/>
					<line class="st1" x1="100.2" y1="221.5" x2="79.1" y2="221.4"/>
					<path class="st1" d="M74.5,267.3c4.5,6.1,4.5,13.8,4.5,13.8s-7.3-2.1-11.8-8.1c-4.5-6.1-4.5-13.8-4.5-13.8S70,261.3,74.5,267.3
						z"/>
				</g>
				<g>
					
						<rect x="79.1" y="87" transform="matrix(-1 -8.798051e-04 8.798051e-04 -1 179.1901 262.4752)" class="st1" width="21.1" height="88.5"/>
					<line class="st1" x1="100.2" y1="133" x2="79.1" y2="133"/>
					<path class="st1" d="M104.8,116.4c-4.5,6-4.5,13.8-4.5,13.8s7.3-2,11.8-8.1c4.5-6,4.5-13.8,4.5-13.8S109.3,110.3,104.8,116.4z"
						/>
					<path class="st1" d="M104.8,216.8c-4.5,6-4.5,13.8-4.5,13.8s7.3-2,11.8-8.1c4.5-6,4.5-13.8,4.5-13.8S109.3,210.7,104.8,216.8z"
						/>
					<path class="st1" d="M74.5,133.3c4.5,6.1,4.5,13.8,4.5,13.8s-7.3-2.1-11.8-8.1c-4.5-6.1-4.5-13.8-4.5-13.8S70,127.2,74.5,133.3
						z"/>
				</g>
				<g>
					
						<rect x="79.1" y="352.6" transform="matrix(-1 -8.798051e-04 8.798051e-04 -1 178.9564 793.7146)" class="st1" width="21.1" height="88.5"/>
					<line class="st1" x1="100.2" y1="398.7" x2="79.1" y2="398.6"/>
					<path class="st1" d="M104.8,414.8c-4.5,6-4.5,13.8-4.5,13.8s7.3-2,11.8-8.1c4.5-6,4.5-13.8,4.5-13.8S109.3,408.7,104.8,414.8z"
						/>
					<path class="st1" d="M74.5,466.4c4.5,6.1,4.5,13.8,4.5,13.8s-7.3-2.1-11.8-8.1c-4.5-6.1-4.5-13.8-4.5-13.8S70,460.4,74.5,466.4
						z"/>
				</g>
				<g>
					
						<rect x="79.1" y="440.2" transform="matrix(-1 -8.798051e-04 8.798051e-04 -1 178.8793 968.9435)" class="st1" width="21.1" height="88.5"/>
					<line class="st1" x1="100.2" y1="486.3" x2="79.1" y2="486.3"/>
					<path class="st1" d="M104.8,535.9c-4.5,6-4.5,13.8-4.5,13.8s7.3-2,11.8-8.1c4.5-6,4.5-13.8,4.5-13.8S109.3,529.8,104.8,535.9z"
						/>
					<path class="st1" d="M74.5,554.1c4.5,6.1,4.5,13.8,4.5,13.8s-7.3-2.1-11.8-8.1c-4.5-6.1-4.5-13.8-4.5-13.8S70,548,74.5,554.1z"
						/>
				</g>
				<g>
					
						<rect x="79.1" y="527.8" transform="matrix(-1 -8.798054e-04 8.798054e-04 -1 178.8065 1140.8868)" class="st1" width="21.1" height="85.2"/>
					<line class="st1" x1="100.2" y1="573.9" x2="79.1" y2="573.9"/>
				</g>
			</g>
			<g>
				<g>
					
						<rect x="156.6" y="302.3" transform="matrix(-1 -8.798049e-04 8.798049e-04 -1 334.0062 730.8587)" class="st1" width="21.1" height="126.2"/>
					<line class="st1" x1="177.7" y1="348.4" x2="156.6" y2="348.3"/>
					<line class="st1" x1="177.7" y1="390.8" x2="156.6" y2="390.7"/>
					<path class="st1" d="M182.3,356.4c-4.5,6-4.5,13.8-4.5,13.8s7.3-2,11.8-8.1c4.5-6,4.5-13.8,4.5-13.8S186.8,350.4,182.3,356.4z"
						/>
					<path class="st1" d="M152,394.2c4.5,6.1,4.5,13.8,4.5,13.8s-7.3-2.1-11.8-8.1s-4.5-13.8-4.5-13.8S147.5,388.2,152,394.2z"/>
				</g>
				<g>
					
						<rect x="156.7" y="213.6" transform="matrix(-1 -8.798051e-04 8.798051e-04 -1 334.1353 515.7462)" class="st1" width="21.1" height="88.5"/>
					<line class="st1" x1="177.7" y1="259.6" x2="156.6" y2="259.6"/>
					<path class="st1" d="M152,305.5c4.5,6.1,4.5,13.8,4.5,13.8s-7.3-2.1-11.8-8.1c-4.5-6.1-4.5-13.8-4.5-13.8
						S147.5,299.4,152,305.5z"/>
				</g>
				<g>
					
						<rect x="156.7" y="125.1" transform="matrix(-1 -8.798051e-04 8.798051e-04 -1 334.2131 338.9307)" class="st1" width="21.1" height="88.5"/>
					<line class="st1" x1="177.7" y1="171.2" x2="156.6" y2="171.2"/>
					<path class="st1" d="M182.3,154.5c-4.5,6-4.5,13.8-4.5,13.8s7.3-2,11.8-8.1c4.5-6,4.5-13.8,4.5-13.8S186.9,148.5,182.3,154.5z"
						/>
					<path class="st1" d="M182.3,254.9c-4.5,6-4.5,13.8-4.5,13.8s7.3-2,11.8-8.1c4.5-6,4.5-13.8,4.5-13.8S186.8,248.9,182.3,254.9z"
						/>
					<path class="st1" d="M152,171.4c4.5,6.1,4.5,13.8,4.5,13.8s-7.3-2.1-11.8-8.1c-4.5-6.1-4.5-13.8-4.5-13.8
						S147.5,165.4,152,171.4z"/>
				</g>
				<g>
					
						<rect x="156.7" y="390.8" transform="matrix(-1 -8.798051e-04 8.798051e-04 -1 333.9794 870.17)" class="st1" width="21.1" height="88.5"/>
					<line class="st1" x1="177.7" y1="436.9" x2="156.6" y2="436.8"/>
					<path class="st1" d="M182.3,453c-4.5,6-4.5,13.8-4.5,13.8s7.3-2,11.8-8.1c4.5-6,4.5-13.8,4.5-13.8S186.8,446.9,182.3,453z"/>
					<path class="st1" d="M152,504.6c4.5,6.1,4.5,13.8,4.5,13.8s-7.3-2.1-11.8-8.1c-4.5-6.1-4.5-13.8-4.5-13.8
						S147.5,498.6,152,504.6z"/>
				</g>
				<g>
					
						<rect x="156.7" y="478.4" transform="matrix(-1 -8.798051e-04 8.798051e-04 -1 333.9023 1045.3989)" class="st1" width="21.1" height="88.5"/>
					<line class="st1" x1="177.7" y1="524.5" x2="156.6" y2="524.5"/>
					<path class="st1" d="M182.3,562c-4.5,6-4.5,13.8-4.5,13.8s7.3-2,11.8-8.1c4.5-6,4.5-13.8,4.5-13.8S186.8,555.9,182.3,562z"/>
					<path class="st1" d="M152,580.1c4.5,6.1,4.5,13.8,4.5,13.8s-7.3-2.1-11.8-8.1c-4.5-6.1-4.5-13.8-4.5-13.8
						S147.5,574.1,152,580.1z"/>
				</g>
				<g>
					
						<rect x="156.7" y="566" transform="matrix(-1 -8.703592e-04 8.703592e-04 -1 333.8848 1179.1471)" class="st1" width="21.1" height="47"/>
				</g>
			</g>
			<g>
				<g>
					
						<rect x="234.2" y="348.4" transform="matrix(-1 -8.798049e-04 8.798049e-04 -1 489.0222 823.1974)" class="st1" width="21.1" height="126.2"/>
					<line class="st1" x1="255.2" y1="394.5" x2="234.2" y2="394.5"/>
					<line class="st1" x1="255.2" y1="436.9" x2="234.1" y2="436.9"/>
					<path class="st1" d="M259.8,402.6c-4.5,6-4.5,13.8-4.5,13.8s7.3-2,11.8-8.1c4.5-6,4.5-13.8,4.5-13.8S264.3,396.5,259.8,402.6z"
						/>
					<path class="st1" d="M229.5,440.4c4.5,6.1,4.5,13.8,4.5,13.8s-7.3-2.1-11.8-8.1s-4.5-13.8-4.5-13.8S225,434.3,229.5,440.4z"/>
				</g>
				<g>
					
						<rect x="234.2" y="259.7" transform="matrix(-1 -8.798051e-04 8.798051e-04 -1 489.1513 608.085)" class="st1" width="21.1" height="88.5"/>
					<line class="st1" x1="255.2" y1="305.8" x2="234.2" y2="305.8"/>
					<path class="st1" d="M229.5,351.6c4.5,6.1,4.5,13.8,4.5,13.8s-7.3-2.1-11.8-8.1c-4.5-6.1-4.5-13.8-4.5-13.8
						S225,345.6,229.5,351.6z"/>
				</g>
				<g>
					
						<rect x="234.2" y="171.3" transform="matrix(-1 -8.798051e-04 8.798051e-04 -1 489.2291 431.2694)" class="st1" width="21.1" height="88.5"/>
					<line class="st1" x1="255.2" y1="217.4" x2="234.2" y2="217.4"/>
					<path class="st1" d="M259.9,200.7c-4.5,6-4.5,13.8-4.5,13.8s7.3-2,11.8-8.1c4.5-6,4.5-13.8,4.5-13.8S264.4,194.6,259.9,200.7z"
						/>
					<path class="st1" d="M259.8,301.1c-4.5,6-4.5,13.8-4.5,13.8s7.3-2,11.8-8.1c4.5-6,4.5-13.8,4.5-13.8S264.3,295,259.8,301.1z"/>
					<path class="st1" d="M229.6,217.6c4.5,6.1,4.5,13.8,4.5,13.8s-7.3-2.1-11.8-8.1c-4.5-6.1-4.5-13.8-4.5-13.8
						S225.1,211.5,229.6,217.6z"/>
				</g>
				<g>
					
						<rect x="234.2" y="436.9" transform="matrix(-1 -8.798051e-04 8.798051e-04 -1 488.9954 962.5089)" class="st1" width="21.1" height="88.5"/>
					<line class="st1" x1="255.2" y1="483" x2="234.2" y2="483"/>
					<path class="st1" d="M259.8,499.1c-4.5,6-4.5,13.8-4.5,13.8s7.3-2,11.8-8.1c4.5-6,4.5-13.8,4.5-13.8S264.3,493.1,259.8,499.1z"
						/>
					<path class="st1" d="M229.5,550.8c4.5,6.1,4.5,13.8,4.5,13.8s-7.3-2.1-11.8-8.1s-4.5-13.8-4.5-13.8S225,544.7,229.5,550.8z"/>
				</g>
				<g>
					
						<rect x="234.2" y="524.5" transform="matrix(-1 -8.798051e-04 8.798051e-04 -1 488.9183 1137.7377)" class="st1" width="21.1" height="88.5"/>
					<line class="st1" x1="255.2" y1="570.6" x2="234.2" y2="570.6"/>
				</g>
			</g>
		</g>
		<g>
			<g>
				<g>
					<rect x="466.8" y="264.1" class="st1" width="21.1" height="126.2"/>
					<line class="st1" x1="466.7" y1="310.2" x2="487.8" y2="310.1"/>
					<line class="st1" x1="466.8" y1="352.6" x2="487.8" y2="352.5"/>
					<path class="st1" d="M462.2,318.2c4.5,6,4.5,13.8,4.5,13.8s-7.3-2-11.8-8.1c-4.5-6-4.5-13.8-4.5-13.8S457.6,312.2,462.2,318.2z
						"/>
					<path class="st1" d="M492.5,356c-4.5,6.1-4.5,13.8-4.5,13.8s7.3-2.1,11.8-8.1s4.5-13.8,4.5-13.8S497,350,492.5,356z"/>
				</g>
				<g>
					<rect x="466.7" y="175.4" class="st1" width="21.1" height="88.5"/>
					<line class="st1" x1="466.7" y1="221.5" x2="487.8" y2="221.4"/>
					<path class="st1" d="M492.5,267.3c-4.5,6.1-4.5,13.8-4.5,13.8s7.3-2.1,11.8-8.1c4.5-6.1,4.5-13.8,4.5-13.8
						S497,261.3,492.5,267.3z"/>
				</g>
				<g>
					<rect x="466.7" y="87" class="st1" width="21.1" height="88.5"/>
					<line class="st1" x1="466.7" y1="133" x2="487.8" y2="133"/>
					<path class="st1" d="M462.1,116.4c4.5,6,4.5,13.8,4.5,13.8s-7.3-2-11.8-8.1c-4.5-6-4.5-13.8-4.5-13.8S457.6,110.3,462.1,116.4z
						"/>
					<path class="st1" d="M462.2,216.8c4.5,6,4.5,13.8,4.5,13.8s-7.3-2-11.8-8.1s-4.5-13.8-4.5-13.8S457.6,210.7,462.2,216.8z"/>
					<path class="st1" d="M492.4,133.3c-4.5,6.1-4.5,13.8-4.5,13.8s7.3-2.1,11.8-8.1c4.5-6.1,4.5-13.8,4.5-13.8
						S496.9,127.2,492.4,133.3z"/>
				</g>
				<g>
					<rect x="466.7" y="352.6" class="st1" width="21.1" height="88.5"/>
					<line class="st1" x1="466.7" y1="398.7" x2="487.8" y2="398.6"/>
					<path class="st1" d="M462.2,414.8c4.5,6,4.5,13.8,4.5,13.8s-7.3-2-11.8-8.1c-4.5-6-4.5-13.8-4.5-13.8S457.6,408.7,462.2,414.8z
						"/>
					<path class="st1" d="M492.5,466.4c-4.5,6.1-4.5,13.8-4.5,13.8s7.3-2.1,11.8-8.1s4.5-13.8,4.5-13.8S497,460.4,492.5,466.4z"/>
				</g>
				<g>
					<rect x="466.7" y="440.2" class="st1" width="21.1" height="88.5"/>
					<line class="st1" x1="466.7" y1="486.3" x2="487.8" y2="486.3"/>
					<path class="st1" d="M462.2,535.9c4.5,6,4.5,13.8,4.5,13.8s-7.3-2-11.8-8.1s-4.5-13.8-4.5-13.8S457.6,529.8,462.2,535.9z"/>
					<path class="st1" d="M492.5,554.1c-4.5,6.1-4.5,13.8-4.5,13.8s7.3-2.1,11.8-8.1s4.5-13.8,4.5-13.8S497,548,492.5,554.1z"/>
				</g>
				<g>
					<rect x="466.7" y="527.8" class="st1" width="21.1" height="85.2"/>
					<line class="st1" x1="466.7" y1="573.9" x2="487.8" y2="573.9"/>
				</g>
			</g>
			<g>
				<g>
					<rect x="389.2" y="302.3" class="st1" width="21.1" height="126.2"/>
					<line class="st1" x1="389.2" y1="348.4" x2="410.3" y2="348.3"/>
					<line class="st1" x1="389.3" y1="390.8" x2="410.3" y2="390.7"/>
					<path class="st1" d="M384.6,356.4c4.5,6,4.5,13.8,4.5,13.8s-7.3-2-11.8-8.1c-4.5-6-4.5-13.8-4.5-13.8S380.1,350.4,384.6,356.4z
						"/>
					<path class="st1" d="M414.9,394.2c-4.5,6.1-4.5,13.8-4.5,13.8s7.3-2.1,11.8-8.1s4.5-13.8,4.5-13.8S419.4,388.2,414.9,394.2z"/>
				</g>
				<g>
					<rect x="389.2" y="213.6" class="st1" width="21.1" height="88.5"/>
					<line class="st1" x1="389.2" y1="259.6" x2="410.3" y2="259.6"/>
					<path class="st1" d="M414.9,305.5c-4.5,6.1-4.5,13.8-4.5,13.8s7.3-2.1,11.8-8.1c4.5-6.1,4.5-13.8,4.5-13.8
						S419.4,299.4,414.9,305.5z"/>
				</g>
				<g>
					<rect x="389.2" y="125.1" class="st1" width="21.1" height="88.5"/>
					<line class="st1" x1="389.2" y1="171.2" x2="410.3" y2="171.2"/>
					<path class="st1" d="M384.6,154.5c4.5,6,4.5,13.8,4.5,13.8s-7.3-2-11.8-8.1c-4.5-6-4.5-13.8-4.5-13.8S380.1,148.5,384.6,154.5z
						"/>
					<path class="st1" d="M384.6,254.9c4.5,6,4.5,13.8,4.5,13.8s-7.3-2-11.8-8.1c-4.5-6-4.5-13.8-4.5-13.8S380.1,248.9,384.6,254.9z
						"/>
					<path class="st1" d="M414.9,171.4c-4.5,6.1-4.5,13.8-4.5,13.8s7.3-2.1,11.8-8.1s4.5-13.8,4.5-13.8S419.4,165.4,414.9,171.4z"/>
				</g>
				<g>
					<rect x="389.2" y="390.8" class="st1" width="21.1" height="88.5"/>
					<line class="st1" x1="389.2" y1="436.9" x2="410.3" y2="436.8"/>
					<path class="st1" d="M384.6,453c4.5,6,4.5,13.8,4.5,13.8s-7.3-2-11.8-8.1c-4.5-6-4.5-13.8-4.5-13.8S380.1,446.9,384.6,453z"/>
					<path class="st1" d="M414.9,504.6c-4.5,6.1-4.5,13.8-4.5,13.8s7.3-2.1,11.8-8.1c4.5-6.1,4.5-13.8,4.5-13.8
						S419.4,498.6,414.9,504.6z"/>
				</g>
				<g>
					<rect x="389.2" y="478.4" class="st1" width="21.1" height="88.5"/>
					<line class="st1" x1="389.2" y1="524.5" x2="410.3" y2="524.5"/>
					<path class="st1" d="M384.6,562c4.5,6,4.5,13.8,4.5,13.8s-7.3-2-11.8-8.1s-4.5-13.8-4.5-13.8S380.1,555.9,384.6,562z"/>
					<path class="st1" d="M414.9,580.1c-4.5,6.1-4.5,13.8-4.5,13.8s7.3-2.1,11.8-8.1c4.5-6.1,4.5-13.8,4.5-13.8
						S419.4,574.1,414.9,580.1z"/>
				</g>
				<g>
					<rect x="389.2" y="566" class="st1" width="21.1" height="47"/>
				</g>
			</g>
			<g>
				<g>
					<rect x="311.7" y="391.3" class="st1" width="21.1" height="126.2"/>
					<line class="st1" x1="311.7" y1="437.4" x2="332.8" y2="437.3"/>
					<line class="st1" x1="311.7" y1="479.8" x2="332.8" y2="479.7"/>
					<path class="st1" d="M307.1,445.4c4.5,6,4.5,13.8,4.5,13.8s-7.3-2-11.8-8.1c-4.5-6-4.5-13.8-4.5-13.8S302.6,439.4,307.1,445.4z
						"/>
					<path class="st1" d="M337.4,483.2c-4.5,6.1-4.5,13.8-4.5,13.8s7.3-2.1,11.8-8.1c4.5-6.1,4.5-13.8,4.5-13.8
						S341.9,477.2,337.4,483.2z"/>
				</g>
				<g>
					<rect x="311.7" y="302.6" class="st1" width="21.1" height="88.5"/>
					<line class="st1" x1="311.7" y1="348.7" x2="332.8" y2="348.6"/>
					<path class="st1" d="M337.4,394.5c-4.5,6.1-4.5,13.8-4.5,13.8s7.3-2.1,11.8-8.1c4.5-6.1,4.5-13.8,4.5-13.8
						S341.9,388.5,337.4,394.5z"/>
				</g>
				<g>
					<rect x="311.7" y="214.1" class="st1" width="21.1" height="88.5"/>
					<line class="st1" x1="311.7" y1="260.2" x2="332.8" y2="260.2"/>
					<path class="st1" d="M307.1,243.5c4.5,6,4.5,13.8,4.5,13.8s-7.3-2-11.8-8.1c-4.5-6-4.5-13.8-4.5-13.8S302.5,237.5,307.1,243.5z
						"/>
					<path class="st1" d="M307.1,343.9c4.5,6,4.5,13.8,4.5,13.8s-7.3-2-11.8-8.1c-4.5-6-4.5-13.8-4.5-13.8S302.6,337.9,307.1,343.9z
						"/>
					<path class="st1" d="M337.4,260.4c-4.5,6.1-4.5,13.8-4.5,13.8s7.3-2.1,11.8-8.1c4.5-6.1,4.5-13.8,4.5-13.8
						S341.9,254.4,337.4,260.4z"/>
				</g>
				<g>
					<rect x="311.7" y="479.8" class="st1" width="21.1" height="88.5"/>
					<line class="st1" x1="311.7" y1="525.9" x2="332.8" y2="525.8"/>
					<path class="st1" d="M307.1,542c4.5,6,4.5,13.8,4.5,13.8s-7.3-2-11.8-8.1c-4.5-6-4.5-13.8-4.5-13.8S302.6,535.9,307.1,542z"/>
					<path class="st1" d="M337.4,593.6c-4.5,6.1-4.5,13.8-4.5,13.8s7.3-2.1,11.8-8.1c4.5-6.1,4.5-13.8,4.5-13.8
						S341.9,587.6,337.4,593.6z"/>
				</g>
				<g>
					<rect x="311.7" y="567.4" class="st1" width="21.1" height="45.6"/>
				</g>
			</g>
		</g>
	</g>
</g>
</svg>
