<?xml version="1.0" encoding="utf-8"?>
<!-- Generator: Adobe Illustrator 27.2.0, SVG Export Plug-In . SVG Version: 6.00 Build 0)  -->
<svg version="1.1" id="Layer_1" xmlns="http://www.w3.org/2000/svg" xmlns:xlink="http://www.w3.org/1999/xlink" x="0px" y="0px"
	 viewBox="0 0 1000 470" style="enable-background:new 0 0 1000 470;" xml:space="preserve">
<style type="text/css">
	.st0{fill:#0083D4;}
	.st1{fill:#A3D300;}
</style>
<g>
	<g>
		<g>
			<g>
				<path class="st0" d="M159.3,361.4v-36.9c0-1,0.3-1.8,1-2.4s1.5-1,2.4-1h7.4c6.1,0,11.2,2.1,15.4,6.4s6.4,9.4,6.4,15.5
					c0,6-2.1,11.2-6.4,15.5c-4.2,4.3-9.4,6.4-15.4,6.4h-7.4c-1,0-1.8-0.3-2.4-1C159.6,363.2,159.3,362.4,159.3,361.4z M166.3,328
					v29.9h3.9c4.1,0,7.6-1.5,10.5-4.4s4.4-6.4,4.4-10.5s-1.4-7.6-4.4-10.6c-2.9-2.9-6.4-4.4-10.5-4.4L166.3,328L166.3,328z"/>
				<path class="st0" d="M204.6,364.9c-1,0-1.8-0.3-2.4-1s-1-1.5-1-2.4v-36.9c0-1,0.3-1.8,1-2.4s1.5-1,2.4-1h20.4
					c0.9,0,1.7,0.3,2.4,1s1,1.5,1,2.4s-0.3,1.8-1,2.5s-1.5,1-2.4,1h-16.9v11.5h14.6c0.9,0,1.7,0.3,2.4,1s1,1.5,1,2.4s-0.3,1.8-1,2.4
					s-1.5,1-2.4,1h-14.6v11.5h16.9c0.9,0,1.7,0.3,2.4,1s1,1.5,1,2.4s-0.3,1.8-1,2.4s-1.5,1-2.4,1h-20.3L204.6,364.9L204.6,364.9z"/>
				<path class="st0" d="M169.2,419.3c-1,0-1.8-0.3-2.4-1s-1-1.5-1-2.4V379c0-1,0.3-1.8,1-2.4s1.5-1,2.4-1s1.8,0.3,2.5,1
					s1,1.5,1,2.4v33.4h16.9c0.9,0,1.7,0.3,2.4,1s1,1.5,1,2.4s-0.3,1.8-1,2.4s-1.5,1-2.4,1H169.2z"/>
				<path class="st0" d="M223.2,417.1l-3.1-8.1H205l-3.1,8.1c-0.6,1.5-1.6,2.2-3,2.2c-1.4,0-2.5-0.5-3.1-1.5s-0.8-2.1-0.4-3.2
					l13.8-36.8c0.3-0.7,0.7-1.2,1.3-1.6c0.6-0.4,1.3-0.6,2-0.6c1.6-0.1,2.7,0.6,3.3,2.2l13.8,36.8c0.4,1.1,0.2,2.1-0.4,3.2
					s-1.7,1.5-3.1,1.5C224.8,419.3,223.8,418.6,223.2,417.1z M207.5,402.1h10.1l-5.1-13.5L207.5,402.1z"/>
			</g>
		</g>
		<g>
			<path class="st0" d="M240.1,411.6v-90.1c0-2.3,0.8-4.3,2.4-6s3.6-2.4,6-2.4h18c14.8,0,27.3,5.2,37.7,15.6
				c10.4,10.4,15.6,23,15.6,37.8c0,14.8-5.2,27.4-15.6,37.8c-10.4,10.4-23,15.6-37.7,15.6h-18c-2.3,0-4.3-0.8-6-2.4
				C240.9,415.9,240.1,413.9,240.1,411.6z M257,330v73h9.5c10.1-0.1,18.7-3.7,25.7-10.8s10.6-15.6,10.6-25.7
				c0-10.1-3.5-18.7-10.6-25.8c-7.1-7.1-15.6-10.7-25.7-10.7H257z"/>
			<path class="st0" d="M415.4,375.8c0,12.1-4.3,22.5-12.9,31.1c-8.6,8.7-19,13-31.2,13s-22.6-4.3-31.2-12.9s-12.9-19-12.9-31.2
				v-54.4c0-2.3,0.8-4.3,2.4-6s3.6-2.4,6-2.4c2.3,0,4.4,0.8,6,2.4c1.7,1.6,2.5,3.6,2.5,6v54.4c0,7.4,2.6,13.8,7.9,19.2
				s11.7,8,19.2,8s14-2.6,19.2-7.9c5.3-5.3,7.9-11.7,7.9-19.2v-54.4c0-2.3,0.8-4.3,2.5-6s3.7-2.4,6-2.4s4.3,0.8,6,2.4
				c1.6,1.6,2.4,3.6,2.4,6L415.4,375.8L415.4,375.8z"/>
			<path class="st0" d="M433.7,420c-2.3,0-4.3-0.8-6-2.4s-2.4-3.6-2.4-6v-90.1c0-2.3,0.8-4.3,2.4-6s3.6-2.4,6-2.4
				c2.3,0,4.4,0.8,6,2.4c1.7,1.6,2.5,3.6,2.5,6V403h41.4c2.2,0,4.2,0.8,5.9,2.5s2.5,3.7,2.5,6s-0.8,4.3-2.5,6s-3.6,2.5-5.9,2.5
				L433.7,420L433.7,420z"/>
			<path class="st0" d="M574.1,313.1l2.1,0.6c0.3,0,0.6,0.1,0.9,0.5c0.3,0.3,0.5,0.5,0.6,0.5h0.2c0.3,0.1,0.6,0.4,0.9,0.8
				s0.5,0.7,0.7,0.8s0.3,0.3,0.5,0.7c0.2,0.4,0.3,0.6,0.4,0.8c0,0.1,0.2,0.3,0.4,0.5l0.5,1.7c0.1,0.3,0.2,0.6,0.2,0.9v1.7
				c-0.1,0.2-0.2,0.4-0.2,0.6l-0.3,0.9l-1.1,2.1v0.3L523.7,403h49.2c2.3,0,4.3,0.8,6,2.5c1.7,1.7,2.5,3.7,2.5,6s-0.8,4.3-2.5,6
				s-3.7,2.4-6,2.4H507c-0.6,0-1.2,0-1.8-0.1c-0.6,0-1.2-0.3-1.7-0.8c-0.5,0-1-0.2-1.4-0.6v-0.1c-0.3,0-0.7-0.4-1.1-1.1l-1.1-1.1
				l-0.3-0.8c-0.4-0.7-0.6-1.1-0.6-1.2l-0.5-2.1v-0.6c0-0.5,0-0.9,0.1-1.1v-0.8c0.3-0.3,0.5-0.8,0.5-1.5c0.3-0.2,0.5-0.4,0.5-0.5
				s0.2-0.4,0.4-0.8h0.1l56-76.7H507c-2.3,0-4.3-0.8-6-2.5s-2.4-3.7-2.4-6s0.8-4.3,2.4-6s3.6-2.4,6-2.4L574.1,313.1L574.1,313.1z"/>
			<path class="st0" d="M677.1,375.8c0,12.1-4.3,22.5-12.9,31.1c-8.6,8.7-19,13-31.2,13s-22.6-4.3-31.2-12.9s-12.9-19-12.9-31.2
				v-54.4c0-2.3,0.8-4.3,2.4-6s3.6-2.4,6-2.4c2.3,0,4.3,0.8,6,2.4c1.7,1.6,2.5,3.6,2.5,6v54.4c0,7.4,2.7,13.8,7.9,19.2
				s11.7,8,19.2,8c7.5,0,14-2.6,19.2-7.9s7.9-11.7,7.9-19.2v-54.4c0-2.3,0.8-4.3,2.5-6s3.7-2.4,6-2.4s4.3,0.8,6,2.4
				c1.6,1.6,2.4,3.6,2.4,6L677.1,375.8L677.1,375.8z"/>
			<path class="st0" d="M741.4,371c6.9,5.3,10.4,12.7,10.4,22.1c-0.1,3.4,0.1,6.4,0.6,9c2.7,0.8,4.4,2.6,5.3,5.3
				c0.9,2.7,0.5,5.2-1.2,7.6s-4.2,3.5-7.5,3.5h-0.2c-4.6,0-8.2-2.3-10.8-7c-2.1-4.5-3.2-10.6-3.2-18.3c-0.2-4.7-2.3-8.4-6.4-11
				c-2.7-1.7-5.5-3-8.5-3.7h-18v33.1c0,2.3-0.8,4.3-2.5,6s-3.7,2.4-6,2.4s-4.3-0.8-6-2.4s-2.4-3.6-2.4-6v-90.1c0-2.3,0.8-4.3,2.4-6
				s3.6-2.4,6-2.4h27.3c9.1,0,16.8,3.2,23.1,9.6c6.4,6.4,9.5,14.4,9.5,24C753.3,356.2,749.4,364.3,741.4,371z M720.7,361.5
				c4.4,0,8.1-1.5,11.2-4.6c3-3,4.6-6.7,4.6-11.1c0-4.3-1.5-8-4.6-11.1c-3-3.1-6.8-4.7-11.2-4.7h-18.8v31.5H720.7z"/>
			<path class="st0" d="M830.8,414.6l-7.5-19.9h-37.1l-7.5,19.9c-1.4,3.6-3.9,5.4-7.4,5.4c-3.5,0-6-1.2-7.6-3.7
				c-1.5-2.5-1.8-5.1-0.9-7.7l33.8-90c0.7-1.6,1.8-3,3.3-4c1.5-1,3.1-1.5,4.8-1.4c3.9-0.2,6.6,1.6,8.1,5.4l33.8,90
				c0.9,2.6,0.6,5.2-0.9,7.7c-1.5,2.5-4,3.7-7.6,3.7C834.5,420,832.1,418.2,830.8,414.6z M792.3,378H817l-12.4-32.8L792.3,378z"/>
		</g>
	</g>
	<g>
		<g>
			<path class="st1" d="M212.2,307h-0.9c-16.3,0-28.6-5.8-36.9-17.4c-3.3-5.3-5-10.9-5-16.7c0-3.1,0.4-6.1,1.2-9.2
				c3.1-8.4,8.1-15.7,14.9-21.8c12.1-11.4,25.8-20.1,41-26.3c23.2-9.4,49.4-14,78.5-14c18.9,0,44.9,2.6,78,7.8l2.3,0.4
				c3.4,0.7,5.9,2.7,7.5,5.9c1.1,2.2,1.6,4.5,1.6,6.8l-0.2,2.7c-1.5,5.9-5.9,8.9-13.1,8.9c-1.7,0-6.9-0.7-15.6-2.1
				c-5-0.6-7.9-1-8.9-1.2c-0.5,0-0.8-0.1-1.1-0.2h-0.7l0.9,0.2l-0.5-0.2c-17.2-2.4-34.4-3.7-51.7-3.9c-8,0-16.1,0.4-24.1,1.2
				c-2.1,0.4-3.5,0.5-4.3,0.5h-0.4l0.2-0.2h0.9l-0.5,0.2l-5.1,0.7c-10.9,1.9-21,4.6-30.4,8.2c-0.4,0-0.7,0.1-1,0.3
				c-0.3,0.2-0.6,0.3-0.9,0.4c-0.3,0.1-0.5,0.2-0.6,0.2l0.5-0.2l-1.9,0.9l-4.1,1.8c-8.8,4.4-15.5,8.5-20.2,12.2l0.7-0.7
				c0,0.1-0.1,0.3-0.4,0.4c-0.2,0.2-0.5,0.4-0.7,0.5c-0.2,0.2-0.6,0.4-1.1,0.8c-3.1,2.4-6.7,5.7-10.8,10.1c0,0.4-0.2,0.6-0.7,0.9
				l0.2-0.4l-2.5,3.9v0.2c-0.4,0.4-0.6,0.7-0.6,1c-0.1,0.3-0.1,0.5-0.1,0.6l-0.2,0.2v-0.5l0.2-0.2v0.4c-0.1,0.2-0.2,0.5-0.3,0.8
				s-0.1,0.6-0.3,0.8c-0.1,0.2-0.2,0.4-0.2,0.5l-0.2,0.2l-0.2-0.4l0.2-0.5l0.2,0.2v3c0.1,0,0.2-0.1,0.2-0.2V274l-0.4-0.7l0.4,0.7
				c0,0.1,0,0.4,0.1,0.7c0.1,0.4,0.2,0.6,0.4,0.7v0.2c-0.1,0-0.2-0.1-0.3-0.2s-0.1-0.4-0.3-0.9c0,0.1,0.1,0.2,0.2,0.4
				s0.2,0.3,0.3,0.4c0.1,0.2,0.1,0.3,0.2,0.4c0.1,0.1,0.3,0.4,0.6,0.7c0,0.2,0.1,0.4,0.2,0.4v0.2l-0.9-1.1c0.5,0.6,0.9,1.1,1.3,1.5
				c0.4,0.4,0.8,0.8,1.2,1.1c0.4,0.4,0.7,0.6,1,0.9l-1.1-0.9h0.2c0.4,0.4,0.6,0.5,0.7,0.5l2.1,1.4h0.5c0.1,0.1,0.2,0.2,0.3,0.3
				s0.3,0.1,0.6,0.3l-1.2-0.4c1.2,0.5,2.4,0.8,3.7,1.1c0.1,0.1,0.5,0.2,1.2,0.2c0.1,0.1,0.4,0.2,0.9,0.2l-2.7-0.2l7.6,0.2
				c5.3,0,10.5-0.3,15.4-0.9l7.3-0.5h-1.4c5.7-0.4,11.8-1.6,18.3-3.7c0.4,0,0.6-0.1,0.9-0.4h0.4c-0.7,0.4-1.1,0.5-1.2,0.5
				c-0.1,0-0.4,0.1-0.7,0.2c1.5-1,3.3-1.8,5.3-2.5c5.4-2.2,12.1-5.9,20.1-11l5.7-4.1l0.2-0.2c0.1,0,0.3-0.1,0.6-0.4
				c0.3-0.3,0.6-0.4,0.8-0.4l-0.9,0.7v-0.2c0.2,0,0.7-0.4,1.4-1.1h0.2l5-4.1c7.8-6.9,14.4-13.6,19.7-20.1c0.1-0.1,0.3-0.4,0.6-0.8
				c0.3-0.4,0.6-0.7,0.8-0.9s0.4-0.3,0.4-0.4v0.2l-0.5,0.5l3-3.9c8-10.8,14.8-22.3,20.2-34.6l1.1-2.1v-0.4h0.2l-0.2,0.4
				c-0.1,0.1-0.2,0.2-0.3,0.4s-0.1,0.2-0.1,0.4s-0.1,0.2-0.2,0.2h0.2v-0.4c0.2-0.4,0.4-0.7,0.5-1.1c0.1-0.4,0.3-0.8,0.5-1.1
				c1.2-2.8,2.2-5.7,3.2-8.5c4.6-12.6,8-25.1,10.1-37.6l0.2-0.9c0-0.8,0.1-1.3,0.2-1.4l-0.2,0.5l0.4-2.5c0.4-3.2,0.5-6.6,0.5-10.1
				c0-3.7-0.2-7.3-0.5-10.8v-0.7l0.2,0.9l-1.4-6.4c-0.7-3.1-1.4-5.3-2.1-6.6l-0.4-1.1c0.1,0.5,0.2,0.8,0.4,0.9l-0.4-0.7
				c-1.5-3.1-3.3-6-5.1-8.9l-0.5-0.7l-1.1-1.2c-1.8-2.1-3.7-4-5.9-5.7l-0.5-0.4l0.2,0.2c0.1,0.1,0.4,0.3,0.9,0.5
				c-1.3-0.8-2.6-1.6-4-2.4c-1.4-0.8-2.7-1.5-4-2.2l1.2,0.7l-0.2-0.2c-0.1,0-0.3-0.1-0.4-0.2c-0.2-0.1-0.4-0.2-0.6-0.3
				c-0.2-0.1-0.5-0.2-0.9-0.3c-0.4-0.1-0.9-0.3-1.7-0.5s-1.7-0.5-2.8-0.7c-0.6,0-1-0.1-1.2-0.2h0.5l-4.8-0.2l-4.1,0.2l-0.7,0.2
				l0.4-0.2h0.7c-3.8,0.6-7.3,1.5-10.5,2.7l-0.7,0.2l-0.7,0.4h-0.2c-1,0.5-1.5,0.8-1.8,0.9h-0.4c-3.3,1.5-6.5,3.3-9.4,5.2
				s-4.6,3.1-5,3.5l0.7-0.5h-0.2l-3.2,2.7c-7.2,5.7-14.9,13.6-23.1,23.6l-2.3,2.8c0.2-0.4,0.4-0.6,0.5-0.7h0.2h-0.2v0.2l-1.9,2.3
				l-9.1,12.2c-36.1,49.6-67.5,101.9-94.3,156.8c-2.1,4-5.7,6-10.8,6c-5.2,0-9.1-2.3-11.7-6.9c-0.9-1.7-1.4-3.4-1.4-5.3
				c0-1.1,0.2-2.2,0.5-3.4l10.1-28.8l7.6-21.3l29.8-84.9c6-17.4,10.1-29,12.2-34.8l4.8-13.5l1.2-3.9l13.9-39.1l23.3,9.6
				c-9.1,17.6-18.6,35.1-28.6,52.2c-11.1,19.3-23.8,37.7-38.1,55.2c-14.3,17.5-30.4,33-48.4,46.4c-18,13.4-38.1,23.5-60.4,30.3
				c-1.2,0.4-2.4,0.5-3.5,0.5c-2.2,0-4.6-0.7-6.9-2.1s-4.1-3.8-5.3-7.1c-0.4-1.2-0.5-2.3-0.5-3.4c0-2,0.8-4.2,2.3-6.7
				c1.5-2.4,3.9-4.2,7.1-5.2c4.4-1.3,8.7-2.7,13-4.3l3.2-1.2l-0.9,0.4l0.5-0.2c0.2,0,0.5-0.2,0.9-0.5c12.9-5.7,25.5-13,37.7-21.8
				l0.9-0.7v0.2l-0.9,0.5l2.8-2.1c9.2-7.7,16.3-14,21.1-18.8c19.9-19.9,39.1-46.2,57.5-79c8.4-14.9,16.6-29.9,24.5-45.1
				c2.2-4,5.9-6,11-6s8.9,2.3,11.5,6.9c0.8,1.7,1.2,3.4,1.2,5.2s-3.1,11.3-9.2,28.6l-50.3,142.4l-20.6,58.8
				c-9-3.5-16.8-6.8-23.3-9.6c18.1-36.9,37.3-71.4,57.7-103.4c23.8-36.9,44.2-65.1,61.3-84.4c17.8-20,37.2-32,58.4-36
				c3.2-0.6,6.4-0.9,9.6-0.9c8.2,0,16.5,1.9,24.9,5.7c7.3,3.7,13.6,8.6,18.8,14.7c11.2,13.5,17,29.2,17.2,47.2
				c0,9.2-0.8,18.3-2.5,27.2c-4.9,27.7-14.9,53.6-30,77.7c-15.2,24.1-35,43.7-59.7,58.9c-10.4,6.6-21.6,11.3-33.6,14
				C237.2,305.6,224.7,306.9,212.2,307z"/>
			<path class="st1" d="M400.1,278.8c-6.2,0-12.5-1.4-18.8-4.2s-11.3-7.4-14.9-14c-2.7-5.6-4-11.3-4-17.2c0-8.5,2.3-17.6,7-27.5
				c6-12.5,13.7-23.7,23.2-33.8c10.8-11.9,22.6-18.1,35.3-18.4c6.2,0,12.2,1.5,17.9,4.6s10,7.4,12.9,13.1c1.8,4.1,2.6,8.1,2.6,12
				c0,9.4-4.5,18.3-13.5,26.8c-11.8,10.7-25.6,16.1-41.3,16.1c-9.4,0-18.4-2.2-27.1-6.6c-3.3-1.8-4.9-4.6-4.9-8.6
				c0-1.8,0.4-3.5,1.3-5.2c1.9-3.2,4.7-4.7,8.6-4.7c1.7,0,3.8,0.6,6.3,1.8l1.5,0.7c-0.1,0-0.2,0-0.3,0s-0.2-0.1-0.4-0.1
				s-0.3-0.2-0.3-0.3l1.1,0.4c2,0.9,4.2,1.6,6.8,1.9c0.6,0.3,1.3,0.4,2.2,0.4l-1-0.1c0.5,0.2,2.3,0.3,5.6,0.3c3.2,0,5.3-0.1,6.4-0.3
				c-0.5,0.2-0.8,0.3-1,0.3h-0.1l1-0.3c0.2,0,0.3-0.1,0.4-0.1c4.5-0.7,7.9-1.7,10.3-2.9l-1.1,0.4c1.6-0.6,3.4-1.5,5.6-2.8
				c2.1-1.3,3.4-2.1,3.6-2.4l0.7-0.6l-0.8,0.7l0.6-0.4l6-6l0.4-0.6l-0.6,0.8v-0.3c0.4-0.6,0.6-0.9,0.8-1.2c0.2-0.2,0.4-0.5,0.6-0.9
				c0.5-0.6,0.9-1.3,1.2-1.9c0.3-0.6,0.5-0.9,0.5-1s0-0.1,0.1-0.2l-0.3,0.6l0.8-2.5l0.1-0.8v-1.8l0.1-0.1l0.1,0.1c0,0.1,0,0.2,0,0.3
				s0,0.2,0.1,0.3c0,0.2,0,0.3-0.1,0.3c-0.1-0.1-0.2-0.2-0.2-0.4s-0.1-0.4-0.1-0.6c0-0.2-0.1-0.4-0.2-0.6s-0.1-0.4-0.1-0.6
				s0-0.3,0.1-0.3l0.4,1l-0.4-0.4c-0.4-0.7-0.6-1.1-0.6-1.2c0-0.1-0.1-0.2-0.2-0.4s-0.3-0.5-0.6-0.8l0.7,0.7l-2.9-2.8l1,0.8
				l-4.3-2.6v-0.1l1,0.7l-1.1-0.6c-2-0.6-3.3-0.9-3.7-0.9s-0.6-0.1-0.6-0.2l0.1-0.1l1,0.4c-0.4-0.2-0.8-0.3-1.4-0.3
				s-1.1,0.1-1.5,0.1h-1.3c-0.6,0-0.8,0.1-0.8,0.1c0-0.2,0.3-0.3,1-0.3c-0.2,0.2-0.8,0.4-1.8,0.6s-1.9,0.4-2.6,0.7
				c-0.7,0.3-1.3,0.5-1.9,0.7l0.8-0.4l-0.8,0.4c-2.7,1.5-4.4,2.5-5.2,2.9l-1,0.7l-0.4,0.4c0-0.1,0.1-0.2,0.3-0.3s0.3-0.2,0.4-0.3
				l-5.3,4.7c-2.4,2.3-5.2,5.4-8.2,9.2l-0.7,0.8h0.1c0-0.2,0.1-0.4,0.4-0.7l-1.4,1.9c-4,5.2-8,11.6-12,19.1l-0.4,1.3
				c-0.4,0.6-0.6,1-0.6,1.3l0.1-0.6c-1.8,4.3-3,8.6-3.8,12.8l-0.1,0.8l0.1-0.7c-0.2,1.6-0.3,3.2-0.3,4.7v1.8c0,1,0.3,2.5,1,4.5
				c0-0.3,0-0.5-0.1-0.7l0.6,1.3c0.3,0.8,0.8,1.5,1.5,2.2l-0.7-0.7c0.7,0.8,1.5,1.6,2.4,2.2l0.6,0.7c0-0.1,0-0.2-0.1-0.2
				c0-0.1-0.3-0.2-0.6-0.5l2.5,1.7c0.4,0.1,0.7,0.2,1,0.4s0.5,0.3,0.6,0.4c0.1,0,0.1,0.1,0.1,0.2L391,257c-0.4-0.1-0.6-0.2-0.6-0.3
				c2.6,0.8,4,1.3,4.1,1.3c0.1,0,0.4,0,0.8,0.1c0.4,0.1,0.6,0.2,0.8,0.2c0.2,0,0.3,0.1,0.4,0.1H396c1.7,0.2,3.4,0.3,5.2,0.3l5-0.4
				h-0.3l2.8-0.4c6-1.4,11.6-3,16.6-4.7l4.3-1.7l1.7-0.7c-0.1,0.1-0.2,0.1-0.4,0.1s-0.3,0.1-0.4,0.3c0-0.1,0.3-0.2,0.8-0.4
				c8-3.5,16.4-9.4,25.2-17.6c8.8-8.2,15.3-14.4,19.4-18.5c2-1.9,4.4-2.9,7.1-2.9c2.6,0.1,4.9,1.1,6.9,2.9c2,1.9,3,4.1,3,6.7
				c0,0.2,0,1-0.1,2.4c0,1.4-1,3.1-2.9,5.2c-19.2,22.3-40.3,37.3-63.4,45.1C417.1,277.2,408.2,278.8,400.1,278.8z"/>
			<path class="st1" d="M506.2,279.1c-4.3,0-8.6-0.6-13-2c-8.8-2.9-15.4-8.5-19.7-16.7c-2.9-6.7-4.3-13.6-4.3-20.8
				c0-8.7,1.8-19.6,5.3-32.5c7.1-29.8,16.9-57.7,29.4-83.7c8.6-18.4,18.5-32.6,29.7-42.6c8.5-7.4,17.2-11.2,26.1-11.2l2.9,0.1
				c12.3,1.4,20.4,7.5,24.3,18.4c1,3.2,1.5,6.3,1.5,9.5c0,9.7-4.7,23.6-14,41.7c-16.9,33.2-43,61.7-78.1,85.5
				c-1.6,0.9-3.2,1.4-4.9,1.4c-3.7,0-6.7-1.7-8.9-5c-0.9-1.6-1.4-3.2-1.4-4.9c0-3.6,1.7-6.6,5.2-9s6.9-4.9,10.3-7.5
				c0.1,0,0.2-0.1,0.4-0.2s0.3-0.2,0.4-0.3c0.1-0.1,0.4-0.3,1-0.8l-0.4,0.3c0.3-0.3,1.1-0.9,2.4-1.8c6.2-5.1,11.1-9.3,14.5-12.6
				c7.3-6.9,14.6-14.7,21.9-23.4l2.1-2.8v0.1l-0.4,0.4c0-0.1,0.1-0.2,0.3-0.3l0.8-1.3c8.9-11.8,16.6-25.1,22.9-39.8
				c0.1-0.4,0.2-0.7,0.4-1.1c0.2-0.3,0.4-0.7,0.6-1.1l0.1-0.6v0.3l-0.3,0.3l0.3-0.6c2-4.8,3.5-9.3,4.3-13.5c0.2-0.6,0.3-1.1,0.3-1.7
				v1h-0.1l0.1-3.6c0-1.2,0-1.8-0.1-1.8l0.1,0.4v0.7h0.1c0-0.6-0.1-0.9-0.4-1.1c0-0.3,0-0.5-0.1-0.6s-0.1-0.3-0.2-0.5
				c-0.1-0.2-0.1-0.4-0.1-0.6l0.4,0.8l-0.4-0.7c-0.4-0.4-0.6-0.7-0.6-1c0.1,0,0.2,0.1,0.4,0.4l-2.1-2.1c0,0.2,0.2,0.4,0.6,0.6
				c-0.8-0.6-1.2-0.9-1.4-1c-0.2-0.1-0.3-0.2-0.3-0.3h0.3l0.1,0.1l-3.9-1h0.1c0.2,0.1,0.5,0.1,1,0.1c-1.7,0-3.1,0.1-4.3,0.1l0.7-0.1
				c-0.2,0.2-0.6,0.3-1.1,0.3c-0.5,0.2-0.8,0.3-0.9,0.3s-0.3,0.1-0.5,0.1s-0.4,0.1-0.6,0.1l-1,0.4l0.6-0.3l-1.1,0.6
				c-0.9,0.5-1.8,1-2.7,1.5c-0.5,0.4-1,0.7-1.5,1l-0.4,0.2l0.6-0.4c-0.3,0.3-0.5,0.5-0.7,0.6s-0.3,0.3-0.3,0.3
				c-4,3.3-7.5,6.8-10.5,10.7l-0.3,0.4h-0.1l-0.4,0.6l-0.3,0.4c-3.9,5-7.7,11.1-11.4,18.3c-4.4,8.5-8.4,17.2-12.1,26.1l-0.4,1.1
				l0.3-0.8v0.3l-1.7,3.8c-8.6,21.9-15.7,46.1-21.2,72.4c-0.1,0.8-0.2,1.6-0.4,2.4v0.8l-0.1,0.4l0.1-1.1c0,0.6,0,0.8-0.1,0.8
				c-0.3,2.9-0.4,5.8-0.4,8.6c0,1.9,0.1,3.7,0.3,5.4v0.3l-0.1-0.3v-0.1c0.1,0,0.1,0.2,0.1,0.7c0.6,3.1,1.2,4.8,1.5,5.2
				c0,0.2,0.1,0.4,0.3,0.6c-0.3,0-0.4-0.3-0.4-0.8h-0.1l0.1,0.1c0,0.1,0,0.2,0.1,0.4c0,0.1,0.3,0.4,0.6,0.9s0.6,1,0.8,1.5l0.1,0.3
				v-0.1c-0.1,0-0.2-0.1-0.2-0.1s-0.1-0.2-0.1-0.4c0-0.1-0.2-0.2-0.4-0.2l2.9,2.9c-0.1,0-0.4-0.2-0.8-0.7l1.1,0.8l3.1,1.7
				c-0.3,0-0.6-0.1-1-0.4h-0.1c0.1,0.1,0.3,0.2,0.7,0.3l1.3,0.4l2.8,0.7c0.5,0,0.8,0,1,0.1h0.4v0.1c-0.1,0-0.2,0-0.4-0.1
				c-0.2,0-0.3-0.1-0.4-0.2h-0.4c0.4,0.3,0.9,0.4,1.7,0.4c1.7,0,2.7-0.1,3.1-0.3c1.5,0,2.4,0,2.6-0.1h0.4l-0.1,0.1h-0.4l0.3-0.1h0.4
				c3.2-0.5,6.1-1.3,8.9-2.5c0.5-0.2,0.8-0.3,1-0.3l-1,0.4l0.3-0.1c0.2-0.2,0.4-0.3,0.6-0.4c0.2-0.1,0.4-0.1,0.6-0.2
				c4.4-1.9,12.1-7,23.2-15.5c0.3-0.4,0.7-0.6,1.1-0.8c-0.3,0.3-0.5,0.4-0.7,0.4v0.1c0.5-0.4,0.7-0.6,0.8-0.6
				c0.1-0.1,0.2-0.2,0.3-0.4l1.7-1.3c11.9-9.8,19.8-17.4,23.6-22.7c0.2-0.1,0.3-0.2,0.4-0.4c0.1-0.2,0.2-0.3,0.3-0.4
				s0.1-0.1,0.1-0.2l-0.3,0.4l0.4-0.6c2.4-3.2,5.2-4.9,8.5-4.9c1.6,0,3.3,0.4,5.2,1.3c3.4,2.1,5.2,5.1,5.2,9.1
				c0,1.7-0.5,3.3-1.5,4.7c-2.9,3.8-6,7.5-9.2,11c-12.2,12.6-25.7,23.5-40.5,32.9c-6.7,4.5-14,7.7-21.9,9.8
				C513.4,278.6,509.8,279.1,506.2,279.1z M603.1,142.1l-123.1-1.7c-2.9-0.1-5.2-1.1-7-3c-1.8-1.9-2.8-4.3-3-7.1c0-2.8,1-5.2,3-7.1
				c2-1.9,4.4-2.9,7-2.9l123.1,1.7c2.9,0.1,5.2,1.1,7,2.9c1.8,1.9,2.8,4.2,3,7.1c0,2.8-1,5.1-2.9,7.1
				C608.3,141,605.9,142,603.1,142.1z"/>
			<path class="st1" d="M555.1,281c-1.3,0-2.6-0.3-3.8-0.8c-4.1-1.8-6.1-4.8-6.1-9.2c0-0.8,0.1-1.7,0.3-2.6l25.2-107.7
				c0.7-2.7,2.3-4.7,4.7-6c1.7-0.8,3.4-1.3,5.2-1.3c3.9,0,6.7,1.7,8.5,5c0.8,1.7,1.3,3.4,1.3,5.2c0,1.2-8.5,37.9-25.5,110.1
				l-18.4-7.7c7.2-16.3,15.1-32.1,23.9-47.4c8-14.1,17.5-27.1,28.6-38.8c10.4-11.2,20-18,28.7-20.5c1.9-0.6,3.8-0.8,5.7-0.8
				c3.7,0,7.5,1.1,11.3,3.2c4.7,3,7.7,7.1,9.1,12.4c0.5,2.2,0.8,4.5,1,6.7l0.3,2.4l-0.1-0.6l0.1,1.3c0.7,2.8,1.2,4.4,1.4,4.8
				c0.2,0.4,0.3,0.8,0.3,1.1l-0.1-0.6l2,3.9l2.1,3.1l-0.6-0.7c2.5,2.5,4,3.9,4.5,4.3l0.3,0.4l-0.1-0.1c0-0.1-0.1-0.2-0.2-0.2
				s-0.2-0.1-0.3-0.1c0-0.1-0.1-0.1-0.2-0.1v-0.1c0.1,0,0.1,0,0.1,0.1s0.1,0.1,0.3,0.2c0.2,0.1,0.4,0.3,0.6,0.5
				c0.2,0.2,2.1,1.4,5.7,3.4c2.2,1.2,3.4,1.8,3.5,1.8h0.3l-0.3-0.3c-0.3-0.1-0.6-0.1-1-0.1c0.3,0,0.5,0.1,0.8,0.2
				c0.2,0.1,0.4,0.2,0.6,0.2c1.2,0.5,2.4,0.8,3.6,1l1.7,0.4h0.4c-0.5,0-0.8-0.1-0.8-0.1h-0.1h0.4c3.7,0.4,7.4,0.6,11,0.6
				c2.9,0.1,5.3,1.1,7.2,3.1c1.9,1.9,2.9,4.4,2.9,7.4c0,2.6-1,4.8-2.9,6.7s-4.3,2.8-7.1,2.9h-2.8c-6.3,0-12.6-0.8-18.7-2.5
				c-16-5.6-26.6-15.5-31.8-29.7c-1.9-5.3-2.8-10.3-2.8-15.1v1l-0.3-1.7v-0.8l0.1,0.8l-0.4-0.7l0.1,0.1l1,0.7l-1.3-0.8l1,0.4
				l-1.4-0.4h1.1h-0.1c-0.1,0.1-0.3,0.1-0.7,0.1c-0.1,0-0.2,0-0.3-0.1c-0.1-0.1-0.4-0.1-0.7-0.1s-0.5-0.1-0.5-0.1h1.3l-3.3,0.8
				c0-0.2,0.2-0.3,0.7-0.3l-0.3,0.1c-0.1,0.2-0.7,0.6-1.7,1.1c-1,0.6-2.1,1.3-3.3,2.2l0.6-0.4l-0.1,0.1c-0.2,0.2-0.5,0.4-0.8,0.6
				l-0.4,0.4c-7.5,6.1-14.3,12.9-20.2,20.5l-1.3,1.4c-0.2,0.6-0.4,0.9-0.7,1.1l-0.4,0.3c0.1,0,0.2-0.1,0.2-0.1
				c0-0.1,0.1-0.2,0.1-0.2s0.1-0.2,0.2-0.4l-6.8,9.6c-10,15.2-20.7,35.4-32,60.6C562.2,279.4,559.2,281,555.1,281z"/>
			<path class="st1" d="M703.5,278.8l-2.5-0.1c-11.4-1.9-19.6-8.1-24.6-18.7c-2.3-5.8-3.5-11.6-3.5-17.4c0-5.6,1.1-11.2,3.2-16.9
				c9.9-26.5,22.8-45,38.9-55.4c7.3-4.8,15.3-7.3,24-7.3c2.9,0,5.9,0.3,8.9,0.8c11,2.6,19.1,8.8,24.4,18.7
				c2.3,5.1,3.5,10.4,3.5,15.9l-0.3,10.9l0.1,3.9c0-0.4,0-0.6,0.1-0.6c0,0.9,0.1,1.7,0.4,2.4c0.2,1.1,0.3,2.1,0.3,2.9
				c0,4.8-2.4,8.1-7.3,9.8c-0.9,0.3-1.9,0.4-2.8,0.4c-7.3,0-11-6.7-11-20.1l0.3-5.7c0-3.4,0-5.5-0.1-6.4l0.1-0.6v0.7
				c-0.4-2.1-0.6-3.2-0.7-3.6c-0.1-0.3-0.2-0.6-0.3-0.9c0.2,0.3,0.3,0.6,0.3,1l-1.8-3.2h0.3l0.3,0.7l-0.7-0.7
				c-1.2-1.5-2.2-2.5-3.1-3.1c0,0.1,0,0.2,0.1,0.2s0.2,0.1,0.2,0.1c0,0.1,0.1,0.1,0.2,0.1s0.1,0.1,0.1,0.1v-0.1
				c-0.2,0-0.8-0.3-1.7-0.8c-1.7-1-2.8-1.6-3.2-1.8c0.2,0.2,0.4,0.3,0.6,0.3h-0.1c-2.2-0.8-3.9-1.3-4.9-1.3l1.1,0.1l-0.3-0.1
				l-3.8-0.1c-0.8,0-1.6,0.1-2.7,0.3c-3,0.6-5.3,1.3-6.8,2.1c0-0.1,0-0.1,0.1-0.1s0.2,0,0.2-0.1c0-0.1,0.2-0.1,0.3-0.2
				c-0.4,0.4-1.1,0.8-2.2,1.3c-1.7,0.9-3.3,1.9-4.9,2.9c-0.2,0.2-0.3,0.3-0.5,0.4s-0.2,0.1-0.3,0.1c0,0.1-0.2,0.2-0.5,0.5v-0.1
				l0.6-0.3c-0.6,0.3-1.3,0.8-2.1,1.7c-2.2,1.9-4.3,4.1-6.1,6.6c-0.1,0-0.2,0.1-0.2,0.1c0,0.1-0.1,0.2-0.1,0.2s-0.2,0.3-0.5,0.6
				c0.1-0.2,0.2-0.3,0.3-0.3c-0.1,0-0.2,0.1-0.2,0.1c0,0.1-0.1,0.2-0.2,0.4s-0.2,0.2-0.2,0.3c0,0.1-0.4,0.5-1.2,1.5
				c-4.9,7.4-9.5,15.8-13.7,25.1l-0.7,1.3v0.3l-0.4,0.7c-1.9,5.5-3,9.6-3.5,12.4l-0.1,5.2c0,0.6,0.3,1.7,1,3.5l0.4,1.7l-0.3-0.4
				c1.3,2.7,2.1,4.1,2.3,4.3s0.4,0.3,0.5,0.5c-0.4-0.5-0.6-0.8-0.6-1c0,0.1,0,0.2,0.1,0.2s0.1,0.1,0.1,0.2c0,0.1,0.3,0.4,0.9,1
				c1.1,1.1,1.7,1.7,1.9,1.7s0.2,0,0.2,0.1l-0.8-0.6c0.1,0.1,0.2,0.2,0.4,0.3s0.3,0.2,0.4,0.3c0.1,0.1,0.3,0.2,0.5,0.3
				s0.5,0.2,0.7,0.4c0.2,0.1,0.3,0.3,0.3,0.4c-0.1-0.1-0.2-0.2-0.4-0.2s-0.3-0.1-0.3-0.1c0,0-0.1-0.1-0.2-0.2
				c0.4,0.4,0.9,0.6,1.7,0.6l1.1,0.4l-0.8-0.1c1.3,0,2,0,2.2-0.1h1l-0.8,0.1l2.9-0.8l0.1-0.1h0.3l-0.6,0.3c1.9-0.9,3.7-2,5.4-3.2
				c0.1,0,0.2-0.1,0.3-0.2s0.3-0.3,0.6-0.4c0.7-0.5,1.1-0.8,1.1-1c0,0.1-0.1,0.2-0.3,0.4c20.6-17.1,39.1-36.3,55.7-57.6
				c1.7-1.9,3.8-2.9,6.4-2.9c2.6,0,4.9,0.7,6.8,2.1c2.5,2.3,3.8,4.9,3.8,7.7c0,1.7-0.4,3.4-1.3,5.3l-0.6,1.5
				c-0.8,1.9-1.6,3.9-2.2,5.9c-3.9,10.7-6.5,19.8-7.7,27.4h-0.1l0.1-0.8l-0.1,4.5c0,0.6,0,1.1,0.1,1.3c0,0.2,0.1,0.4,0.2,0.4V248
				c-0.1-0.1-0.2-0.3-0.3-0.7c0,0.1,0,0.3,0.1,0.5c0,0.2,0.1,0.5,0.2,0.7s0.1,0.5,0.1,0.7s0,0.4,0.1,0.4l-0.3-0.6
				c0.3,0.4,0.4,0.7,0.4,0.9c0,0.2,0.1,0.4,0.4,0.5c0,0.4,0.1,0.6,0.3,0.6h0.1c0,0.1,0.1,0.3,0.3,0.5c0.2,0.2,0.4,0.4,0.5,0.4
				c1.4,0.6,2.2,1.1,2.5,1.4l-0.4-0.1h0.3c0.4,0.4,2.6,0.9,6.6,1.7l-0.8-0.1l0.3,0.1c5.1,0,8.1-0.1,8.9-0.1l-1,0.1l1-0.3
				c3.2-0.6,6.3-1.4,9.3-2.5c0.1-0.1,0.3-0.2,0.5-0.2s0.5-0.1,0.8-0.2l-0.7,0.1c0.9-0.3,2.5-1,4.7-2.2c2.9-1.6,5.6-3.4,8.2-5.3h-0.1
				l-0.4,0.4c8.6-6.9,17.5-16.6,26.8-29.2c1.7-1.9,3.7-2.8,6.1-2.8c0.3,0,1.2,0.1,2.8,0.1c1.6,0.1,3.3,1,5.3,2.6
				c1.9,1.9,2.8,4.1,2.8,6.4c0,0.3,0,1.1-0.1,2.5c-0.1,1.4-1,3.2-2.7,5.3c-7.4,10.2-15.9,19.5-25.2,27.9c-9.2,7.9-19.7,13.3-31.4,16
				c-4.1,0.9-8.3,1.4-12.6,1.4c-1.9,0-4.8-0.2-8.9-0.6s-8.6-2.4-13.6-5.8c-7.5-5.2-11.3-13-11.3-23.3c0-3.8,0.5-7.6,1.4-11.4
				c2.8-12.2,6.7-24.1,11.9-35.7l15.8,12.3c-15.5,19.9-32.9,38.1-52,54.6C721.9,274.2,712.3,278.8,703.5,278.8z M714,137.9
				c-3.2,0-5.7-1.4-7.5-4.2c-0.8-1.3-1.1-2.6-1.1-3.9c0-3.4,1.4-5.9,4.2-7.5c12.1-7.2,23.8-15,35.2-23.4c1.2-0.8,2.5-1.3,3.9-1.3
				c3.2,0,5.7,1.4,7.5,4.3c0.7,1.4,1.1,2.8,1.1,4.1c0,4.9-13.1,15.2-39.3,30.8C716.7,137.5,715.4,137.9,714,137.9z"/>
			<path class="st1" d="M856.3,336.2c-5.5,0-11-1.1-16.5-3.4c-9.1-4.3-14.8-11.2-17.1-20.9c-0.3-2.2-0.5-4.3-0.5-6.4
				c0-6.9,1.5-13.7,4.5-20.2c6.8-15.5,17.1-28,30.9-37.7c24.1-16.7,55.6-27.2,94.6-31.3c3.3,0,5.8,1.1,7.7,3.3
				c1.8,2.2,2.8,4.7,3,7.4c0,3.1-1.1,5.5-3.2,7.4c-2.1,1.8-4.6,2.9-7.5,3.3l-4.6,0.4h0.6l-2.8,0.4c-16.5,2.1-33.7,6.5-51.4,13.4
				l-2.1,0.9l-1.6,0.7c-4.7,2-9.7,4.6-15,7.9c-3.6,2.3-5.8,3.8-6.8,4.6c-0.2,0.1-0.3,0.2-0.5,0.2c-0.1,0-0.4,0.3-0.9,0.7l0.7-0.5
				c-4.2,2.8-8.2,6.6-12,11.4l-1.9,2.4c0-0.1,0-0.2,0.1-0.3c0-0.1,0.1-0.2,0.2-0.2c0,0,0.2-0.2,0.5-0.5c-0.4,0.3-0.6,0.6-0.6,0.9
				c-3,4.1-5.2,7.8-6.7,11.3c-0.1,0.3-0.2,0.5-0.3,0.6s-0.2,0.4-0.3,0.7v-0.1l0.2-0.6h0.2l-0.5,0.9c-1.2,3.2-2,5.7-2.4,7.7l-0.7,3
				l-0.2,0.3l0.2-1l-0.2,1.8v1.2c0,0.3,0,0.5,0.2,0.7v0.5c0.2,0.5,0.3,1,0.3,1.5c0.1,0,0.2,0,0.2,0.1s0,0.3,0.1,0.5
				c0,0.2,0.1,0.4,0.2,0.4v-0.1c-0.3-0.3-0.5-0.5-0.5-0.7c0-0.1-0.1-0.3-0.1-0.4l0.2,0.1c0,0.1,0.1,0.2,0.2,0.5
				c0.2,0.2,0.3,0.4,0.4,0.7s0.2,0.5,0.4,0.9s0.3,0.5,0.5,0.5c-0.4,0-0.6-0.1-0.6-0.5l-0.2-0.3h0.2c0,0.1,0.6,0.8,1.9,2.1l0.6,0.5
				l-0.2-0.1c-0.1,0-0.2,0-0.3-0.1c-0.1,0-0.2-0.1-0.3-0.1s-0.2-0.1-0.2-0.2l1.8,0.9c0.6,0.6,1.2,0.9,1.8,0.9l-1.2-0.3
				c0.3,0,0.5,0,0.7,0.1s1.1,0.4,2.7,0.7c0.4,0.2,0.9,0.3,1.5,0.3l-1-0.1c0.3,0.1,0.9,0.2,1.9,0.2c0.9,0,1.9,0.1,2.9,0.1
				c0.2-0.1,0.8-0.1,1.9-0.1c0,0.1-0.2,0.1-0.5,0.1h-0.6l2.4-0.5l4.3-1.3l0.6-0.1c0-0.2,0.2-0.3,0.5-0.3l0.3-0.1h0.2l1.2-0.6
				c1.9-1.1,3.7-2.3,5.5-3.6l0.5-0.1c-0.1,0.1-0.2,0.2-0.4,0.3c-0.2,0.1-0.2,0.2-0.3,0.2s-0.1,0.1-0.2,0.1c3.4-2.8,6.1-5.5,8.2-8
				l0.6-0.6l-0.3,0.5v-0.1c0-0.1,0.1-0.2,0.3-0.5c2.1-3,4-6.1,5.6-9.5l0.5-0.9v-0.1l0.2-0.5c0.1-0.4,0.2-0.7,0.5-1
				c0.6-2.2,1.1-4.2,1.5-6.1l0.2-0.1c0-0.5,0-0.8,0.2-0.9l-0.2,0.6c0.2-2,0.3-3.9,0.3-5.8c0-1.2,0-2.3-0.2-3.4v-1.2l-0.2-1l0.2,0.6
				v0.7l0.2-0.6c0-0.7-0.3-2.1-1-4.2c-0.2-0.8-1-3.3-2.4-7.4c0.2,0.6,0.3,0.9,0.3,1s0,0.1,0.2,0.1l-0.6-1c-1-2.2-2.2-4.3-3.6-6.4
				c-0.8-1-1.2-1.6-1.2-1.9h-0.2l0.6,0.7l-1-1.2c-2-2.4-4.2-4.5-6.5-6.4l0.6,0.6v-0.1l-1.2-0.7c-1.6-1.2-4.4-2.9-8.3-5.1
				c-5.9-3-11.3-6.7-16-11.3c-6.4-6.9-9.7-14.9-9.7-23.8c0-1.6,0.1-3.2,0.3-4.8c1.8-10.3,6-19.5,12.8-27.5c3.1-4,6.7-7.6,11-10.8
				c6.7-5.1,13.9-7.7,21.5-7.7c9.4,0,16.9,3.8,22.6,11.3c3.2,4.7,4.8,9.7,4.9,15.1c0,5.4-1.1,10.7-3.3,15.7
				c-4.6,8.9-10.9,16.3-19,22.3c-8.4,6.6-17.7,11.7-27.8,15.3c-1.1,0.3-2.1,0.4-3.1,0.4c-1.8,0-3.7-0.6-5.6-1.9
				c-2-1.3-3.5-3.3-4.5-5.9c-0.3-1-0.5-2-0.5-3c0-1.8,0.6-3.7,1.9-5.7s3.3-3.5,5.9-4.5l3.9-1.3l-0.6,0.1c0.1-0.1,0.2-0.2,0.5-0.2
				s0.4-0.1,0.6-0.2l1-0.4c3.9-1.7,7.9-4,12-7c0.4-0.2,0.8-0.5,1.3-0.9l0.6-0.4c-0.1,0-0.2,0.1-0.5,0.3c4.7-3.7,8.1-6.9,10.4-9.8
				c0.5-0.5,0.8-0.8,0.9-1l-0.5,0.4v0.1l0.6-0.7c0.8-1.1,1.5-2.2,2.1-3.3l0.7-1.2c0-0.3,0.1-0.6,0.2-0.8c0.2-0.2,0.3-0.4,0.4-0.5
				l-0.3,0.6l0.3-0.7c0-0.2,0.2-1,0.7-2.5v-2.8c0-0.2,0-0.5-0.1-1c0-0.4-0.3-1.1-0.7-1.9v-0.4c0,0.3,0.1,0.6,0.3,0.7v0.3l-0.9-1.6
				c-0.1-0.1-0.2-0.2-0.3-0.2s-0.2-0.1-0.2-0.2v0.1c0.1,0,0.2,0.1,0.4,0.3s0.3,0.3,0.4,0.3v-0.1c-0.2,0-0.5-0.1-0.7-0.4l-0.5-0.4
				l0.5,0.3c-0.7-0.3-1.3-0.6-1.8-1h-0.2h0.2c0,0.1,0,0.2,0.2,0.2c0.1,0.1,0.2,0.1,0.4,0.1c0.2,0.1,0.2,0.1,0.2,0.2
				c0-0.1-0.2-0.1-0.5-0.1s-0.7-0.1-1.3-0.4h-2.8l0.9-0.1l-0.3,0.1c-1.7,0.3-2.8,0.6-3.4,0.9l-0.6,0.1l0.7-0.1l-0.3,0.1
				c-0.6,0.3-1,0.5-1.3,0.6c-0.3,0.1-1.3,0.7-3.1,1.9l-0.9,0.6v-0.1c0.1-0.1,0.2-0.2,0.2-0.2s0.1-0.1,0.2-0.2h0.2
				c0,0.1-0.1,0.2-0.3,0.3l-3.4,3.3l-4.6,5.1H868h0.2l0.5-0.6v-0.1c0,0.3-0.3,0.7-0.9,1.3c-0.1,0.3-0.2,0.6-0.5,0.7
				c-1.2,1.9-2.3,3.7-3.3,5.5l-0.2,0.4c-0.3,0.6-0.5,1-0.6,1.2v0.3l0.2-0.6c-0.8,1.9-1.4,3.9-1.8,5.9c-0.2,1.1-0.3,1.7-0.5,1.8
				l0.2-0.3v2.8c0,0.5,0,0.8,0.2,0.9v0.4c-0.1-0.1-0.2-0.4-0.2-0.9l-0.2-0.1h0.2c0,0.5,0,0.7,0.2,0.7l0.3,1.5l0.6,1.6
				c-0.1,0-0.2-0.1-0.2-0.1c0-0.1-0.1-0.2-0.1-0.3s0-0.2-0.2-0.3l1.6,2.7c0,0.1,0.2,0.3,0.5,0.6l0.3,0.4v-0.1
				c-0.1,0-0.3-0.2-0.7-0.6h0.2c0.1,0.1,0.2,0.2,0.2,0.2s0.2,0.1,0.3,0.3c0.2,0.1,0.2,0.3,0.2,0.4c1,1,2.1,2,3.4,3.1l-0.6-0.6h0.2
				c0.1,0.1,0.2,0.2,0.4,0.4s0.3,0.3,0.5,0.4c0.7,0.6,3.5,2.3,8.3,5.1c19.7,10.9,31.1,26.7,34.2,47.5c0.3,2.7,0.5,5.3,0.5,7.9
				c0,16-5.9,30.4-17.8,42.9c-7,7.4-15.3,12.6-25,15.5C864.4,335.6,860.3,336.2,856.3,336.2z"/>
		</g>
	</g>
</g>
</svg>
