<?xml version="1.0" encoding="UTF-8"?>
<svg id="Layer_2" data-name="Layer 2" xmlns="http://www.w3.org/2000/svg" xmlns:xlink="http://www.w3.org/1999/xlink" viewBox="0 0 507.01 308.27">
  <defs>
    <style>
      .cls-1, .cls-2, .cls-3, .cls-4, .cls-5 {
        stroke-linecap: round;
        stroke-linejoin: round;
      }

      .cls-1, .cls-3 {
        stroke: #a3d300;
        stroke-width: 2.47px;
      }

      .cls-1, .cls-4 {
        fill: #fff;
      }

      .cls-6 {
        clip-path: url(#clippath);
      }

      .cls-2 {
        stroke: #00ce7c;
        stroke-width: 2.86px;
      }

      .cls-2, .cls-3, .cls-5 {
        fill: none;
      }

      .cls-7 {
        clip-path: url(#clippath-1);
      }

      .cls-8 {
        clip-path: url(#clippath-4);
      }

      .cls-9 {
        clip-path: url(#clippath-3);
      }

      .cls-10 {
        clip-path: url(#clippath-2);
      }

      .cls-11 {
        clip-path: url(#clippath-5);
      }

      .cls-4, .cls-5 {
        stroke: #0083d4;
        stroke-width: 1.97px;
      }
    </style>
    <clipPath id="clippath">
      <rect class="cls-5" x=".98" y=".98" width="505.04" height="306.31" rx="11.79" ry="11.79"/>
    </clipPath>
    <clipPath id="clippath-1">
      <rect class="cls-5" x="342.48" y="108.79" width="60.86" height="40.28" rx="14.12" ry="14.12"/>
    </clipPath>
    <clipPath id="clippath-2">
      <path class="cls-5" d="m69.65,83.62c1.6-2.89,2.38-6.3,1.99-9.93-.83-7.7-7.02-13.93-14.72-14.78-10.1-1.12-18.65,6.75-18.65,16.63,0,2.89.74,5.61,2.03,7.98,1.13,2.07.83,4.66-.94,6.22-5.45,4.82-8.66,12.12-7.86,20.14,1.14,11.37,10.55,20.41,21.96,21.13,13.74.87,25.16-10.02,25.16-23.57,0-6.99-3.04-13.27-7.87-17.6-1.77-1.58-2.25-4.14-1.1-6.22Z"/>
    </clipPath>
    <clipPath id="clippath-3">
      <path class="cls-5" d="m476.33,137.92h-36.26c-1.52,0-2.63-1.44-2.25-2.91l18.13-69.16c.61-2.31,3.89-2.31,4.49,0l18.13,69.16c.39,1.47-.72,2.91-2.25,2.91Z"/>
    </clipPath>
    <clipPath id="clippath-4">
      <path class="cls-5" d="m249.01,111.49c-.02-.39-.03-.79-.03-1.19v-26.46c0-11.48,9.31-20.79,20.79-20.79s20.79,9.31,20.79,20.79v26.46c0,11.48-9.31,20.79-20.79,20.79-4.59,0-8.84-1.49-12.28-4.01"/>
    </clipPath>
    <clipPath id="clippath-5">
      <circle class="cls-5" cx="243.99" cy="124.1" r="13.63"/>
    </clipPath>
  </defs>
  <g id="Layer_1-2" data-name="Layer 1">
    <g>
      <g class="cls-6">
        <g>
          <path class="cls-5" d="m-105.46,136.52L86.46-23.59c6.4-5.34,15.69-5.34,22.09,0l63.83,53.25c6.4,5.34,15.69,5.34,22.09,0l174.89-145.9c6.4-5.34,15.69-5.34,22.09,0L567.67,30.77c6.4,5.34,15.69,5.34,22.09,0l65.16-54.36c6.4-5.34,15.69-5.34,22.09,0l191.92,160.1"/>
          <g>
            <g>
              <rect class="cls-4" x="342.48" y="108.79" width="60.86" height="40.28" rx="14.12" ry="14.12"/>
              <g>
                <g class="cls-7">
                  <g>
                    <line class="cls-2" x1="358.81" y1="129.04" x2="358.81" y2="125.52"/>
                    <line class="cls-2" x1="363.95" y1="127.28" x2="367.55" y2="130.27"/>
                    <line class="cls-2" x1="354.83" y1="138.91" x2="358.81" y2="136.03"/>
                    <line class="cls-2" x1="365.75" y1="138.91" x2="367.55" y2="142.15"/>
                    <line class="cls-2" x1="350.03" y1="130.27" x2="351.71" y2="130.27"/>
                    <line class="cls-2" x1="350.87" y1="119.85" x2="353.39" y2="122.59"/>
                    <line class="cls-2" x1="369.71" y1="119.85" x2="371.87" y2="117.79"/>
                    <line class="cls-2" x1="362.75" y1="117.79" x2="362.51" y2="114.19"/>
                    <line class="cls-2" x1="375.47" y1="127.28" x2="378.59" y2="129.04"/>
                    <line class="cls-2" x1="374.03" y1="136.03" x2="375.47" y2="137.47"/>
                    <line class="cls-2" x1="380.75" y1="119.85" x2="383.15" y2="115.99"/>
                    <line class="cls-2" x1="374.03" y1="110.66" x2="374.03" y2="106.51"/>
                    <line class="cls-2" x1="354.83" y1="108.59" x2="350.87" y2="106.51"/>
                    <line class="cls-2" x1="363.95" y1="102.43" x2="363.95" y2="99.55"/>
                    <line class="cls-2" x1="345.23" y1="114.19" x2="343.31" y2="114.19"/>
                    <line class="cls-2" x1="343.31" y1="119.85" x2="343.31" y2="119.85"/>
                    <line class="cls-2" x1="343.31" y1="130.27" x2="341.39" y2="136.03"/>
                    <line class="cls-2" x1="347.39" y1="138.91" x2="347.39" y2="138.91"/>
                    <line class="cls-2" x1="352.13" y1="145.63" x2="353.39" y2="146.11"/>
                    <line class="cls-2" x1="362.51" y1="150.19" x2="363.95" y2="149.47"/>
                    <line class="cls-2" x1="360.59" y1="143.95" x2="362.51" y2="143.95"/>
                    <line class="cls-2" x1="374.03" y1="146.11" x2="375.47" y2="146.11"/>
                    <line class="cls-2" x1="381.95" y1="140.53" x2="383.15" y2="140.53"/>
                    <line class="cls-2" x1="384.35" y1="130.27" x2="385.07" y2="133.15"/>
                    <line class="cls-2" x1="389.15" y1="127.28" x2="390.59" y2="127.28"/>
                    <line class="cls-2" x1="389.15" y1="119.85" x2="389.15" y2="118.82"/>
                    <line class="cls-2" x1="382.55" y1="107.55" x2="384.35" y2="106.51"/>
                    <line class="cls-2" x1="391.55" y1="108.59" x2="392.75" y2="108.59"/>
                    <line class="cls-2" x1="381.95" y1="99.55" x2="380.75" y2="97.63"/>
                    <line class="cls-2" x1="374.03" y1="100.99" x2="371.87" y2="102.43"/>
                    <line class="cls-2" x1="367.55" y1="107.55" x2="369.71" y2="110.66"/>
                    <line class="cls-2" x1="354.83" y1="100.99" x2="356.82" y2="102.43"/>
                    <line class="cls-2" x1="355.82" y1="115.99" x2="356.82" y2="114.19"/>
                    <line class="cls-2" x1="343.31" y1="107.55" x2="342.35" y2="106.51"/>
                    <line class="cls-2" x1="347.39" y1="97.63" x2="347.39" y2="99.55"/>
                    <line class="cls-2" x1="360.59" y1="92.35" x2="358.81" y2="93.55"/>
                    <line class="cls-2" x1="395.87" y1="117.92" x2="398.51" y2="118.82"/>
                    <line class="cls-2" x1="402.59" y1="114.19" x2="404.51" y2="114.19"/>
                    <line class="cls-2" x1="398.51" y1="105.31" x2="398.51" y2="104.59"/>
                    <line class="cls-2" x1="393.95" y1="100.99" x2="392.75" y2="100.99"/>
                    <line class="cls-2" x1="338.03" y1="110.66" x2="336.83" y2="110.66"/>
                    <line class="cls-2" x1="335.87" y1="121.22" x2="335.39" y2="121.22"/>
                    <line class="cls-2" x1="335.87" y1="128.16" x2="335.87" y2="128.16"/>
                    <line class="cls-2" x1="345.23" y1="125.52" x2="347.39" y2="125.52"/>
                    <line class="cls-2" x1="383.45" y1="145.63" x2="385.07" y2="148.03"/>
                    <line class="cls-2" x1="392.75" y1="136.75" x2="395.87" y2="136.03"/>
                    <line class="cls-2" x1="399.47" y1="129.04" x2="402.59" y2="130.27"/>
                    <line class="cls-2" x1="370.79" y1="93.55" x2="370.79" y2="95.95"/>
                    <line class="cls-2" x1="387.95" y1="94.75" x2="387.47" y2="95.95"/>
                    <line class="cls-2" x1="378.59" y1="112.27" x2="378.59" y2="115.09"/>
                    <line class="cls-2" x1="346.31" y1="148.03" x2="345.23" y2="150.19"/>
                    <line class="cls-2" x1="352.85" y1="154.52" x2="352.85" y2="155.96"/>
                    <line class="cls-2" x1="370.79" y1="155.96" x2="371.87" y2="157.16"/>
                    <line class="cls-2" x1="378.59" y1="153.07" x2="380.75" y2="154.52"/>
                    <line class="cls-2" x1="363.23" y1="157.16" x2="362.51" y2="160.28"/>
                    <line class="cls-2" x1="334.19" y1="142.15" x2="335.87" y2="140.53"/>
                    <line class="cls-2" x1="334.19" y1="136.75" x2="334.19" y2="136.39"/>
                    <line class="cls-2" x1="397.19" y1="148.03" x2="398.51" y2="148.03"/>
                    <line class="cls-2" x1="390.59" y1="143.95" x2="392.15" y2="143.95"/>
                    <line class="cls-2" x1="390.59" y1="150.19" x2="391.55" y2="153.07"/>
                    <line class="cls-2" x1="386.27" y1="160.28" x2="387.47" y2="158.72"/>
                    <line class="cls-2" x1="401.03" y1="109.1" x2="404.51" y2="106.51"/>
                    <line class="cls-2" x1="377.03" y1="93.55" x2="380.75" y2="91.15"/>
                    <line class="cls-2" x1="372.95" y1="88.27" x2="372.95" y2="88.75"/>
                    <line class="cls-2" x1="350.87" y1="91.15" x2="352.13" y2="93.55"/>
                    <line class="cls-2" x1="407.15" y1="124.27" x2="408.59" y2="124.03"/>
                    <line class="cls-2" x1="403.55" y1="138.91" x2="405.71" y2="141.34"/>
                    <line class="cls-2" x1="378.59" y1="160.28" x2="380.16" y2="160.28"/>
                  </g>
                </g>
                <rect class="cls-5" x="342.48" y="108.79" width="60.86" height="40.28" rx="14.12" ry="14.12"/>
              </g>
              <line class="cls-5" x1="372.91" y1="137.43" x2="372.91" y2="171.95"/>
            </g>
            <g>
              <path class="cls-4" d="m421.75,83.62c1.6-2.89,2.38-6.3,1.99-9.93-.83-7.7-7.02-13.93-14.72-14.78-10.1-1.12-18.65,6.75-18.65,16.63,0,2.89.74,5.61,2.03,7.98,1.13,2.07.83,4.66-.94,6.22-5.45,4.82-8.66,12.12-7.86,20.14,1.14,11.37,10.55,20.41,21.96,21.13,13.74.87,25.16-10.02,25.16-23.57,0-6.99-3.04-13.27-7.87-17.6-1.77-1.58-2.25-4.14-1.1-6.22Z"/>
              <line class="cls-5" x1="407.1" y1="110.47" x2="407.1" y2="171.95"/>
            </g>
            <g>
              <path class="cls-4" d="m69.65,83.62c1.6-2.89,2.38-6.3,1.99-9.93-.83-7.7-7.02-13.93-14.72-14.78-10.1-1.12-18.65,6.75-18.65,16.63,0,2.89.74,5.61,2.03,7.98,1.13,2.07.83,4.66-.94,6.22-5.45,4.82-8.66,12.12-7.86,20.14,1.14,11.37,10.55,20.41,21.96,21.13,13.74.87,25.16-10.02,25.16-23.57,0-6.99-3.04-13.27-7.87-17.6-1.77-1.58-2.25-4.14-1.1-6.22Z"/>
              <g>
                <g class="cls-10">
                  <g>
                    <line class="cls-2" x1="42.35" y1="99.45" x2="42.35" y2="95.93"/>
                    <line class="cls-2" x1="47.49" y1="97.69" x2="51.09" y2="100.68"/>
                    <line class="cls-2" x1="38.37" y1="109.32" x2="42.35" y2="106.44"/>
                    <line class="cls-2" x1="49.29" y1="109.32" x2="51.09" y2="112.55"/>
                    <line class="cls-2" x1="33.57" y1="100.68" x2="35.25" y2="100.68"/>
                    <line class="cls-2" x1="34.41" y1="90.26" x2="36.93" y2="93"/>
                    <line class="cls-2" x1="53.25" y1="90.26" x2="55.41" y2="88.2"/>
                    <line class="cls-2" x1="46.29" y1="88.2" x2="46.05" y2="84.6"/>
                    <line class="cls-2" x1="59.01" y1="97.69" x2="62.13" y2="99.45"/>
                    <line class="cls-2" x1="57.57" y1="106.44" x2="59.01" y2="107.88"/>
                    <line class="cls-2" x1="64.29" y1="90.26" x2="66.69" y2="86.4"/>
                    <line class="cls-2" x1="57.57" y1="81.06" x2="57.57" y2="76.91"/>
                    <line class="cls-2" x1="38.37" y1="78.99" x2="34.41" y2="76.91"/>
                    <line class="cls-2" x1="47.49" y1="72.83" x2="47.49" y2="69.95"/>
                    <line class="cls-2" x1="28.77" y1="84.6" x2="26.85" y2="84.6"/>
                    <line class="cls-2" x1="26.85" y1="90.26" x2="26.85" y2="90.26"/>
                    <line class="cls-2" x1="26.85" y1="100.68" x2="24.93" y2="106.44"/>
                    <line class="cls-2" x1="30.93" y1="109.32" x2="30.93" y2="109.32"/>
                    <line class="cls-2" x1="35.67" y1="116.04" x2="36.93" y2="116.52"/>
                    <line class="cls-2" x1="46.05" y1="120.6" x2="47.49" y2="119.88"/>
                    <line class="cls-2" x1="44.13" y1="114.36" x2="46.05" y2="114.36"/>
                    <line class="cls-2" x1="57.57" y1="116.52" x2="59.01" y2="116.52"/>
                    <line class="cls-2" x1="65.49" y1="110.94" x2="66.69" y2="110.94"/>
                    <line class="cls-2" x1="67.89" y1="100.68" x2="68.61" y2="103.56"/>
                    <line class="cls-2" x1="72.69" y1="97.69" x2="74.13" y2="97.69"/>
                    <line class="cls-2" x1="72.69" y1="90.26" x2="72.69" y2="89.23"/>
                    <line class="cls-2" x1="66.09" y1="77.95" x2="67.89" y2="76.91"/>
                    <line class="cls-2" x1="75.09" y1="78.99" x2="76.29" y2="78.99"/>
                    <line class="cls-2" x1="65.49" y1="69.95" x2="64.29" y2="68.03"/>
                    <line class="cls-2" x1="57.57" y1="71.39" x2="55.41" y2="72.83"/>
                    <line class="cls-2" x1="51.09" y1="77.95" x2="53.25" y2="81.06"/>
                    <line class="cls-2" x1="38.37" y1="71.39" x2="40.36" y2="72.83"/>
                    <line class="cls-2" x1="39.37" y1="86.4" x2="40.36" y2="84.6"/>
                    <line class="cls-2" x1="26.85" y1="77.95" x2="25.89" y2="76.91"/>
                    <line class="cls-2" x1="30.93" y1="68.03" x2="30.93" y2="69.95"/>
                    <line class="cls-2" x1="44.13" y1="62.75" x2="42.35" y2="63.95"/>
                    <line class="cls-2" x1="79.41" y1="88.33" x2="82.05" y2="89.23"/>
                    <line class="cls-2" x1="86.13" y1="84.6" x2="88.05" y2="84.6"/>
                    <line class="cls-2" x1="82.05" y1="75.71" x2="82.05" y2="74.99"/>
                    <line class="cls-2" x1="77.49" y1="71.39" x2="76.29" y2="71.39"/>
                    <line class="cls-2" x1="21.57" y1="81.06" x2="20.37" y2="81.06"/>
                    <line class="cls-2" x1="19.41" y1="91.63" x2="18.93" y2="91.63"/>
                    <line class="cls-2" x1="19.41" y1="98.57" x2="19.41" y2="98.57"/>
                    <line class="cls-2" x1="28.77" y1="95.93" x2="30.93" y2="95.93"/>
                    <line class="cls-2" x1="66.99" y1="116.04" x2="68.61" y2="118.44"/>
                    <line class="cls-2" x1="76.29" y1="107.16" x2="79.41" y2="106.44"/>
                    <line class="cls-2" x1="83.01" y1="99.45" x2="86.13" y2="100.68"/>
                    <line class="cls-2" x1="54.33" y1="63.95" x2="54.33" y2="66.35"/>
                    <line class="cls-2" x1="71.49" y1="65.15" x2="71.01" y2="66.35"/>
                    <line class="cls-2" x1="62.13" y1="82.68" x2="62.13" y2="85.5"/>
                    <line class="cls-2" x1="29.85" y1="118.44" x2="28.77" y2="120.6"/>
                    <line class="cls-2" x1="36.39" y1="124.92" x2="36.39" y2="126.36"/>
                    <line class="cls-2" x1="54.33" y1="126.36" x2="55.41" y2="127.56"/>
                    <line class="cls-2" x1="62.13" y1="123.48" x2="64.29" y2="124.92"/>
                    <line class="cls-2" x1="46.77" y1="127.56" x2="46.05" y2="130.68"/>
                    <line class="cls-2" x1="17.73" y1="112.55" x2="19.41" y2="110.94"/>
                    <line class="cls-2" x1="17.73" y1="107.16" x2="17.73" y2="106.8"/>
                    <line class="cls-2" x1="80.73" y1="118.44" x2="82.05" y2="118.44"/>
                    <line class="cls-2" x1="74.13" y1="114.36" x2="75.69" y2="114.36"/>
                    <line class="cls-2" x1="74.13" y1="120.6" x2="75.09" y2="123.48"/>
                    <line class="cls-2" x1="69.81" y1="130.68" x2="71.01" y2="129.12"/>
                    <line class="cls-2" x1="84.57" y1="79.51" x2="88.05" y2="76.91"/>
                    <line class="cls-2" x1="60.57" y1="63.95" x2="64.29" y2="61.55"/>
                    <line class="cls-2" x1="56.49" y1="58.67" x2="56.49" y2="59.15"/>
                    <line class="cls-2" x1="34.41" y1="61.55" x2="35.67" y2="63.95"/>
                    <line class="cls-2" x1="90.69" y1="94.68" x2="92.13" y2="94.44"/>
                    <line class="cls-2" x1="87.09" y1="109.32" x2="89.25" y2="111.74"/>
                    <line class="cls-2" x1="62.13" y1="130.68" x2="63.7" y2="130.68"/>
                  </g>
                </g>
                <path class="cls-5" d="m69.65,83.62c1.6-2.89,2.38-6.3,1.99-9.93-.83-7.7-7.02-13.93-14.72-14.78-10.1-1.12-18.65,6.75-18.65,16.63,0,2.89.74,5.61,2.03,7.98,1.13,2.07.83,4.66-.94,6.22-5.45,4.82-8.66,12.12-7.86,20.14,1.14,11.37,10.55,20.41,21.96,21.13,13.74.87,25.16-10.02,25.16-23.57,0-6.99-3.04-13.27-7.87-17.6-1.77-1.58-2.25-4.14-1.1-6.22Z"/>
              </g>
              <line class="cls-5" x1="55.01" y1="110.47" x2="55.01" y2="171.95"/>
            </g>
            <g>
              <path class="cls-4" d="m476.33,137.92h-36.26c-1.52,0-2.63-1.44-2.25-2.91l18.13-69.16c.61-2.31,3.89-2.31,4.49,0l18.13,69.16c.39,1.47-.72,2.91-2.25,2.91Z"/>
              <g>
                <g class="cls-9">
                  <g>
                    <line class="cls-2" x1="445.33" y1="109.27" x2="445.33" y2="105.75"/>
                    <line class="cls-2" x1="450.47" y1="107.51" x2="454.07" y2="110.5"/>
                    <line class="cls-2" x1="441.35" y1="119.14" x2="445.33" y2="116.26"/>
                    <line class="cls-2" x1="452.27" y1="119.14" x2="454.07" y2="122.37"/>
                    <line class="cls-2" x1="436.55" y1="110.5" x2="438.23" y2="110.5"/>
                    <line class="cls-2" x1="437.39" y1="100.07" x2="439.91" y2="102.82"/>
                    <line class="cls-2" x1="456.23" y1="100.07" x2="458.39" y2="98.02"/>
                    <line class="cls-2" x1="449.27" y1="98.02" x2="449.03" y2="94.42"/>
                    <line class="cls-2" x1="461.99" y1="107.51" x2="465.11" y2="109.27"/>
                    <line class="cls-2" x1="460.55" y1="116.26" x2="461.99" y2="117.7"/>
                    <line class="cls-2" x1="467.27" y1="100.07" x2="469.67" y2="96.22"/>
                    <line class="cls-2" x1="460.55" y1="90.88" x2="460.55" y2="86.73"/>
                    <line class="cls-2" x1="441.35" y1="88.81" x2="437.39" y2="86.73"/>
                    <line class="cls-2" x1="450.47" y1="82.65" x2="450.47" y2="79.77"/>
                    <line class="cls-2" x1="431.75" y1="94.42" x2="429.83" y2="94.42"/>
                    <line class="cls-2" x1="429.83" y1="100.07" x2="429.83" y2="100.07"/>
                    <line class="cls-2" x1="429.83" y1="110.5" x2="427.91" y2="116.26"/>
                    <line class="cls-2" x1="433.91" y1="119.14" x2="433.91" y2="119.14"/>
                    <line class="cls-2" x1="438.65" y1="125.86" x2="439.91" y2="126.34"/>
                    <line class="cls-2" x1="449.03" y1="130.42" x2="450.47" y2="129.7"/>
                    <line class="cls-2" x1="447.11" y1="124.18" x2="449.03" y2="124.18"/>
                    <line class="cls-2" x1="460.55" y1="126.34" x2="461.99" y2="126.34"/>
                    <line class="cls-2" x1="468.47" y1="120.76" x2="469.67" y2="120.76"/>
                    <line class="cls-2" x1="470.87" y1="110.5" x2="471.59" y2="113.38"/>
                    <line class="cls-2" x1="475.67" y1="107.51" x2="477.11" y2="107.51"/>
                    <line class="cls-2" x1="475.67" y1="100.07" x2="475.67" y2="99.05"/>
                    <line class="cls-2" x1="469.07" y1="87.77" x2="470.87" y2="86.73"/>
                    <line class="cls-2" x1="478.07" y1="88.81" x2="479.27" y2="88.81"/>
                    <line class="cls-2" x1="468.47" y1="79.77" x2="467.27" y2="77.85"/>
                    <line class="cls-2" x1="460.55" y1="81.21" x2="458.39" y2="82.65"/>
                    <line class="cls-2" x1="454.07" y1="87.77" x2="456.23" y2="90.88"/>
                    <line class="cls-2" x1="441.35" y1="81.21" x2="443.34" y2="82.65"/>
                    <line class="cls-2" x1="442.34" y1="96.22" x2="443.34" y2="94.42"/>
                    <line class="cls-2" x1="429.83" y1="87.77" x2="428.87" y2="86.73"/>
                    <line class="cls-2" x1="433.91" y1="77.85" x2="433.91" y2="79.77"/>
                    <line class="cls-2" x1="447.11" y1="72.57" x2="445.33" y2="73.77"/>
                    <line class="cls-2" x1="482.39" y1="98.15" x2="485.03" y2="99.05"/>
                    <line class="cls-2" x1="489.11" y1="94.42" x2="491.03" y2="94.42"/>
                    <line class="cls-2" x1="485.03" y1="85.53" x2="485.03" y2="84.81"/>
                    <line class="cls-2" x1="480.47" y1="81.21" x2="479.27" y2="81.21"/>
                    <line class="cls-2" x1="424.55" y1="90.88" x2="423.35" y2="90.88"/>
                    <line class="cls-2" x1="422.39" y1="101.45" x2="421.91" y2="101.45"/>
                    <line class="cls-2" x1="422.39" y1="108.39" x2="422.39" y2="108.39"/>
                    <line class="cls-2" x1="431.75" y1="105.75" x2="433.91" y2="105.75"/>
                    <line class="cls-2" x1="469.97" y1="125.86" x2="471.59" y2="128.26"/>
                    <line class="cls-2" x1="479.27" y1="116.98" x2="482.39" y2="116.26"/>
                    <line class="cls-2" x1="485.99" y1="109.27" x2="489.11" y2="110.5"/>
                    <line class="cls-2" x1="457.31" y1="73.77" x2="457.31" y2="76.17"/>
                    <line class="cls-2" x1="474.47" y1="74.97" x2="473.99" y2="76.17"/>
                    <line class="cls-2" x1="465.11" y1="92.49" x2="465.11" y2="95.32"/>
                    <line class="cls-2" x1="432.83" y1="128.26" x2="431.75" y2="130.42"/>
                    <line class="cls-2" x1="439.37" y1="134.74" x2="439.37" y2="136.18"/>
                    <line class="cls-2" x1="457.31" y1="136.18" x2="458.39" y2="137.38"/>
                    <line class="cls-2" x1="465.11" y1="133.3" x2="467.27" y2="134.74"/>
                    <line class="cls-2" x1="449.75" y1="137.38" x2="449.03" y2="140.5"/>
                    <line class="cls-2" x1="420.71" y1="122.37" x2="422.39" y2="120.76"/>
                    <line class="cls-2" x1="420.71" y1="116.98" x2="420.71" y2="116.62"/>
                    <line class="cls-2" x1="483.71" y1="128.26" x2="485.03" y2="128.26"/>
                    <line class="cls-2" x1="477.11" y1="124.18" x2="478.67" y2="124.18"/>
                    <line class="cls-2" x1="477.11" y1="130.42" x2="478.07" y2="133.3"/>
                    <line class="cls-2" x1="472.79" y1="140.5" x2="473.99" y2="138.94"/>
                    <line class="cls-2" x1="487.55" y1="89.33" x2="491.03" y2="86.73"/>
                    <line class="cls-2" x1="463.55" y1="73.77" x2="467.27" y2="71.37"/>
                    <line class="cls-2" x1="459.47" y1="68.49" x2="459.47" y2="68.97"/>
                    <line class="cls-2" x1="437.39" y1="71.37" x2="438.65" y2="73.77"/>
                    <line class="cls-2" x1="493.67" y1="104.5" x2="495.11" y2="104.26"/>
                    <line class="cls-2" x1="490.07" y1="119.14" x2="492.23" y2="121.56"/>
                    <line class="cls-2" x1="465.11" y1="140.5" x2="466.67" y2="140.5"/>
                  </g>
                </g>
                <path class="cls-5" d="m476.33,137.92h-36.26c-1.52,0-2.63-1.44-2.25-2.91l18.13-69.16c.61-2.31,3.89-2.31,4.49,0l18.13,69.16c.39,1.47-.72,2.91-2.25,2.91Z"/>
              </g>
              <line class="cls-5" x1="458.2" y1="129.15" x2="458.2" y2="171.95"/>
              <polyline class="cls-5" points="464.91 122.44 458.2 129.15 451.49 122.44"/>
            </g>
            <path class="cls-4" d="m1.58,112.5c.64-1.74.95-3.64.84-5.63-.39-7.17-6.33-13.04-13.5-13.34-8.08-.34-14.74,6.11-14.74,14.12,0,1.71.31,3.35.87,4.86.61,1.65.08,3.48-1.29,4.58-5.92,4.73-9.48,12.28-8.64,20.62,1.13,11.23,10.41,20.15,21.67,20.86,13.57.86,24.84-9.89,24.84-23.27,0-7.37-3.42-13.93-8.75-18.2-1.38-1.1-1.91-2.94-1.3-4.6Z"/>
            <g>
              <ellipse class="cls-4" cx="357.92" cy="102.14" rx="10.9" ry="39.93"/>
              <line class="cls-5" x1="357.92" y1="102" x2="357.92" y2="171.95"/>
              <line class="cls-5" x1="363.83" y1="107.6" x2="357.92" y2="111.08"/>
              <line class="cls-5" x1="363.83" y1="118.2" x2="357.92" y2="121.68"/>
            </g>
            <g>
              <g>
                <path class="cls-4" d="m249.01,111.49c-.02-.39-.03-.79-.03-1.19v-26.46c0-11.48,9.31-20.79,20.79-20.79s20.79,9.31,20.79,20.79v26.46c0,11.48-9.31,20.79-20.79,20.79-4.59,0-8.84-1.49-12.28-4.01"/>
                <g>
                  <g class="cls-8">
                    <g>
                      <line class="cls-2" x1="257.51" y1="102.88" x2="257.51" y2="99.36"/>
                      <line class="cls-2" x1="262.65" y1="101.12" x2="266.25" y2="104.11"/>
                      <line class="cls-2" x1="253.53" y1="112.75" x2="257.51" y2="109.87"/>
                      <line class="cls-2" x1="264.45" y1="112.75" x2="266.25" y2="115.99"/>
                      <line class="cls-2" x1="248.73" y1="104.11" x2="250.41" y2="104.11"/>
                      <line class="cls-2" x1="249.57" y1="93.69" x2="252.09" y2="96.43"/>
                      <line class="cls-2" x1="268.41" y1="93.69" x2="270.58" y2="91.63"/>
                      <line class="cls-2" x1="261.45" y1="91.63" x2="261.21" y2="88.03"/>
                      <line class="cls-2" x1="274.18" y1="101.12" x2="277.3" y2="102.88"/>
                      <line class="cls-2" x1="272.74" y1="109.87" x2="274.18" y2="111.31"/>
                      <line class="cls-2" x1="279.46" y1="93.69" x2="281.86" y2="89.83"/>
                      <line class="cls-2" x1="272.74" y1="84.5" x2="272.74" y2="80.35"/>
                      <line class="cls-2" x1="253.53" y1="82.43" x2="249.57" y2="80.35"/>
                      <line class="cls-2" x1="262.65" y1="76.27" x2="262.65" y2="73.39"/>
                      <line class="cls-2" x1="243.93" y1="88.03" x2="242.01" y2="88.03"/>
                      <line class="cls-2" x1="242.01" y1="93.69" x2="242.01" y2="93.69"/>
                      <line class="cls-2" x1="242.01" y1="104.11" x2="240.09" y2="109.87"/>
                      <line class="cls-2" x1="246.09" y1="112.75" x2="246.09" y2="112.75"/>
                      <line class="cls-2" x1="250.83" y1="119.48" x2="252.09" y2="119.96"/>
                      <line class="cls-2" x1="261.21" y1="124.04" x2="262.65" y2="123.32"/>
                      <line class="cls-2" x1="259.29" y1="117.8" x2="261.21" y2="117.8"/>
                      <line class="cls-2" x1="272.74" y1="119.96" x2="274.18" y2="119.96"/>
                      <line class="cls-2" x1="280.66" y1="114.37" x2="281.86" y2="114.37"/>
                      <line class="cls-2" x1="283.06" y1="104.11" x2="283.78" y2="106.99"/>
                      <line class="cls-2" x1="287.86" y1="101.12" x2="289.3" y2="101.12"/>
                      <line class="cls-2" x1="287.86" y1="93.69" x2="287.86" y2="92.66"/>
                      <line class="cls-2" x1="281.26" y1="81.39" x2="283.06" y2="80.35"/>
                      <line class="cls-2" x1="290.26" y1="82.43" x2="291.46" y2="82.43"/>
                      <line class="cls-2" x1="280.66" y1="73.39" x2="279.46" y2="71.47"/>
                      <line class="cls-2" x1="272.74" y1="74.83" x2="270.58" y2="76.27"/>
                      <line class="cls-2" x1="266.25" y1="81.39" x2="268.41" y2="84.5"/>
                      <line class="cls-2" x1="253.53" y1="74.83" x2="255.52" y2="76.27"/>
                      <line class="cls-2" x1="254.53" y1="89.83" x2="255.52" y2="88.03"/>
                      <line class="cls-2" x1="242.01" y1="81.39" x2="241.05" y2="80.35"/>
                      <line class="cls-2" x1="246.09" y1="71.47" x2="246.09" y2="73.39"/>
                      <line class="cls-2" x1="259.29" y1="66.19" x2="257.51" y2="67.39"/>
                      <line class="cls-2" x1="294.58" y1="91.76" x2="297.22" y2="92.66"/>
                      <line class="cls-2" x1="301.3" y1="88.03" x2="303.22" y2="88.03"/>
                      <line class="cls-2" x1="297.22" y1="79.15" x2="297.22" y2="78.43"/>
                      <line class="cls-2" x1="292.66" y1="74.83" x2="291.46" y2="74.83"/>
                      <line class="cls-2" x1="236.73" y1="84.5" x2="235.53" y2="84.5"/>
                      <line class="cls-2" x1="234.57" y1="95.06" x2="234.09" y2="95.06"/>
                      <line class="cls-2" x1="234.57" y1="102" x2="234.57" y2="102"/>
                      <line class="cls-2" x1="243.93" y1="99.36" x2="246.09" y2="99.36"/>
                      <line class="cls-2" x1="282.16" y1="119.48" x2="283.78" y2="121.88"/>
                      <line class="cls-2" x1="291.46" y1="110.59" x2="294.58" y2="109.87"/>
                      <line class="cls-2" x1="298.18" y1="102.88" x2="301.3" y2="104.11"/>
                      <line class="cls-2" x1="269.5" y1="67.39" x2="269.5" y2="69.79"/>
                      <line class="cls-2" x1="286.66" y1="68.59" x2="286.18" y2="69.79"/>
                      <line class="cls-2" x1="277.3" y1="86.11" x2="277.3" y2="88.93"/>
                      <line class="cls-2" x1="245.01" y1="121.88" x2="243.93" y2="124.04"/>
                      <line class="cls-2" x1="251.55" y1="128.36" x2="251.55" y2="129.8"/>
                      <line class="cls-2" x1="269.5" y1="129.8" x2="270.58" y2="131"/>
                      <line class="cls-2" x1="277.3" y1="126.92" x2="279.46" y2="128.36"/>
                      <line class="cls-2" x1="261.93" y1="131" x2="261.21" y2="134.12"/>
                      <line class="cls-2" x1="232.89" y1="115.99" x2="234.57" y2="114.37"/>
                      <line class="cls-2" x1="232.89" y1="110.59" x2="232.89" y2="110.23"/>
                      <line class="cls-2" x1="295.9" y1="121.88" x2="297.22" y2="121.88"/>
                      <line class="cls-2" x1="289.3" y1="117.8" x2="290.86" y2="117.8"/>
                      <line class="cls-2" x1="289.3" y1="124.04" x2="290.26" y2="126.92"/>
                      <line class="cls-2" x1="284.98" y1="134.12" x2="286.18" y2="132.56"/>
                      <line class="cls-2" x1="299.74" y1="82.95" x2="303.22" y2="80.35"/>
                      <line class="cls-2" x1="275.74" y1="67.39" x2="279.46" y2="64.99"/>
                      <line class="cls-2" x1="271.66" y1="62.11" x2="271.66" y2="62.59"/>
                      <line class="cls-2" x1="249.57" y1="64.99" x2="250.83" y2="67.39"/>
                      <line class="cls-2" x1="305.86" y1="98.11" x2="307.3" y2="97.87"/>
                      <line class="cls-2" x1="302.26" y1="112.75" x2="304.42" y2="115.18"/>
                      <line class="cls-2" x1="277.3" y1="134.12" x2="278.86" y2="134.12"/>
                    </g>
                  </g>
                  <path class="cls-5" d="m249.01,111.49c-.02-.39-.03-.79-.03-1.19v-26.46c0-11.48,9.31-20.79,20.79-20.79s20.79,9.31,20.79,20.79v26.46c0,11.48-9.31,20.79-20.79,20.79-4.59,0-8.84-1.49-12.28-4.01"/>
                </g>
                <line class="cls-5" x1="269.77" y1="115.32" x2="269.77" y2="171.95"/>
              </g>
              <circle class="cls-4" cx="243.99" cy="124.1" r="13.63"/>
              <line class="cls-5" x1="244.94" y1="125.92" x2="269.77" y2="147.12"/>
              <g>
                <g class="cls-11">
                  <g>
                    <line class="cls-2" x1="233.98" y1="129.03" x2="233.98" y2="125.51"/>
                    <line class="cls-2" x1="239.12" y1="127.27" x2="242.72" y2="130.26"/>
                    <line class="cls-2" x1="229.99" y1="138.9" x2="233.98" y2="136.02"/>
                    <line class="cls-2" x1="240.92" y1="138.9" x2="242.72" y2="142.13"/>
                    <line class="cls-2" x1="225.19" y1="130.26" x2="226.87" y2="130.26"/>
                    <line class="cls-2" x1="226.03" y1="119.83" x2="228.55" y2="122.58"/>
                    <line class="cls-2" x1="244.88" y1="119.83" x2="247.04" y2="117.77"/>
                    <line class="cls-2" x1="237.92" y1="117.77" x2="237.68" y2="114.17"/>
                    <line class="cls-2" x1="250.64" y1="127.27" x2="253.76" y2="129.03"/>
                    <line class="cls-2" x1="249.2" y1="136.02" x2="250.64" y2="137.46"/>
                    <line class="cls-2" x1="255.92" y1="119.83" x2="258.32" y2="115.97"/>
                    <line class="cls-2" x1="249.2" y1="110.64" x2="249.2" y2="106.49"/>
                    <line class="cls-2" x1="229.99" y1="108.57" x2="226.03" y2="106.49"/>
                    <line class="cls-2" x1="239.12" y1="102.41" x2="239.12" y2="99.53"/>
                    <line class="cls-2" x1="220.39" y1="114.17" x2="218.47" y2="114.17"/>
                    <line class="cls-2" x1="218.47" y1="119.83" x2="218.47" y2="119.83"/>
                    <line class="cls-2" x1="218.47" y1="130.26" x2="216.55" y2="136.02"/>
                    <line class="cls-2" x1="222.55" y1="138.9" x2="222.55" y2="138.9"/>
                    <line class="cls-2" x1="227.29" y1="145.62" x2="228.55" y2="146.1"/>
                    <line class="cls-2" x1="237.68" y1="150.18" x2="239.12" y2="149.46"/>
                    <line class="cls-2" x1="235.76" y1="143.94" x2="237.68" y2="143.94"/>
                    <line class="cls-2" x1="249.2" y1="146.1" x2="250.64" y2="146.1"/>
                    <line class="cls-2" x1="257.12" y1="140.51" x2="258.32" y2="140.51"/>
                    <line class="cls-2" x1="259.52" y1="130.26" x2="260.24" y2="133.14"/>
                    <line class="cls-2" x1="264.32" y1="127.27" x2="265.76" y2="127.27"/>
                    <line class="cls-2" x1="264.32" y1="119.83" x2="264.32" y2="118.8"/>
                    <line class="cls-2" x1="257.72" y1="107.53" x2="259.52" y2="106.49"/>
                    <line class="cls-2" x1="266.72" y1="108.57" x2="267.92" y2="108.57"/>
                    <line class="cls-2" x1="257.12" y1="99.53" x2="255.92" y2="97.61"/>
                    <line class="cls-2" x1="249.2" y1="100.97" x2="247.04" y2="102.41"/>
                    <line class="cls-2" x1="242.72" y1="107.53" x2="244.88" y2="110.64"/>
                    <line class="cls-2" x1="229.99" y1="100.97" x2="231.99" y2="102.41"/>
                    <line class="cls-2" x1="230.99" y1="115.97" x2="231.99" y2="114.17"/>
                    <line class="cls-2" x1="218.47" y1="107.53" x2="217.51" y2="106.49"/>
                    <line class="cls-2" x1="222.55" y1="97.61" x2="222.55" y2="99.53"/>
                    <line class="cls-2" x1="235.76" y1="92.33" x2="233.98" y2="93.53"/>
                    <line class="cls-2" x1="271.04" y1="117.9" x2="273.68" y2="118.8"/>
                    <line class="cls-2" x1="277.76" y1="114.17" x2="279.68" y2="114.17"/>
                    <line class="cls-2" x1="273.68" y1="105.29" x2="273.68" y2="104.57"/>
                    <line class="cls-2" x1="269.12" y1="100.97" x2="267.92" y2="100.97"/>
                    <line class="cls-2" x1="213.19" y1="110.64" x2="211.99" y2="110.64"/>
                    <line class="cls-2" x1="211.03" y1="121.2" x2="210.55" y2="121.2"/>
                    <line class="cls-2" x1="211.03" y1="128.15" x2="211.03" y2="128.15"/>
                    <line class="cls-2" x1="220.39" y1="125.51" x2="222.55" y2="125.51"/>
                    <line class="cls-2" x1="258.62" y1="145.62" x2="260.24" y2="148.02"/>
                    <line class="cls-2" x1="267.92" y1="136.74" x2="271.04" y2="136.02"/>
                    <line class="cls-2" x1="274.64" y1="129.03" x2="277.76" y2="130.26"/>
                    <line class="cls-2" x1="245.96" y1="93.53" x2="245.96" y2="95.93"/>
                    <line class="cls-2" x1="263.12" y1="94.73" x2="262.64" y2="95.93"/>
                    <line class="cls-2" x1="253.76" y1="112.25" x2="253.76" y2="115.07"/>
                    <line class="cls-2" x1="221.47" y1="148.02" x2="220.39" y2="150.18"/>
                    <line class="cls-2" x1="228.01" y1="154.5" x2="228.01" y2="155.94"/>
                    <line class="cls-2" x1="245.96" y1="155.94" x2="247.04" y2="157.14"/>
                    <line class="cls-2" x1="253.76" y1="153.06" x2="255.92" y2="154.5"/>
                    <line class="cls-2" x1="238.4" y1="157.14" x2="237.68" y2="160.26"/>
                    <line class="cls-2" x1="209.35" y1="142.13" x2="211.03" y2="140.51"/>
                    <line class="cls-2" x1="209.35" y1="136.74" x2="209.35" y2="136.38"/>
                    <line class="cls-2" x1="272.36" y1="148.02" x2="273.68" y2="148.02"/>
                    <line class="cls-2" x1="265.76" y1="143.94" x2="267.32" y2="143.94"/>
                    <line class="cls-2" x1="265.76" y1="150.18" x2="266.72" y2="153.06"/>
                    <line class="cls-2" x1="261.44" y1="160.26" x2="262.64" y2="158.7"/>
                    <line class="cls-2" x1="276.2" y1="109.09" x2="279.68" y2="106.49"/>
                    <line class="cls-2" x1="252.2" y1="93.53" x2="255.92" y2="91.13"/>
                    <line class="cls-2" x1="248.12" y1="88.25" x2="248.12" y2="88.73"/>
                    <line class="cls-2" x1="226.03" y1="91.13" x2="227.29" y2="93.53"/>
                    <line class="cls-2" x1="282.32" y1="124.26" x2="283.76" y2="124.02"/>
                    <line class="cls-2" x1="278.72" y1="138.9" x2="280.88" y2="141.32"/>
                    <line class="cls-2" x1="253.76" y1="160.26" x2="255.32" y2="160.26"/>
                  </g>
                </g>
                <circle class="cls-5" cx="243.99" cy="124.1" r="13.63"/>
              </g>
            </g>
            <g>
              <rect class="cls-4" x="72.41" y="76.77" width="41.59" height="68.05" rx="20.79" ry="20.79"/>
              <line class="cls-5" x1="93.21" y1="129.04" x2="93.21" y2="171.95"/>
            </g>
            <g>
              <circle class="cls-4" cx="498.38" cy="122.19" r="27.01"/>
              <line class="cls-5" x1="498.38" y1="124.57" x2="498.38" y2="171.95"/>
              <line class="cls-5" x1="498.38" y1="134.7" x2="508.08" y2="130.44"/>
            </g>
            <g>
              <path class="cls-4" d="m335.37,112.5c.64-1.74.95-3.64.84-5.63-.39-7.17-6.33-13.04-13.5-13.34-8.08-.34-14.74,6.11-14.74,14.12,0,1.71.31,3.35.87,4.86.61,1.65.08,3.48-1.29,4.58-5.92,4.73-9.48,12.28-8.64,20.62,1.13,11.23,10.41,20.15,21.67,20.86,13.57.86,24.84-9.89,24.84-23.27,0-7.37-3.42-13.93-8.75-18.2-1.38-1.1-1.91-2.94-1.3-4.6Z"/>
              <line class="cls-5" x1="322.1" y1="137.43" x2="322.1" y2="171.95"/>
              <line class="cls-5" x1="315.44" y1="141.06" x2="322.1" y2="147.12"/>
            </g>
          </g>
          <polygon class="cls-4" points="-71 172.76 831.8 172.76 831.8 398.52 -71 303.22 -71 172.76"/>
          <g>
            <path class="cls-1" d="m-75.3,204.46c117.07,0,117.07,24.75,229.84,24.75s112.77-24.75,225.55-24.75,112.78,24.75,225.56,24.75,112.78-24.75,228.25-24.75v123.92H-75.04l-.26-123.92Z"/>
            <path class="cls-3" d="m-71,204.46c112.77,0,112.77,24.75,225.55,24.75s112.77-24.75,225.55-24.75,112.78,24.75,225.56,24.75,112.78-24.75,225.56-24.75"/>
            <g>
              <g>
                <path class="cls-4" d="m49.29,202.79c-4.3,5.79-4.3,13.2-4.3,13.2,0,0,6.99-1.97,11.29-7.75,4.3-5.79,4.3-13.2,4.3-13.2,0,0-6.99,1.97-11.29,7.75Z"/>
                <path class="cls-4" d="m39.89,202.79c4.3,5.79,4.3,13.2,4.3,13.2,0,0-6.99-1.97-11.29-7.75-4.3-5.79-4.3-13.2-4.3-13.2,0,0,6.99,1.97,11.29,7.75Z"/>
              </g>
              <g>
                <path class="cls-4" d="m122.15,213.72c-4.3,5.79-4.3,13.2-4.3,13.2,0,0,6.99-1.97,11.29-7.75,4.3-5.79,4.3-13.2,4.3-13.2,0,0-6.99,1.97-11.29,7.75Z"/>
                <path class="cls-4" d="m112.75,213.72c4.3,5.79,4.3,13.2,4.3,13.2,0,0-6.99-1.97-11.29-7.75-4.3-5.79-4.3-13.2-4.3-13.2,0,0,6.99,1.97,11.29,7.75Z"/>
              </g>
              <g>
                <path class="cls-4" d="m286.82,198.49c-4.3,5.79-4.3,13.2-4.3,13.2,0,0,6.99-1.97,11.29-7.75,4.3-5.79,4.3-13.2,4.3-13.2,0,0-6.99,1.97-11.29,7.75Z"/>
                <path class="cls-4" d="m277.41,198.49c4.3,5.79,4.3,13.2,4.3,13.2,0,0-6.99-1.97-11.29-7.75-4.3-5.79-4.3-13.2-4.3-13.2,0,0,6.99,1.97,11.29,7.75Z"/>
              </g>
              <g>
                <path class="cls-4" d="m381.31,190.5c-4.3,5.79-4.3,13.2-4.3,13.2,0,0,6.99-1.97,11.29-7.75,4.3-5.79,4.3-13.2,4.3-13.2,0,0-6.99,1.97-11.29,7.75Z"/>
                <path class="cls-4" d="m371.91,190.5c4.3,5.79,4.3,13.2,4.3,13.2,0,0-6.99-1.97-11.29-7.75s-4.3-13.2-4.3-13.2c0,0,6.99,1.97,11.29,7.75Z"/>
              </g>
              <g>
                <path class="cls-4" d="m468.01,197.32c-4.3,5.79-4.3,13.2-4.3,13.2,0,0,6.99-1.97,11.29-7.75,4.3-5.79,4.3-13.2,4.3-13.2,0,0-6.99,1.97-11.29,7.75Z"/>
                <path class="cls-4" d="m458.61,197.32c4.3,5.79,4.3,13.2,4.3,13.2,0,0-6.99-1.97-11.29-7.75-4.3-5.79-4.3-13.2-4.3-13.2,0,0,6.99,1.97,11.29,7.75Z"/>
              </g>
            </g>
          </g>
          <g>
            <path class="cls-1" d="m-75.3,285.19c117.07,0,117.07,24.75,229.84,24.75s112.77-24.75,225.55-24.75,112.78,24.75,225.56,24.75,112.78-24.75,228.25-24.75v123.92H-75.04l-.26-123.92Z"/>
            <path class="cls-3" d="m-71,285.19c112.77,0,112.77,24.75,225.55,24.75s112.77-24.75,225.55-24.75,112.78,24.75,225.56,24.75,112.78-24.75,225.56-24.75"/>
            <g>
              <g>
                <path class="cls-4" d="m49.29,283.52c-4.3,5.79-4.3,13.2-4.3,13.2,0,0,6.99-1.97,11.29-7.75,4.3-5.79,4.3-13.2,4.3-13.2,0,0-6.99,1.97-11.29,7.75Z"/>
                <path class="cls-4" d="m39.89,283.52c4.3,5.79,4.3,13.2,4.3,13.2,0,0-6.99-1.97-11.29-7.75-4.3-5.79-4.3-13.2-4.3-13.2,0,0,6.99,1.97,11.29,7.75Z"/>
              </g>
              <g>
                <path class="cls-4" d="m122.15,294.44c-4.3,5.79-4.3,13.2-4.3,13.2,0,0,6.99-1.97,11.29-7.75,4.3-5.79,4.3-13.2,4.3-13.2,0,0-6.99,1.97-11.29,7.75Z"/>
                <path class="cls-4" d="m112.75,294.44c4.3,5.79,4.3,13.2,4.3,13.2,0,0-6.99-1.97-11.29-7.75-4.3-5.79-4.3-13.2-4.3-13.2,0,0,6.99,1.97,11.29,7.75Z"/>
              </g>
              <g>
                <path class="cls-4" d="m206.72,294.44c-4.3,5.79-4.3,13.2-4.3,13.2,0,0,6.99-1.97,11.29-7.75,4.3-5.79,4.3-13.2,4.3-13.2,0,0-6.99,1.97-11.29,7.75Z"/>
                <path class="cls-4" d="m197.32,294.44c4.3,5.79,4.3,13.2,4.3,13.2,0,0-6.99-1.97-11.29-7.75-4.3-5.79-4.3-13.2-4.3-13.2,0,0,6.99,1.97,11.29,7.75Z"/>
              </g>
              <g>
                <path class="cls-4" d="m286.82,279.22c-4.3,5.79-4.3,13.2-4.3,13.2,0,0,6.99-1.97,11.29-7.75,4.3-5.79,4.3-13.2,4.3-13.2,0,0-6.99,1.97-11.29,7.75Z"/>
                <path class="cls-4" d="m277.41,279.22c4.3,5.79,4.3,13.2,4.3,13.2,0,0-6.99-1.97-11.29-7.75-4.3-5.79-4.3-13.2-4.3-13.2,0,0,6.99,1.97,11.29,7.75Z"/>
              </g>
              <g>
                <path class="cls-4" d="m381.31,271.22c-4.3,5.79-4.3,13.2-4.3,13.2,0,0,6.99-1.97,11.29-7.75,4.3-5.79,4.3-13.2,4.3-13.2,0,0-6.99,1.97-11.29,7.75Z"/>
                <path class="cls-4" d="m371.91,271.22c4.3,5.79,4.3,13.2,4.3,13.2,0,0-6.99-1.97-11.29-7.75s-4.3-13.2-4.3-13.2c0,0,6.99,1.97,11.29,7.75Z"/>
              </g>
              <g>
                <path class="cls-4" d="m468.01,278.05c-4.3,5.79-4.3,13.2-4.3,13.2,0,0,6.99-1.97,11.29-7.75,4.3-5.79,4.3-13.2,4.3-13.2,0,0-6.99,1.97-11.29,7.75Z"/>
                <path class="cls-4" d="m458.61,278.05c4.3,5.79,4.3,13.2,4.3,13.2,0,0-6.99-1.97-11.29-7.75-4.3-5.79-4.3-13.2-4.3-13.2,0,0,6.99,1.97,11.29,7.75Z"/>
              </g>
            </g>
          </g>
          <g>
            <path class="cls-3" d="m-71,243.91c112.77,0,112.77,24.75,225.55,24.75s112.77-24.75,225.55-24.75,112.78,24.75,225.56,24.75,112.78-24.75,225.56-24.75"/>
            <g>
              <g>
                <path class="cls-4" d="m244.69,247.39c-4.3,5.79-4.3,13.2-4.3,13.2,0,0,6.99-1.97,11.29-7.75,4.3-5.79,4.3-13.2,4.3-13.2,0,0-6.99,1.97-11.29,7.75Z"/>
                <path class="cls-4" d="m235.29,247.39c4.3,5.79,4.3,13.2,4.3,13.2,0,0-6.99-1.97-11.29-7.75-4.3-5.79-4.3-13.2-4.3-13.2,0,0,6.99,1.97,11.29,7.75Z"/>
              </g>
              <g>
                <path class="cls-4" d="m159.87,254.81c-4.3,5.79-4.3,13.2-4.3,13.2,0,0,6.99-1.97,11.29-7.75,4.3-5.79,4.3-13.2,4.3-13.2,0,0-6.99,1.97-11.29,7.75Z"/>
                <path class="cls-4" d="m150.47,254.81c4.3,5.79,4.3,13.2,4.3,13.2,0,0-6.99-1.97-11.29-7.75-4.3-5.79-4.3-13.2-4.3-13.2,0,0,6.99,1.97,11.29,7.75Z"/>
              </g>
              <g>
                <path class="cls-4" d="m69.92,247.13c-4.3,5.79-4.3,13.2-4.3,13.2,0,0,6.99-1.97,11.29-7.75,4.3-5.79,4.3-13.2,4.3-13.2,0,0-6.99,1.97-11.29,7.75Z"/>
                <path class="cls-4" d="m60.52,247.13c4.3,5.79,4.3,13.2,4.3,13.2,0,0-6.99-1.97-11.29-7.75-4.3-5.79-4.3-13.2-4.3-13.2,0,0,6.99,1.97,11.29,7.75Z"/>
              </g>
              <g>
                <path class="cls-4" d="m324.45,232.03c-4.3,5.79-4.3,13.2-4.3,13.2,0,0,6.99-1.97,11.29-7.75,4.3-5.79,4.3-13.2,4.3-13.2,0,0-6.99,1.97-11.29,7.75Z"/>
                <path class="cls-4" d="m315.05,232.03c4.3,5.79,4.3,13.2,4.3,13.2,0,0-6.99-1.97-11.29-7.75-4.3-5.79-4.3-13.2-4.3-13.2,0,0,6.99,1.97,11.29,7.75Z"/>
              </g>
              <g>
                <path class="cls-4" d="m404.21,229.2c-4.3,5.79-4.3,13.2-4.3,13.2,0,0,6.99-1.97,11.29-7.75,4.3-5.79,4.3-13.2,4.3-13.2,0,0-6.99,1.97-11.29,7.75Z"/>
                <path class="cls-4" d="m394.8,229.2c4.3,5.79,4.3,13.2,4.3,13.2,0,0-6.99-1.97-11.29-7.75-4.3-5.79-4.3-13.2-4.3-13.2,0,0,6.99,1.97,11.29,7.75Z"/>
              </g>
              <g>
                <path class="cls-4" d="m483.96,239.87c-4.3,5.79-4.3,13.2-4.3,13.2,0,0,6.99-1.97,11.29-7.75,4.3-5.79,4.3-13.2,4.3-13.2,0,0-6.99,1.97-11.29,7.75Z"/>
                <path class="cls-4" d="m474.56,239.87c4.3,5.79,4.3,13.2,4.3,13.2,0,0-6.99-1.97-11.29-7.75-4.3-5.79-4.3-13.2-4.3-13.2,0,0,6.99,1.97,11.29,7.75Z"/>
              </g>
            </g>
            <g>
              <g>
                <path class="cls-4" d="m149.41,172.68v46.77h26.93s0-27.53,0-39.21"/>
                <path class="cls-4" d="m183.98,158.1l.88,11.98-2.72,16.18c-1.75.9-2.9,2.76-2.79,4.85.14,2.84,2.56,5.03,5.4,4.89,2.84-.14,5.03-2.56,4.89-5.41-.05-.93-.34-1.79-.81-2.52l2.62-17.02-.6-12.21"/>
                <path class="cls-4" d="m150.06,138.53l-8.08,5.1-2.05,13.84c-1.6,1.14-2.46,3.15-2.05,5.2.56,2.79,3.27,4.6,6.06,4.04,2.79-.56,4.6-3.27,4.04-6.06-.18-.92-.6-1.72-1.17-2.38l.86-9.56,6.22-4.37"/>
                <path class="cls-4" d="m174.48,129.92c-5.77-1.89-13.16-1.5-18.9.39-2.99.99-5.44,2.67-8.08,4.34l9.45,14.34-8.8,22.8,3.91,2.8c5.97,6.39,15.15,8.67,23.42,5.81l1.81-.45,5.74-22.31,10.73,1.66c-.71-9.34-.55-16.08-6.1-21.63,0,0-4.19-3.77-6.58-5.06"/>
                <g>
                  <line class="cls-4" x1="185.15" y1="149.79" x2="183.03" y2="157.63"/>
                  <line class="cls-4" x1="159.47" y1="141.38" x2="156.95" y2="148.98"/>
                </g>
                <line class="cls-4" x1="162.87" y1="190" x2="162.87" y2="219.45"/>
                <path class="cls-4" d="m140.69,228.37c0-4.71,8.89-8.53,14.81-8.53,5.92,0,6.63,3.82,6.63,8.53h-21.44Z"/>
                <path class="cls-4" d="m185.06,228.37c0-4.71-8.89-8.53-14.81-8.53-5.92,0-6.63,3.82-6.63,8.53h21.44Z"/>
                <path class="cls-4" d="m173.51,99.42c4.23-5.92,11.34-8.77,17.75-6.52l1.62.57c6.36,2.23,10.18,8.31,9.8,16.09"/>
                <path class="cls-4" d="m168.29,110.39c-6.28-3.62-9.93-7.2-9.12-9.52.89-2.54,6.91-2.92,15.16-1.39,4.21.78,9,2.06,13.98,3.81,4.85,1.7,9.28,3.63,13,5.59,7.58,4,12.18,8.14,11.27,10.71-.83,2.36-6.11,2.86-13.51,1.68"/>
                <path class="cls-4" d="m169.48,111.12c-1.73-.61-2.64-2.5-2.03-4.23.61-1.73,2.5-2.64,4.23-2.03"/>
                <path class="cls-4" d="m197.83,121.06c1.73.61,3.62-.3,4.23-2.03.61-1.73-.3-3.62-2.03-4.23"/>
                <path class="cls-4" d="m182.46,128.87l-1.09,3.11c-.04.11-.08.21-.13.31-.75,1.63-2.61,2.47-4.35,1.93-.04-.01-.07-.02-.11-.04s-.07-.03-.11-.04c-1.7-.66-2.63-2.48-2.19-4.22.03-.11.06-.22.1-.32l1.27-3.51"/>
                <path class="cls-4" d="m200.97,112.07c-.05.16-.1.32-.16.48l-2.3,6.56c-.57,1.61-1.39,3.06-2.41,4.32-2.83,3.51-7.18,5.52-11.7,5.39-1.46-.04-2.94-.3-4.4-.81l-.96-.34c-1.45-.51-2.77-1.22-3.94-2.1-3.63-2.74-5.77-7.05-5.77-11.59,0-1.59.26-3.22.82-4.81l2.3-6.56c.05-.13.09-.25.14-.38"/>
                <line class="cls-4" x1="182.39" y1="114.54" x2="181.71" y2="116.5"/>
                <line class="cls-4" x1="191.81" y1="117.84" x2="191.12" y2="119.8"/>
                <path class="cls-4" d="m200.97,112.07s-6.76-3.01-14.02-5.56c-8.52-2.99-14.34-4.27-14.34-4.27"/>
                <path class="cls-4" d="m181.48,110.59c.62-.36,1.38-.47,2.08-.3.7.17,1.32.62,1.7,1.22"/>
                <path class="cls-4" d="m194.77,115.25c-.26-.67-.79-1.23-1.44-1.53-.65-.3-1.42-.34-2.09-.11"/>
                <path class="cls-4" d="m182.77,121.44s1.53,2.76,4.17,1.67"/>
              </g>
              <path class="cls-5" d="m210.94,230.81l.79-7.39-17.06-12.28c-2.63-1.89-2.86-4.83-.51-6.56l8.63-6.39c2.34-1.73,6.37-1.61,9,.28l17.06,12.28-.75,7.05"/>
              <polyline class="cls-5" points="199.04 201.8 220.87 217.51 220.12 224.57"/>
              <path class="cls-4" d="m198.42,201.44s-28.35-20.4-50.98-36.69"/>
              <path class="cls-4" d="m138.82,158.54c-10.91-7.85-18.92-13.62-18.92-13.62"/>
            </g>
          </g>
        </g>
      </g>
      <rect class="cls-5" x=".98" y=".98" width="505.04" height="306.31" rx="11.79" ry="11.79"/>
    </g>
  </g>
</svg>