<?xml version="1.0" encoding="utf-8"?>
<!-- Generator: Adobe Illustrator 27.2.0, SVG Export Plug-In . SVG Version: 6.00 Build 0)  -->
<svg version="1.1" id="Layer_1" xmlns="http://www.w3.org/2000/svg" xmlns:xlink="http://www.w3.org/1999/xlink" x="0px" y="0px"
	 viewBox="0 0 1100 200" style="enable-background:new 0 0 1100 200;" xml:space="preserve">
<style type="text/css">
	.st0{fill:#FFFFFF;}
</style>
<g>
	<g>
		<g>
			<g>
				<path class="st0" d="M1037.94,79.53c0.34,0,0.68-0.13,0.93-0.38l18.83-18.57c0.52-0.52,0.53-1.36,0.01-1.88
					s-1.36-0.53-1.88-0.01L1037,77.25c-0.52,0.52-0.53,1.36-0.01,1.88C1037.25,79.4,1037.59,79.53,1037.94,79.53z"/>
			</g>
			<g>
				<path class="st0" d="M974.89,141.71c0.34,0,0.68-0.13,0.93-0.38l18.84-18.58c0.52-0.52,0.53-1.36,0.01-1.88
					s-1.36-0.53-1.88-0.01l-18.84,18.58c-0.52,0.52-0.53,1.36-0.01,1.88C974.2,141.58,974.55,141.71,974.89,141.71z"/>
			</g>
			<g>
				<path class="st0" d="M994.04,79.23c0.34,0,0.68-0.13,0.93-0.38c0.52-0.52,0.53-1.36,0.01-1.88L976.4,58.12
					c-0.52-0.52-1.36-0.53-1.88-0.01s-0.53,1.36-0.01,1.88l18.58,18.84C993.35,79.1,993.69,79.23,994.04,79.23z"/>
			</g>
			<g>
				<path class="st0" d="M1056.21,142.28c0.34,0,0.68-0.13,0.93-0.38c0.52-0.52,0.53-1.36,0.01-1.88l-18.58-18.84
					c-0.52-0.52-1.36-0.53-1.88-0.01s-0.53,1.36-0.01,1.88l18.58,18.84C1055.52,142.14,1055.86,142.28,1056.21,142.28z"/>
			</g>
			<g>
				<path class="st0" d="M1015.6,132.37c-8.65-0.06-16.76-3.48-22.82-9.63c-6.08-6.17-9.39-14.32-9.32-22.97
					c0.05-8.64,3.48-16.75,9.63-22.82l0,0c6.16-6.07,14.32-9.37,22.95-9.31c8.64,0.04,16.75,3.46,22.83,9.63
					c6.07,6.15,9.38,14.31,9.32,22.97c-0.06,8.64-3.48,16.75-9.63,22.82c-0.03,0.03-0.07,0.06-0.1,0.09
					c-6.08,5.96-14.1,9.22-22.61,9.22C1015.77,132.37,1015.69,132.37,1015.6,132.37z M1045.54,100.21
					c0.06-7.94-2.98-15.43-8.55-21.08c-5.58-5.66-13.02-8.8-20.95-8.84c-0.08,0-0.15,0-0.23,0c-7.84,0-15.23,3.03-20.83,8.55
					c-5.65,5.57-8.79,13.01-8.84,20.95c-0.07,7.93,2.97,15.42,8.55,21.08c5.56,5.65,13,8.79,20.94,8.84
					c7.94,0.04,15.42-2.98,21.07-8.55c0.03-0.03,0.07-0.06,0.1-0.09C1042.38,115.5,1045.49,108.1,1045.54,100.21z"/>
			</g>
			<g>
				<path class="st0" d="M1073.33,101.73c0.73,0,1.33-0.59,1.33-1.32c0.01-0.74-0.59-1.33-1.32-1.34l-26.46-0.18
					c-0.75,0.01-1.33,0.59-1.34,1.32c-0.01,0.74,0.59,1.33,1.32,1.34L1073.33,101.73L1073.33,101.73z"/>
			</g>
			<g>
				<path class="st0" d="M984.8,101.11c0.73,0,1.33-0.59,1.33-1.32c0-0.74-0.59-1.33-1.32-1.34l-26.47-0.18
					c-0.72,0.01-1.34,0.59-1.34,1.32c-0.01,0.74,0.59,1.33,1.32,1.34L984.8,101.11C984.79,101.11,984.8,101.11,984.8,101.11z"/>
			</g>
			<g>
				<path class="st0" d="M1016.05,70.3c0.73,0,1.33-0.59,1.33-1.32l0.18-26.46c0-0.73-0.59-1.33-1.32-1.34
					c-0.77-0.02-1.34,0.59-1.34,1.32l-0.18,26.46C1014.71,69.69,1015.3,70.29,1016.05,70.3C1016.04,70.3,1016.04,70.3,1016.05,70.3z
					"/>
			</g>
			<g>
				<path class="st0" d="M1015.43,158.83c0.73,0,1.33-0.59,1.33-1.32l0.18-26.46c0.01-0.73-0.59-1.33-1.32-1.34
					c-0.73,0.02-1.34,0.59-1.34,1.32l-0.18,26.46C1014.1,158.22,1014.69,158.82,1015.43,158.83L1015.43,158.83z"/>
			</g>
		</g>
		<g>
			<g>
				<path class="st0" d="M900.85,167.49c-0.25-0.25-0.39-0.59-0.39-0.94l-0.11-133.07c0-0.74,0.59-1.33,1.33-1.33l22.21-0.02l0,0
					c0.35,0,0.69,0.14,0.94,0.39s0.39,0.59,0.39,0.94l0.11,133.07c0,0.74-0.59,1.33-1.33,1.33l-22.21,0.02l0,0
					C901.44,167.88,901.1,167.74,900.85,167.49z M922.56,34.79l-19.55,0.02l0.11,130.41l19.55-0.02L922.56,34.79z"/>
			</g>
			<g>
				<path class="st0" d="M901.72,83.41L901.72,83.41l22.21-0.02c0.74,0,1.33-0.6,1.33-1.33s-0.6-1.33-1.33-1.33l0,0l-22.21,0.02
					c-0.74,0-1.33,0.6-1.33,1.33C900.39,82.81,900.98,83.41,901.72,83.41z"/>
			</g>
			<g>
				<path class="st0" d="M901.76,128.12L901.76,128.12l22.21-0.02c0.74,0,1.33-0.6,1.33-1.33s-0.6-1.33-1.33-1.33l0,0l-22.21,0.02
					c-0.74,0-1.33,0.6-1.33,1.33C900.43,127.53,901.02,128.12,901.76,128.12z"/>
			</g>
			<g>
				<path class="st0" d="M901.24,80.31c-0.33-0.09-8.21-2.36-13.18-9.02c-4.97-6.65-5.03-15-5.03-15.35c0-0.42,0.19-0.81,0.53-1.06
					c0.33-0.25,0.76-0.33,1.16-0.22c0.33,0.09,8.21,2.36,13.18,9.02l0,0c4.97,6.65,5.03,15,5.03,15.35c0,0.42-0.19,0.81-0.53,1.06
					c-0.23,0.18-0.52,0.27-0.8,0.27C901.48,80.36,901.36,80.34,901.24,80.31z M890.19,69.69c3.05,4.09,7.47,6.36,9.93,7.38
					c-0.31-2.7-1.29-7.69-4.36-11.81l0,0c-3.05-4.09-7.47-6.36-9.93-7.38C886.14,60.58,887.12,65.58,890.19,69.69z M896.82,64.47
					L896.82,64.47L896.82,64.47z"/>
			</g>
			<g>
				<path class="st0" d="M901.29,134.22c-0.33-0.09-8.21-2.36-13.18-9.02c-4.97-6.65-5.03-15-5.03-15.35c0-0.42,0.19-0.81,0.53-1.06
					c0.33-0.25,0.76-0.33,1.16-0.22c0.33,0.09,8.21,2.36,13.18,9.02c4.97,6.65,5.03,15,5.03,15.35c0,0.42-0.19,0.81-0.53,1.06
					c-0.23,0.18-0.52,0.27-0.8,0.27C901.53,134.27,901.41,134.26,901.29,134.22z M890.24,123.61c3.05,4.09,7.47,6.36,9.93,7.38
					c-0.31-2.7-1.29-7.69-4.36-11.81c-3.06-4.09-7.48-6.36-9.94-7.38C886.18,114.49,887.15,119.48,890.24,123.61z"/>
			</g>
			<g>
				<path class="st0" d="M923.25,97.92c-0.33-0.25-0.53-0.64-0.53-1.06c0-0.35,0.05-8.7,5.01-15.36l0,0
					c4.97-6.67,12.84-8.95,13.17-9.05c0.4-0.11,0.83-0.03,1.16,0.22c0.33,0.25,0.53,0.64,0.53,1.06c0,0.35-0.05,8.7-5.01,15.36
					c-4.96,6.67-12.84,8.95-13.17,9.05c-0.12,0.03-0.24,0.05-0.36,0.05C923.77,98.19,923.49,98.1,923.25,97.92z M929.87,83.09
					c-3.07,4.12-4.04,9.13-4.34,11.82c2.46-1.02,6.86-3.29,9.92-7.4c3.07-4.12,4.04-9.12,4.34-11.82
					C937.33,76.71,932.92,78.99,929.87,83.09z"/>
			</g>
			<g>
				<path class="st0" d="M923.29,146.07c-0.33-0.25-0.53-0.64-0.53-1.06c0-0.35,0.05-8.7,5.01-15.36
					c4.96-6.67,12.83-8.95,13.17-9.05c0.4-0.11,0.83-0.03,1.16,0.22c0.33,0.25,0.53,0.64,0.53,1.06c0,0.35-0.05,8.7-5.01,15.36
					c-4.96,6.67-12.84,8.95-13.17,9.05c-0.12,0.03-0.24,0.05-0.36,0.05C923.81,146.34,923.53,146.24,923.29,146.07z M929.91,131.23
					c-3.07,4.12-4.04,9.13-4.34,11.82c2.46-1.02,6.86-3.29,9.92-7.4c3.07-4.12,4.04-9.12,4.34-11.82
					C937.37,124.86,932.96,127.14,929.91,131.23z"/>
			</g>
		</g>
		<g>
			<g>
				<path class="st0" d="M839.76,167.49c-0.25-0.25-0.39-0.59-0.39-0.94l-0.11-133.07c0-0.74,0.59-1.33,1.33-1.33l22.21-0.02l0,0
					c0.35,0,0.69,0.14,0.94,0.39s0.39,0.59,0.39,0.94l0.11,133.07c0,0.74-0.59,1.33-1.33,1.33l-22.21,0.02l0,0
					C840.35,167.88,840.01,167.74,839.76,167.49z M861.47,34.79l-19.55,0.02l0.11,130.41l19.55-0.02L861.47,34.79z"/>
			</g>
			<g>
				<path class="st0" d="M840.63,83.41L840.63,83.41l22.21-0.02c0.74,0,1.33-0.6,1.33-1.33s-0.6-1.33-1.33-1.33l0,0l-22.21,0.02
					c-0.74,0-1.33,0.6-1.33,1.33C839.3,82.81,839.9,83.41,840.63,83.41z"/>
			</g>
			<g>
				<path class="st0" d="M840.67,128.12L840.67,128.12l22.21-0.02c0.74,0,1.33-0.6,1.33-1.33s-0.6-1.33-1.33-1.33l0,0l-22.21,0.02
					c-0.74,0-1.33,0.6-1.33,1.33C839.34,127.53,839.94,128.12,840.67,128.12z"/>
			</g>
			<g>
				<path class="st0" d="M840.16,80.31c-0.33-0.09-8.21-2.36-13.18-9.02c-4.97-6.65-5.03-15-5.03-15.35c0-0.42,0.19-0.81,0.53-1.06
					c0.33-0.25,0.76-0.33,1.16-0.22c0.33,0.09,8.21,2.36,13.18,9.02l0,0c4.97,6.65,5.03,15,5.03,15.35c0,0.42-0.19,0.81-0.53,1.06
					c-0.23,0.18-0.52,0.27-0.8,0.27C840.4,80.36,840.28,80.34,840.16,80.31z M829.11,69.69c3.05,4.09,7.47,6.36,9.93,7.38
					c-0.31-2.7-1.29-7.69-4.36-11.81l0,0c-3.05-4.09-7.47-6.36-9.93-7.38C825.06,60.58,826.03,65.58,829.11,69.69z M835.74,64.47
					L835.74,64.47L835.74,64.47z"/>
			</g>
			<g>
				<path class="st0" d="M840.2,134.22c-0.33-0.09-8.21-2.36-13.18-9.02c-4.97-6.65-5.03-15-5.03-15.35c0-0.42,0.19-0.81,0.53-1.06
					c0.33-0.25,0.76-0.33,1.16-0.22c0.33,0.09,8.21,2.36,13.18,9.02c4.97,6.65,5.03,15,5.03,15.35c0,0.42-0.19,0.81-0.53,1.06
					c-0.23,0.18-0.52,0.27-0.8,0.27C840.44,134.27,840.32,134.26,840.2,134.22z M829.15,123.61c3.05,4.09,7.47,6.36,9.93,7.38
					c-0.31-2.7-1.29-7.69-4.36-11.81c-3.05-4.09-7.47-6.36-9.93-7.38C825.1,114.49,826.08,119.49,829.15,123.61z"/>
			</g>
			<g>
				<path class="st0" d="M862.17,97.92c-0.33-0.25-0.53-0.64-0.53-1.06c0-0.35,0.05-8.7,5.01-15.36l0,0
					c4.96-6.67,12.83-8.95,13.17-9.05c0.4-0.11,0.83-0.03,1.16,0.22c0.33,0.25,0.53,0.64,0.53,1.06c0,0.35-0.05,8.7-5.01,15.36
					c-4.96,6.67-12.84,8.95-13.17,9.05c-0.12,0.03-0.24,0.05-0.36,0.05C862.68,98.19,862.4,98.1,862.17,97.92z M868.78,83.09
					c-3.07,4.12-4.04,9.13-4.34,11.82c2.46-1.02,6.86-3.29,9.92-7.4c3.07-4.12,4.04-9.12,4.34-11.82
					C876.25,76.71,871.83,78.99,868.78,83.09z"/>
			</g>
			<g>
				<path class="st0" d="M862.21,146.07c-0.33-0.25-0.53-0.64-0.53-1.06c0-0.35,0.05-8.7,5.01-15.36l0,0
					c4.96-6.67,12.83-8.95,13.17-9.05c0.4-0.11,0.83-0.03,1.16,0.22c0.33,0.25,0.53,0.64,0.53,1.06c0,0.35-0.05,8.7-5.01,15.36
					c-4.96,6.67-12.84,8.95-13.17,9.05c-0.12,0.03-0.24,0.05-0.36,0.05C862.73,146.34,862.44,146.24,862.21,146.07z M868.83,131.23
					L868.83,131.23c-3.07,4.12-4.04,9.13-4.34,11.82c2.46-1.02,6.86-3.29,9.92-7.4c3.07-4.12,4.04-9.12,4.34-11.82
					C876.29,124.86,871.87,127.14,868.83,131.23z"/>
			</g>
		</g>
		<g>
			<path class="st0" d="M947.95,166.55V33.45c0-0.74,0.6-1.33,1.33-1.33h133.09c0.74,0,1.33,0.6,1.33,1.33v133.09
				c0,0.74-0.6,1.33-1.33,1.33H949.28C948.55,167.88,947.95,167.28,947.95,166.55z M1081.05,34.78H950.61v130.43h130.43V34.78
				H1081.05z"/>
		</g>
		<g>
			<path class="st0" d="M814.86,166.55V33.45c0-0.74,0.6-1.33,1.33-1.33h133.09c0.73,0,1.33,0.6,1.33,1.33v133.09
				c0,0.74-0.6,1.33-1.33,1.33H816.19C815.45,167.88,814.86,167.28,814.86,166.55z M947.95,34.78H817.52v130.43h130.43V34.78z"/>
		</g>
		<g>
			<path class="st0" d="M651.38,167.87c0.73,0,1.33-0.6,1.33-1.33V154.9c0-0.74-0.6-1.33-1.33-1.33s-1.33,0.6-1.33,1.33v11.64
				C650.05,167.28,650.64,167.87,651.38,167.87z"/>
		</g>
		<g>
			<path class="st0" d="M632.87,167.87c0.73,0,1.33-0.6,1.33-1.33v-7.55c0-0.74-0.6-1.33-1.33-1.33c-0.74,0-1.33,0.6-1.33,1.33v7.55
				C631.54,167.28,632.14,167.87,632.87,167.87z"/>
		</g>
		<g>
			<path class="st0" d="M669.88,167.87c0.74,0,1.33-0.6,1.33-1.33v-7.55c0-0.74-0.6-1.33-1.33-1.33c-0.73,0-1.33,0.6-1.33,1.33v7.55
				C668.55,167.28,669.15,167.87,669.88,167.87z"/>
		</g>
		<g>
			<path class="st0" d="M586.06,167.87c0.73,0,1.33-0.6,1.33-1.33V154.9c0-0.74-0.6-1.33-1.33-1.33c-0.74,0-1.33,0.6-1.33,1.33
				v11.64C584.73,167.28,585.33,167.87,586.06,167.87z"/>
		</g>
		<g>
			<path class="st0" d="M604.57,167.87c0.74,0,1.33-0.6,1.33-1.33v-7.55c0-0.74-0.6-1.33-1.33-1.33c-0.73,0-1.33,0.6-1.33,1.33v7.55
				C603.24,167.28,603.84,167.87,604.57,167.87z"/>
		</g>
		<g>
			<path class="st0" d="M567.56,167.87c0.74,0,1.33-0.6,1.33-1.33v-7.55c0-0.74-0.6-1.33-1.33-1.33c-0.73,0-1.33,0.6-1.33,1.33v7.55
				C566.23,167.28,566.82,167.87,567.56,167.87z"/>
		</g>
		<g>
			<g>
				<path class="st0" d="M576.24,95.74c0-23.42,19.06-42.48,42.48-42.48s42.48,19.06,42.48,42.48s-19.06,42.48-42.48,42.48
					S576.24,119.16,576.24,95.74z M578.9,95.74c0,21.96,17.86,39.82,39.82,39.82s39.82-17.86,39.82-39.82s-17.86-39.82-39.82-39.82
					S578.9,73.78,578.9,95.74z"/>
			</g>
			<g>
				<path class="st0" d="M618.72,127.93c0.34,0,0.68-0.13,0.94-0.39c0.52-0.52,0.52-1.36,0-1.88l-9.28-9.28
					c-0.25-0.25-0.59-0.39-0.94-0.39h-7.14c-0.73,0-1.33,0.6-1.33,1.33s0.6,1.33,1.33,1.33h6.58l8.89,8.89
					C618.04,127.8,618.38,127.93,618.72,127.93z"/>
			</g>
			<g>
				<path class="st0" d="M618.72,114.77c0.34,0,0.68-0.13,0.94-0.39l8.89-8.89h6.58c0.74,0,1.33-0.6,1.33-1.33
					c0-0.74-0.6-1.33-1.33-1.33H628c-0.35,0-0.69,0.14-0.94,0.39l-9.28,9.28c-0.52,0.52-0.52,1.36,0,1.88
					C618.04,114.64,618.38,114.77,618.72,114.77z"/>
			</g>
			<g>
				<path class="st0" d="M618.72,167.88c0.73,0,1.33-0.6,1.33-1.33v-69.2c0-0.74-0.6-1.33-1.33-1.33s-1.33,0.6-1.33,1.33v69.19
					C617.39,167.28,617.99,167.88,618.72,167.88z"/>
			</g>
		</g>
		<g>
			<g>
				<path class="st0" d="M592.38,56.69c0.34,0,0.68-0.13,0.93-0.38l8.53-8.41c0.52-0.52,0.53-1.36,0.01-1.88s-1.36-0.53-1.88-0.01
					l-8.53,8.41c-0.52,0.52-0.53,1.36-0.01,1.88C591.69,56.56,592.03,56.69,592.38,56.69z"/>
			</g>
			<g>
				<path class="st0" d="M563.82,84.85c0.34,0,0.68-0.13,0.93-0.38l8.54-8.42c0.52-0.52,0.53-1.36,0.01-1.88s-1.36-0.53-1.88-0.01
					l-8.54,8.42c-0.52,0.52-0.53,1.36-0.01,1.88C563.13,84.72,563.48,84.85,563.82,84.85z"/>
			</g>
			<g>
				<path class="st0" d="M572.49,56.55c0.34,0,0.68-0.13,0.93-0.38c0.52-0.52,0.53-1.36,0.01-1.88l-8.42-8.54
					c-0.52-0.52-1.36-0.53-1.88-0.01s-0.53,1.36-0.01,1.88l8.42,8.54C571.8,56.42,572.15,56.55,572.49,56.55z"/>
			</g>
			<g>
				<path class="st0" d="M580.71,80.52c0.67,0,1.24-0.5,1.32-1.18c0.09-0.73-0.44-1.39-1.17-1.48c-2.9-0.34-5.51-1.62-7.56-3.7
					c-2.39-2.42-3.69-5.63-3.66-9.03c0.02-3.4,1.37-6.59,3.79-8.98s5.62-3.72,9.03-3.66c3.4,0.02,6.59,1.36,8.98,3.79
					c1.16,1.18,2.07,2.54,2.69,4.05c0.28,0.68,1.06,1,1.74,0.72s1-1.06,0.72-1.74c-0.76-1.83-1.85-3.48-3.26-4.9
					c-2.89-2.93-6.75-4.56-10.86-4.58c-4.09-0.05-7.98,1.54-10.91,4.43s-4.55,6.74-4.58,10.85c-0.04,4.11,1.54,7.99,4.43,10.92
					c2.44,2.48,5.69,4.07,9.14,4.47C580.6,80.52,580.66,80.52,580.71,80.52z"/>
			</g>
			<g>
				<path class="st0" d="M568.31,66.46c0.73,0,1.33-0.59,1.33-1.32s-0.59-1.33-1.32-1.34l-11.99-0.08
					c-0.72,0.01-1.33,0.59-1.34,1.32s0.59,1.33,1.32,1.34L568.31,66.46C568.3,66.46,568.31,66.46,568.31,66.46z"/>
			</g>
			<g>
				<path class="st0" d="M582.46,52.51c0.73,0,1.33-0.59,1.33-1.32l0.08-11.99c0.01-0.73-0.59-1.33-1.32-1.34h-0.01
					c-0.73,0-1.33,0.59-1.33,1.32l-0.08,11.99C581.13,51.9,581.72,52.5,582.46,52.51L582.46,52.51z"/>
			</g>
		</g>
		<g>
			<path class="st0" d="M751.48,90.82c-0.03-0.4-0.05-0.81-0.05-1.22c0-9.67,7.87-17.54,17.54-17.54c6.7,0,12.79,3.85,15.72,9.76
				c2.38-2,5.39-3.11,8.54-3.11c6.82,0,12.49,5.11,13.2,11.88c0.04,0.38-0.08,0.75-0.34,1.03c-0.25,0.28-0.61,0.44-0.99,0.44h-52.3
				C752.1,92.06,751.52,91.51,751.48,90.82z M793.23,81.37c-3.06,0-5.98,1.33-7.99,3.64c-0.31,0.35-0.79,0.52-1.25,0.43
				s-0.85-0.41-1.01-0.86c-2.11-5.9-7.74-9.86-14.01-9.86c-8.14,0-14.77,6.56-14.88,14.67h49.43
				C802.37,84.73,798.17,81.37,793.23,81.37z"/>
		</g>
		<g>
			<path class="st0" d="M693.53,64.69c-0.03-0.4-0.05-0.81-0.05-1.22c0-9.67,7.87-17.54,17.54-17.54c6.7,0,12.79,3.85,15.72,9.76
				c2.38-2,5.39-3.11,8.54-3.11c6.82,0,12.49,5.11,13.2,11.88c0.04,0.38-0.08,0.75-0.34,1.03c-0.25,0.28-0.61,0.44-0.99,0.44h-52.3
				C694.15,65.93,693.57,65.39,693.53,64.69z M735.28,55.24c-3.06,0-5.98,1.33-7.99,3.64c-0.31,0.36-0.79,0.52-1.25,0.43
				s-0.85-0.41-1.01-0.86c-2.11-5.9-7.74-9.86-14.01-9.86c-8.14,0-14.77,6.56-14.88,14.67h49.43
				C744.42,58.6,740.23,55.24,735.28,55.24z"/>
		</g>
		<g>
			<path class="st0" d="M681.76,166.55V33.45c0-0.74,0.6-1.33,1.33-1.33h133.09c0.74,0,1.33,0.6,1.33,1.33v133.09
				c0,0.74-0.6,1.33-1.33,1.33H683.09C682.36,167.88,681.76,167.28,681.76,166.55z M814.86,34.78H684.42v130.43h130.43V34.78H814.86
				z"/>
		</g>
		<g>
			<path class="st0" d="M548.67,166.55V33.45c0-0.74,0.6-1.33,1.33-1.33h133.09c0.74,0,1.33,0.6,1.33,1.33v133.09
				c0,0.74-0.6,1.33-1.33,1.33H550C549.27,167.88,548.67,167.28,548.67,166.55z M681.76,34.78H551.33v130.43h130.43V34.78z"/>
		</g>
		<g>
			<g>
				<path class="st0" d="M766.03,131.59c0.27,0,0.55-0.08,0.78-0.26c0.59-0.43,0.72-1.27,0.29-1.86l-6.56-9
					c-0.43-0.59-1.27-0.72-1.86-0.29c-0.59,0.43-0.72,1.27-0.29,1.86l6.56,9C765.22,131.4,765.62,131.59,766.03,131.59z"/>
			</g>
			<g>
				<g>
					<g>
						<path class="st0" d="M816.19,167.88c0.33,0,0.67-0.13,0.93-0.38c0.53-0.51,0.54-1.36,0.03-1.88l-49.8-51.15
							c-0.25-0.26-0.59-0.4-0.94-0.4c-0.37,0.02-0.7,0.14-0.95,0.39c-4.32,4.32-10.07,6.7-16.18,6.7s-11.86-2.38-16.18-6.7
							c-0.25-0.25-0.58-0.42-0.96-0.39c-0.36,0-0.7,0.15-0.95,0.41l-49.04,51.15c-0.51,0.53-0.49,1.37,0.04,1.88
							c0.53,0.51,1.37,0.49,1.88-0.04l48.13-50.2c4.7,4.23,10.71,6.55,17.08,6.55s12.39-2.32,17.09-6.55l48.89,50.21
							C815.5,167.74,815.84,167.88,816.19,167.88z"/>
					</g>
				</g>
				<g>
					<path class="st0" d="M749.26,136.75c0.73,0,1.33-0.6,1.33-1.33v-12.28c0-0.74-0.6-1.33-1.33-1.33s-1.33,0.6-1.33,1.33v12.28
						C747.93,136.16,748.52,136.75,749.26,136.75z"/>
				</g>
				<g>
					<path class="st0" d="M732.49,131.59c0.41,0,0.82-0.19,1.08-0.55l6.67-9.15c0.43-0.59,0.3-1.43-0.29-1.86s-1.43-0.3-1.86,0.29
						l-6.67,9.15c-0.43,0.59-0.3,1.43,0.29,1.86C731.94,131.51,732.22,131.59,732.49,131.59z"/>
				</g>
				<g>
					<path class="st0" d="M732.14,116.73h34.25c0.73,0,1.33-0.6,1.33-1.33c0-0.74-0.6-1.33-1.33-1.33h-34.25
						c-0.73,0-1.33,0.6-1.33,1.33C730.81,116.13,731.4,116.73,732.14,116.73z"/>
				</g>
			</g>
		</g>
	</g>
	<g>
		<g>
			<g>
				<path class="st0" d="M429.68,166.55V77c0-0.74,0.6-1.33,1.33-1.33H536.7c0.74,0,1.33,0.6,1.33,1.33v89.55
					c0,0.74-0.6,1.33-1.33,1.33H431.01C430.27,167.88,429.68,167.28,429.68,166.55z M535.36,78.33H432.34v86.89h103.02V78.33z"/>
			</g>
			<g>
				<path class="st0" d="M467.78,166.55v-43.38c0-6.98,5.68-12.65,12.65-12.65h6.84c6.98,0,12.65,5.68,12.65,12.65v43.38
					c0,0.74-0.6,1.33-1.33,1.33h-29.48C468.37,167.88,467.78,167.28,467.78,166.55z M497.26,123.16c0-5.51-4.48-9.99-9.99-9.99
					h-6.84c-5.51,0-9.99,4.48-9.99,9.99v42.05h26.82L497.26,123.16L497.26,123.16z"/>
			</g>
			<g>
				<path class="st0" d="M419.25,76.97c-0.17-0.57,0.06-1.18,0.56-1.5l63.32-40.21c0.44-0.28,0.99-0.28,1.43,0l63.32,40.21
					c0.5,0.32,0.73,0.93,0.56,1.5s-0.69,0.96-1.28,0.96H420.53C419.94,77.93,419.42,77.54,419.25,76.97z M483.85,37.96l-58.74,37.31
					H542.6L483.85,37.96z"/>
			</g>
		</g>
		<g>
			<path class="st0" d="M415.57,166.55V33.45c0-0.74,0.6-1.33,1.33-1.33H550c0.73,0,1.33,0.6,1.33,1.33v133.09
				c0,0.74-0.6,1.33-1.33,1.33H416.91C416.17,167.88,415.57,167.28,415.57,166.55z M548.67,34.78H418.24v130.43h130.43V34.78z"/>
		</g>
		<g>
			<g>
				<path class="st0" d="M313.72,116.44c-9.52-1.04-18.14-5.17-24.92-11.97l-3.54-3.54c-0.52-0.52-0.52-1.36,0-1.88l3.54-3.54
					c6.7-6.7,15.55-10.94,24.93-11.95c12.64-1.39,25.04,2.96,34.04,11.95l3.54,3.54c0.52,0.52,0.52,1.36,0,1.88l-3.54,3.54
					c-7.89,7.9-18.43,12.22-29.45,12.22C316.79,116.69,315.26,116.61,313.72,116.44z M345.88,97.4
					c-8.42-8.41-20.04-12.49-31.87-11.18c-8.78,0.94-17.07,4.92-23.34,11.18l-2.59,2.59l2.59,2.6c6.35,6.36,14.42,10.24,23.33,11.21
					c11.84,1.29,23.46-2.79,31.88-11.21l2.59-2.59L345.88,97.4z"/>
			</g>
			<g>
				<path class="st0" d="M349.42,100.94l-3.54-3.54c-8.99-8.99-13.35-21.4-11.97-34.05c1.04-9.39,5.29-18.24,11.97-24.91l3.54-3.54
					c0.52-0.52,1.36-0.52,1.88,0l3.54,3.54c6.7,6.7,10.94,15.55,11.95,24.92c1.39,12.65-2.96,25.05-11.95,34.04l-3.54,3.54
					c-0.26,0.26-0.6,0.39-0.94,0.39C350.02,101.33,349.68,101.2,349.42,100.94z M347.76,40.33c-6.26,6.25-10.24,14.53-11.21,23.31
					c-1.29,11.84,2.79,23.46,11.21,31.88l2.59,2.59l2.59-2.59c8.41-8.41,12.49-20.02,11.18-31.87c-0.96-8.9-4.82-16.97-11.18-23.32
					l-2.59-2.59L347.76,40.33z"/>
			</g>
			<g>
				<path class="st0" d="M345.88,97.4c-8.42-8.41-20.04-12.49-31.86-11.18c-0.45,0.05-0.9-0.14-1.18-0.49
					c-5.91-7.38-9.17-16.64-9.17-26.09v-5c0-0.74,0.6-1.33,1.33-1.33h4.99c9.46,0,18.72,3.25,26.08,9.15
					c0.35,0.28,0.54,0.73,0.49,1.18c-1.29,11.84,2.79,23.46,11.21,31.88c0.52,0.52,0.52,1.36,0,1.88c-0.26,0.26-0.6,0.39-0.94,0.39
					C346.48,97.79,346.14,97.66,345.88,97.4z M309.99,55.97h-3.66v3.67c0,8.73,2.81,16.97,8.14,23.86
					c8.81-0.82,17.49,1.16,24.93,5.54c-4.39-7.45-6.37-16.12-5.56-24.95C327.05,58.85,318.61,55.97,309.99,55.97z"/>
			</g>
			<g>
				<path class="st0" d="M352.95,104.47l-3.54-3.54c-0.25-0.25-0.39-0.59-0.39-0.94c0-0.35,0.14-0.69,0.39-0.94l3.54-3.54
					c8.99-8.99,21.39-13.34,34.03-11.95c9.37,1.01,18.23,5.25,24.92,11.95l3.54,3.54c0.52,0.52,0.52,1.36,0,1.88l-3.53,3.53
					c-6.67,6.68-15.52,10.94-24.91,11.97c-1.54,0.17-3.07,0.25-4.6,0.25C371.38,116.69,360.85,112.37,352.95,104.47z M410.03,97.4
					c-6.36-6.36-14.43-10.23-23.33-11.18c-11.84-1.31-23.45,2.77-31.86,11.18l-2.59,2.59l2.59,2.59
					c8.41,8.41,20.03,12.5,31.87,11.21c8.79-0.97,17.07-4.95,23.32-11.21l2.59-2.59L410.03,97.4z"/>
			</g>
			<g>
				<path class="st0" d="M352.95,97.4c-0.26-0.26-0.39-0.6-0.39-0.94c0-0.34,0.13-0.68,0.39-0.94c8.41-8.41,12.49-20.02,11.18-31.86
					c-0.05-0.45,0.14-0.9,0.49-1.18c7.38-5.91,16.64-9.17,26.09-9.17h5c0.73,0,1.33,0.6,1.33,1.33v5c0,9.45-3.25,18.71-9.16,26.09
					c-0.28,0.36-0.73,0.54-1.18,0.49c-11.84-1.31-23.45,2.77-31.86,11.18c-0.26,0.26-0.6,0.39-0.94,0.39
					C353.55,97.79,353.21,97.66,352.95,97.4z M386.25,83.5c5.32-6.89,8.14-15.13,8.14-23.86v-3.67h-3.67
					c-8.73,0-16.97,2.81-23.86,8.14c0.82,8.82-1.16,17.49-5.54,24.93c6.34-3.73,13.58-5.72,21.04-5.72
					C383.65,83.32,384.95,83.38,386.25,83.5z"/>
			</g>
			<g>
				<path class="st0" d="M364.63,137.52c-0.36-0.28-0.54-0.73-0.49-1.18c1.3-11.83-2.77-23.44-11.18-31.86l0,0l0,0
					c-0.52-0.52-0.52-1.36,0-1.88s1.36-0.52,1.88,0c8.41,8.41,20.03,12.5,31.88,11.21c0.45-0.05,0.9,0.14,1.18,0.49
					c5.9,7.35,9.15,16.62,9.15,26.08v4.99c0,0.74-0.6,1.33-1.33,1.33h-5C381.27,146.69,372,143.43,364.63,137.52z M394.39,140.36
					c0-8.62-2.88-17.06-8.12-23.85c-8.83,0.81-17.5-1.17-24.95-5.56c4.38,7.45,6.36,16.12,5.54,24.93
					c6.89,5.32,15.13,8.14,23.86,8.14h3.67L394.39,140.36L394.39,140.36z"/>
			</g>
			<g>
				<path class="st0" d="M349.42,165.09l-3.53-3.53c-6.8-6.78-10.94-15.4-11.97-24.92c-1.38-12.65,2.98-25.06,11.97-34.05l3.54-3.54
					c0.52-0.52,1.36-0.52,1.88,0l3.54,3.54c8.98,9,13.34,21.4,11.95,34.03c-1.01,9.38-5.25,18.24-11.95,24.93l-3.54,3.54
					c-0.26,0.26-0.6,0.39-0.94,0.39C350.02,165.48,349.68,165.35,349.42,165.09z M347.76,104.47c-8.41,8.41-12.5,20.03-11.21,31.88
					l0,0c0.97,8.91,4.84,16.97,11.21,23.33l2.59,2.59l2.59-2.59c6.27-6.27,10.24-14.56,11.18-23.34
					c1.3-11.83-2.77-23.44-11.18-31.86l-2.59-2.59L347.76,104.47z"/>
			</g>
			<g>
				<path class="st0" d="M303.67,145.36v-4.99c0-9.46,3.25-18.72,9.15-26.08c0.28-0.35,0.73-0.54,1.18-0.49
					c11.84,1.29,23.46-2.79,31.88-11.21c0.52-0.52,1.36-0.52,1.88,0c0.26,0.26,0.39,0.6,0.39,0.94c0,0.34-0.13,0.68-0.39,0.94
					c-8.41,8.41-12.5,20.03-11.21,31.88c0.05,0.45-0.14,0.9-0.49,1.18c-7.35,5.9-16.61,9.15-26.08,9.15H305
					C304.26,146.69,303.67,146.09,303.67,145.36z M339.39,110.96c-7.44,4.38-16.12,6.37-24.94,5.56
					c-5.24,6.79-8.12,15.23-8.12,23.85v3.66h3.66c8.62,0,17.06-2.88,23.85-8.12C333.03,127.08,335.01,118.41,339.39,110.96z"/>
			</g>
		</g>
		<g>
			<g>
				<g>
					<g>
						<path class="st0" d="M254.52,166.65c0.74,0,1.33-0.6,1.33-1.33V83.06c0-0.74-0.6-1.33-1.33-1.33c-0.74,0-1.33,0.6-1.33,1.33
							v82.25C253.19,166.05,253.79,166.65,254.52,166.65z"/>
					</g>
					<g>
						<path class="st0" d="M254.52,135.02c0.32,0,0.64-0.12,0.89-0.35l16.06-14.59c0.54-0.49,0.58-1.34,0.09-1.88
							s-1.34-0.58-1.88-0.09l-15.17,13.78l-15.17-13.78c-0.54-0.49-1.39-0.45-1.88,0.09c-0.49,0.54-0.45,1.39,0.09,1.88l16.06,14.59
							C253.88,134.9,254.2,135.02,254.52,135.02z"/>
					</g>
					<g>
						<path class="st0" d="M254.52,110.11c0.32,0,0.64-0.12,0.89-0.35l16.06-14.59c0.54-0.49,0.58-1.34,0.09-1.88
							s-1.34-0.58-1.88-0.09l-15.17,13.78L239.36,93.2c-0.54-0.49-1.39-0.45-1.88,0.09c-0.49,0.54-0.45,1.39,0.09,1.88l16.06,14.59
							C253.88,109.99,254.2,110.11,254.52,110.11z"/>
					</g>
				</g>
			</g>
			<g>
				<g>
					<g>
						<path class="st0" d="M180,166.65c0.74,0,1.33-0.6,1.33-1.33V83.06c0-0.74-0.6-1.33-1.33-1.33c-0.74,0-1.33,0.6-1.33,1.33
							v82.25C178.67,166.05,179.27,166.65,180,166.65z"/>
					</g>
					<g>
						<path class="st0" d="M180,135.02c0.32,0,0.64-0.12,0.89-0.35l16.06-14.59c0.54-0.49,0.58-1.34,0.09-1.88s-1.34-0.58-1.88-0.09
							L180,131.89l-15.17-13.78c-0.54-0.49-1.39-0.45-1.88,0.09c-0.49,0.54-0.45,1.39,0.09,1.88l16.06,14.59
							C179.36,134.9,179.68,135.02,180,135.02z"/>
					</g>
					<g>
						<path class="st0" d="M180,110.11c0.32,0,0.64-0.12,0.89-0.35l16.06-14.59c0.54-0.49,0.58-1.34,0.09-1.88s-1.34-0.58-1.88-0.09
							L180,106.98L164.84,93.2c-0.54-0.49-1.39-0.45-1.88,0.09c-0.49,0.54-0.45,1.39,0.09,1.88l16.06,14.59
							C179.36,109.99,179.68,110.11,180,110.11z"/>
					</g>
				</g>
			</g>
			<g>
				<g>
					<g>
						<path class="st0" d="M217.26,166.65c0.74,0,1.33-0.6,1.33-1.33V59.8c0-0.74-0.6-1.33-1.33-1.33c-0.74,0-1.33,0.6-1.33,1.33
							v105.52C215.93,166.05,216.53,166.65,217.26,166.65z"/>
					</g>
					<g>
						<path class="st0" d="M217.26,126.07c0.32,0,0.64-0.12,0.89-0.35L238.76,107c0.54-0.49,0.58-1.34,0.09-1.88
							s-1.34-0.59-1.88-0.09l-19.71,17.9l-19.71-17.9c-0.54-0.49-1.39-0.45-1.88,0.09c-0.49,0.54-0.45,1.39,0.09,1.88l20.61,18.72
							C216.62,125.96,216.94,126.07,217.26,126.07z"/>
					</g>
					<g>
						<path class="st0" d="M217.26,94.12c0.32,0,0.64-0.12,0.89-0.35l20.61-18.72c0.54-0.49,0.58-1.34,0.09-1.88
							c-0.49-0.55-1.34-0.58-1.88-0.09l-19.71,17.9l-19.71-17.9c-0.54-0.49-1.39-0.45-1.88,0.09c-0.49,0.54-0.45,1.39,0.09,1.88
							l20.61,18.72C216.62,94.01,216.94,94.12,217.26,94.12z"/>
					</g>
				</g>
			</g>
		</g>
		<g>
			<path class="st0" d="M149.39,166.55V33.45c0-0.74,0.6-1.33,1.33-1.33h133.09c0.74,0,1.33,0.6,1.33,1.33v133.09
				c0,0.74-0.6,1.33-1.33,1.33H150.72C149.98,167.88,149.39,167.28,149.39,166.55z M282.48,34.78H152.05v130.43h130.43L282.48,34.78
				L282.48,34.78z"/>
		</g>
		<g>
			<path class="st0" d="M282.48,166.55V33.45c0-0.74,0.6-1.33,1.33-1.33H416.9c0.73,0,1.33,0.6,1.33,1.33v133.09
				c0,0.74-0.6,1.33-1.33,1.33H283.81C283.08,167.88,282.48,167.28,282.48,166.55z M415.57,34.78H285.14v130.43h130.43V34.78z"/>
		</g>
		<g>
			<path class="st0" d="M16.29,166.55V33.45c0-0.74,0.6-1.33,1.33-1.33h133.09c0.74,0,1.33,0.6,1.33,1.33v133.09
				c0,0.74-0.6,1.33-1.33,1.33H17.62C16.89,167.88,16.29,167.28,16.29,166.55z M149.39,34.78H18.95v130.43h130.43V34.78H149.39z"/>
		</g>
		<g>
			<g>
				<path class="st0" d="M39.81,61.31c5.96,0,8.95-2.05,11.84-4.04c2.68-1.84,5.21-3.57,10.34-3.57s7.66,1.73,10.34,3.57
					c2.89,1.98,5.89,4.04,11.84,4.04s8.95-2.05,11.84-4.04c2.68-1.84,5.21-3.57,10.34-3.57s7.66,1.73,10.34,3.57
					c2.89,1.98,5.89,4.04,11.84,4.04c5.96,0,8.95-2.05,11.84-4.04c2.68-1.84,5.21-3.57,10.34-3.57c0.74,0,1.33-0.6,1.33-1.33
					s-0.6-1.33-1.33-1.33c-5.96,0-8.95,2.05-11.84,4.04c-2.68,1.84-5.21,3.57-10.34,3.57c-5.13,0-7.66-1.73-10.34-3.57
					c-2.89-1.98-5.89-4.04-11.84-4.04c-5.96,0-8.95,2.05-11.84,4.04c-2.68,1.84-5.21,3.57-10.34,3.57s-7.66-1.73-10.34-3.57
					c-2.89-1.98-5.89-4.04-11.84-4.04c-5.96,0-8.95,2.05-11.84,4.04c-2.68,1.84-5.21,3.57-10.34,3.57s-7.66-1.73-10.34-3.57
					c-2.89-1.98-5.89-4.04-11.84-4.04c-0.74,0-1.33,0.6-1.33,1.33s0.6,1.33,1.33,1.33c5.13,0,7.66,1.73,10.34,3.57
					C30.86,59.26,33.85,61.31,39.81,61.31z"/>
			</g>
			<g>
				<path class="st0" d="M39.81,83.18c5.96,0,8.95-2.05,11.84-4.04c2.68-1.84,5.21-3.57,10.34-3.57s7.66,1.73,10.34,3.57
					c2.89,1.98,5.89,4.04,11.84,4.04s8.95-2.05,11.84-4.04c2.68-1.84,5.21-3.57,10.34-3.57s7.66,1.73,10.34,3.57
					c2.89,1.98,5.89,4.04,11.84,4.04c5.96,0,8.95-2.05,11.84-4.04c2.68-1.84,5.21-3.57,10.34-3.57c0.74,0,1.33-0.6,1.33-1.33
					c0-0.74-0.6-1.33-1.33-1.33c-5.96,0-8.95,2.05-11.84,4.04c-2.68,1.84-5.21,3.57-10.34,3.57c-5.13,0-7.66-1.73-10.34-3.57
					c-2.89-1.98-5.89-4.04-11.84-4.04c-5.96,0-8.95,2.05-11.84,4.04c-2.68,1.84-5.21,3.57-10.34,3.57s-7.66-1.73-10.34-3.57
					c-2.89-1.98-5.89-4.04-11.84-4.04c-5.96,0-8.95,2.05-11.84,4.04c-2.68,1.84-5.21,3.57-10.34,3.57s-7.66-1.73-10.34-3.57
					c-2.89-1.98-5.89-4.04-11.84-4.04c-0.74,0-1.33,0.6-1.33,1.33c0,0.74,0.6,1.33,1.33,1.33c5.13,0,7.66,1.73,10.34,3.57
					C30.86,81.13,33.85,83.18,39.81,83.18z"/>
			</g>
			<g>
				<path class="st0" d="M39.81,105.06c5.96,0,8.95-2.05,11.84-4.04c2.68-1.84,5.21-3.57,10.34-3.57s7.66,1.73,10.34,3.57
					c2.89,1.98,5.89,4.04,11.84,4.04s8.95-2.05,11.84-4.04c2.68-1.84,5.21-3.57,10.34-3.57s7.66,1.73,10.34,3.57
					c2.89,1.98,5.89,4.04,11.84,4.04c5.96,0,8.95-2.05,11.84-4.04c2.68-1.84,5.21-3.57,10.34-3.57c0.74,0,1.33-0.6,1.33-1.33
					c0-0.74-0.6-1.33-1.33-1.33c-5.96,0-8.95,2.05-11.84,4.04c-2.68,1.84-5.21,3.57-10.34,3.57c-5.13,0-7.66-1.73-10.34-3.57
					c-2.89-1.98-5.89-4.04-11.84-4.04c-5.96,0-8.95,2.05-11.84,4.04c-2.68,1.84-5.21,3.57-10.34,3.57s-7.66-1.73-10.34-3.57
					c-2.89-1.98-5.89-4.04-11.84-4.04c-5.96,0-8.95,2.05-11.84,4.04c-2.68,1.84-5.21,3.57-10.34,3.57s-7.66-1.73-10.34-3.57
					c-2.89-1.98-5.89-4.04-11.84-4.04c-0.74,0-1.33,0.6-1.33,1.33c0,0.74,0.6,1.33,1.33,1.33c5.13,0,7.66,1.73,10.34,3.57
					C30.86,103.01,33.85,105.06,39.81,105.06z"/>
			</g>
			<g>
				<path class="st0" d="M39.81,126.94c5.96,0,8.95-2.05,11.84-4.04c2.68-1.84,5.21-3.57,10.34-3.57s7.66,1.73,10.34,3.57
					c2.89,1.98,5.89,4.04,11.84,4.04s8.95-2.05,11.84-4.04c2.68-1.84,5.21-3.57,10.34-3.57s7.66,1.73,10.34,3.57
					c2.89,1.98,5.89,4.04,11.84,4.04c5.96,0,8.95-2.05,11.84-4.04c2.68-1.84,5.21-3.57,10.34-3.57c0.74,0,1.33-0.6,1.33-1.33
					c0-0.74-0.6-1.33-1.33-1.33c-5.96,0-8.95,2.05-11.84,4.04c-2.68,1.84-5.21,3.57-10.34,3.57c-5.13,0-7.66-1.73-10.34-3.57
					c-2.89-1.98-5.89-4.04-11.84-4.04c-5.96,0-8.95,2.05-11.84,4.04c-2.68,1.84-5.21,3.57-10.34,3.57s-7.66-1.73-10.34-3.57
					c-2.89-1.98-5.89-4.04-11.84-4.04c-5.96,0-8.95,2.05-11.84,4.04c-2.68,1.84-5.21,3.57-10.34,3.57s-7.66-1.73-10.34-3.57
					c-2.89-1.98-5.89-4.04-11.84-4.04c-0.74,0-1.33,0.6-1.33,1.33c0,0.74,0.6,1.33,1.33,1.33c5.13,0,7.66,1.73,10.34,3.57
					C30.86,124.89,33.85,126.94,39.81,126.94z"/>
			</g>
			<g>
				<path class="st0" d="M39.81,148.82c5.96,0,8.95-2.05,11.84-4.04c2.68-1.84,5.21-3.57,10.34-3.57s7.66,1.73,10.34,3.57
					c2.89,1.98,5.89,4.04,11.84,4.04s8.95-2.05,11.84-4.04c2.68-1.84,5.21-3.57,10.34-3.57s7.66,1.73,10.34,3.57
					c2.89,1.98,5.89,4.04,11.84,4.04c5.96,0,8.95-2.05,11.84-4.04c2.68-1.84,5.21-3.57,10.34-3.57c0.74,0,1.33-0.6,1.33-1.33
					c0-0.74-0.6-1.33-1.33-1.33c-5.96,0-8.95,2.05-11.84,4.04c-2.68,1.84-5.21,3.57-10.34,3.57c-5.13,0-7.66-1.73-10.34-3.57
					c-2.89-1.98-5.89-4.04-11.84-4.04c-5.96,0-8.95,2.05-11.84,4.04c-2.68,1.84-5.21,3.57-10.34,3.57s-7.66-1.73-10.34-3.57
					c-2.89-1.98-5.89-4.04-11.84-4.04c-5.96,0-8.95,2.05-11.84,4.04c-2.68,1.84-5.21,3.57-10.34,3.57s-7.66-1.73-10.34-3.57
					c-2.89-1.98-5.89-4.04-11.84-4.04c-0.74,0-1.33,0.6-1.33,1.33c0,0.74,0.6,1.33,1.33,1.33c5.13,0,7.66,1.73,10.34,3.57
					C30.86,146.77,33.85,148.82,39.81,148.82z"/>
			</g>
		</g>
	</g>
</g>
</svg>
