<?xml version="1.0" encoding="utf-8"?>
<!-- Generator: Adobe Illustrator 27.2.0, SVG Export Plug-In . SVG Version: 6.00 Build 0)  -->
<svg version="1.1" id="Layer_1" xmlns="http://www.w3.org/2000/svg" xmlns:xlink="http://www.w3.org/1999/xlink" x="0px" y="0px"
	 viewBox="0 0 600 400" style="enable-background:new 0 0 600 400;" xml:space="preserve">
<style type="text/css">
	.st0{clip-path:url(#SVGID_00000175292939416856340000000012261279498538266764_);}
	.st1{fill:none;stroke:#0083D4;stroke-width:1.9666;stroke-linecap:round;stroke-linejoin:round;stroke-miterlimit:10;}
	.st2{fill:#FFFFFF;stroke:#0083D4;stroke-width:1.9666;stroke-linecap:round;stroke-linejoin:round;stroke-miterlimit:10;}
	.st3{clip-path:url(#SVGID_00000033335759100621888700000016201472874015841664_);}
	.st4{fill:none;stroke:#00CE7C;stroke-width:2.8581;stroke-linecap:round;stroke-linejoin:round;stroke-miterlimit:10;}
	.st5{clip-path:url(#SVGID_00000005260880824192061000000010330491268036319648_);}
	.st6{clip-path:url(#SVGID_00000067932515365710930940000008020726886934261180_);}
	.st7{clip-path:url(#SVGID_00000069397307408647447260000008846955425830860472_);}
	.st8{clip-path:url(#SVGID_00000084521400067416977560000016820130554456191890_);}
	.st9{clip-path:url(#SVGID_00000159455969326816929910000001668818078085776799_);}
	.st10{fill:#FFFFFF;stroke:#A3D300;stroke-width:2.4748;stroke-linecap:round;stroke-linejoin:round;stroke-miterlimit:10;}
	.st11{fill:none;stroke:#A3D300;stroke-width:2.4748;stroke-linecap:round;stroke-linejoin:round;stroke-miterlimit:10;}
</style>
<g>
	<defs>
		<path id="SVGID_1_" d="M540.73,353.15H59.27c-6.51,0-11.79-5.28-11.79-11.79V58.64c0-6.51,5.28-11.79,11.79-11.79h481.46
			c6.51,0,11.79,5.28,11.79,11.79v282.73C552.52,347.87,547.24,353.15,540.73,353.15z"/>
	</defs>
	<clipPath id="SVGID_00000052093243998394535930000012042842658453550773_">
		<use xlink:href="#SVGID_1_"  style="overflow:visible;"/>
	</clipPath>
	<g style="clip-path:url(#SVGID_00000052093243998394535930000012042842658453550773_);">
		<path class="st1" d="M-58.96,182.38l191.92-160.1c6.4-5.34,15.69-5.34,22.09,0l63.83,53.25c6.4,5.34,15.69,5.34,22.09,0
			l174.89-145.9c6.4-5.34,15.69-5.34,22.09,0L614.16,76.63c6.4,5.34,15.69,5.34,22.09,0l65.16-54.36c6.4-5.34,15.69-5.34,22.09,0
			l191.92,160.1"/>
		<g>
			<g>
				<path class="st2" d="M435.71,194.93h-32.62c-7.8,0-14.12-6.32-14.12-14.12v-12.04c0-7.8,6.32-14.12,14.12-14.12h32.62
					c7.8,0,14.12,6.32,14.12,14.12v12.04C449.83,188.61,443.51,194.93,435.71,194.93z"/>
				<g>
					<defs>
						<path id="SVGID_00000057141464958248847180000008442599414660518325_" d="M435.71,194.93h-32.62
							c-7.8,0-14.12-6.32-14.12-14.12v-12.04c0-7.8,6.32-14.12,14.12-14.12h32.62c7.8,0,14.12,6.32,14.12,14.12v12.04
							C449.83,188.61,443.51,194.93,435.71,194.93z"/>
					</defs>
					<clipPath id="SVGID_00000018936257821956676860000008173102697532489887_">
						<use xlink:href="#SVGID_00000057141464958248847180000008442599414660518325_"  style="overflow:visible;"/>
					</clipPath>
					<g style="clip-path:url(#SVGID_00000018936257821956676860000008173102697532489887_);">
						<line class="st4" x1="405.31" y1="174.91" x2="405.31" y2="171.39"/>
						<line class="st4" x1="410.45" y1="173.15" x2="414.05" y2="176.14"/>
						<line class="st4" x1="401.32" y1="184.78" x2="405.31" y2="181.9"/>
						<line class="st4" x1="412.25" y1="184.78" x2="414.05" y2="188.01"/>
						<line class="st4" x1="396.52" y1="176.14" x2="398.2" y2="176.14"/>
						<line class="st4" x1="397.36" y1="165.71" x2="399.88" y2="168.46"/>
						<line class="st4" x1="416.21" y1="165.71" x2="418.37" y2="163.66"/>
						<line class="st4" x1="409.24" y1="163.66" x2="409" y2="160.05"/>
						<line class="st4" x1="421.97" y1="173.15" x2="425.09" y2="174.91"/>
						<line class="st4" x1="420.53" y1="181.9" x2="421.97" y2="183.34"/>
						<line class="st4" x1="427.25" y1="165.71" x2="429.65" y2="161.86"/>
						<line class="st4" x1="420.53" y1="156.52" x2="420.53" y2="152.37"/>
						<line class="st4" x1="401.32" y1="154.45" x2="397.36" y2="152.37"/>
						<line class="st4" x1="410.45" y1="148.29" x2="410.45" y2="145.41"/>
						<line class="st4" x1="391.72" y1="160.05" x2="389.8" y2="160.05"/>
						<line class="st4" x1="389.8" y1="165.71" x2="389.8" y2="165.71"/>
						<line class="st4" x1="389.8" y1="176.14" x2="387.88" y2="181.9"/>
						<line class="st4" x1="393.88" y1="184.78" x2="393.88" y2="184.78"/>
						<line class="st4" x1="398.62" y1="191.5" x2="399.88" y2="191.98"/>
						<line class="st4" x1="409" y1="196.06" x2="410.45" y2="195.34"/>
						<line class="st4" x1="407.08" y1="189.82" x2="409" y2="189.82"/>
						<line class="st4" x1="420.53" y1="191.98" x2="421.97" y2="191.98"/>
						<line class="st4" x1="428.45" y1="186.39" x2="429.65" y2="186.39"/>
						<line class="st4" x1="430.85" y1="176.14" x2="431.57" y2="179.02"/>
						<line class="st4" x1="435.65" y1="173.15" x2="437.09" y2="173.15"/>
						<line class="st4" x1="435.65" y1="165.71" x2="435.65" y2="164.68"/>
						<line class="st4" x1="429.05" y1="153.41" x2="430.85" y2="152.37"/>
						<line class="st4" x1="438.05" y1="154.45" x2="439.25" y2="154.45"/>
						<line class="st4" x1="428.45" y1="145.41" x2="427.25" y2="143.49"/>
						<line class="st4" x1="420.53" y1="146.85" x2="418.37" y2="148.29"/>
						<line class="st4" x1="414.05" y1="153.41" x2="416.21" y2="156.52"/>
						<line class="st4" x1="401.32" y1="146.85" x2="403.31" y2="148.29"/>
						<line class="st4" x1="402.32" y1="161.86" x2="403.31" y2="160.05"/>
						<line class="st4" x1="389.8" y1="153.41" x2="388.84" y2="152.37"/>
						<line class="st4" x1="393.88" y1="143.49" x2="393.88" y2="145.41"/>
						<line class="st4" x1="407.08" y1="138.21" x2="405.31" y2="139.41"/>
						<line class="st4" x1="442.37" y1="163.78" x2="445.01" y2="164.68"/>
						<line class="st4" x1="449.09" y1="160.05" x2="451.01" y2="160.05"/>
						<line class="st4" x1="445.01" y1="151.17" x2="445.01" y2="150.45"/>
						<line class="st4" x1="440.45" y1="146.85" x2="439.25" y2="146.85"/>
						<line class="st4" x1="384.52" y1="156.52" x2="383.32" y2="156.52"/>
						<line class="st4" x1="382.36" y1="167.09" x2="381.88" y2="167.09"/>
						<line class="st4" x1="382.36" y1="174.03" x2="382.36" y2="174.03"/>
						<line class="st4" x1="391.72" y1="171.39" x2="393.88" y2="171.39"/>
						<line class="st4" x1="429.95" y1="191.5" x2="431.57" y2="193.9"/>
						<line class="st4" x1="439.25" y1="182.62" x2="442.37" y2="181.9"/>
						<line class="st4" x1="445.97" y1="174.91" x2="449.09" y2="176.14"/>
						<line class="st4" x1="417.29" y1="139.41" x2="417.29" y2="141.81"/>
						<line class="st4" x1="434.45" y1="140.61" x2="433.97" y2="141.81"/>
						<line class="st4" x1="425.09" y1="158.13" x2="425.09" y2="160.95"/>
						<line class="st4" x1="392.8" y1="193.9" x2="391.72" y2="196.06"/>
						<line class="st4" x1="399.34" y1="200.38" x2="399.34" y2="201.82"/>
						<line class="st4" x1="417.29" y1="201.82" x2="418.37" y2="203.02"/>
						<line class="st4" x1="425.09" y1="198.94" x2="427.25" y2="200.38"/>
						<line class="st4" x1="409.73" y1="203.02" x2="409" y2="206.14"/>
						<line class="st4" x1="380.68" y1="188.01" x2="382.36" y2="186.39"/>
						<line class="st4" x1="380.68" y1="182.62" x2="380.68" y2="182.26"/>
						<line class="st4" x1="443.69" y1="193.9" x2="445.01" y2="193.9"/>
						<line class="st4" x1="437.09" y1="189.82" x2="438.65" y2="189.82"/>
						<line class="st4" x1="437.09" y1="196.06" x2="438.05" y2="198.94"/>
						<line class="st4" x1="432.77" y1="206.14" x2="433.97" y2="204.58"/>
						<line class="st4" x1="447.53" y1="154.97" x2="451.01" y2="152.37"/>
						<line class="st4" x1="423.53" y1="139.41" x2="427.25" y2="137.01"/>
						<line class="st4" x1="419.45" y1="134.13" x2="419.45" y2="134.61"/>
						<line class="st4" x1="397.36" y1="137.01" x2="398.62" y2="139.41"/>
						<line class="st4" x1="453.65" y1="170.14" x2="455.09" y2="169.9"/>
						<line class="st4" x1="450.05" y1="184.78" x2="452.21" y2="187.2"/>
						<line class="st4" x1="425.09" y1="206.14" x2="426.65" y2="206.14"/>
					</g>
					
						<use xlink:href="#SVGID_00000057141464958248847180000008442599414660518325_"  style="overflow:visible;fill:none;stroke:#0083D4;stroke-width:1.9666;stroke-linecap:round;stroke-linejoin:round;stroke-miterlimit:10;"/>
				</g>
				<line class="st1" x1="419.4" y1="183.29" x2="419.4" y2="217.82"/>
			</g>
			<g>
				<path class="st2" d="M468.25,129.49c1.6-2.89,2.38-6.3,1.99-9.93c-0.83-7.7-7.02-13.93-14.72-14.78
					c-10.1-1.12-18.65,6.75-18.65,16.63c0,2.89,0.74,5.61,2.03,7.98c1.13,2.07,0.83,4.66-0.94,6.22
					c-5.45,4.82-8.66,12.12-7.86,20.14c1.14,11.37,10.55,20.41,21.96,21.13c13.74,0.87,25.16-10.02,25.16-23.57
					c0-6.99-3.04-13.27-7.87-17.6C467.59,134.12,467.1,131.56,468.25,129.49z"/>
				<line class="st1" x1="453.6" y1="156.33" x2="453.6" y2="217.82"/>
			</g>
			<g>
				<path class="st2" d="M116.15,129.49c1.6-2.89,2.38-6.3,1.99-9.93c-0.83-7.7-7.02-13.93-14.72-14.78
					c-10.1-1.12-18.65,6.75-18.65,16.63c0,2.89,0.74,5.61,2.03,7.98c1.13,2.07,0.83,4.66-0.94,6.22
					c-5.45,4.82-8.66,12.12-7.86,20.14c1.14,11.37,10.55,20.41,21.96,21.13c13.74,0.87,25.16-10.02,25.16-23.57
					c0-6.99-3.04-13.27-7.87-17.6C115.49,134.12,115,131.56,116.15,129.49z"/>
				<g>
					<defs>
						<path id="SVGID_00000060001043100926052670000005923303796521188737_" d="M116.15,129.49c1.6-2.89,2.38-6.3,1.99-9.93
							c-0.83-7.7-7.02-13.93-14.72-14.78c-10.1-1.12-18.65,6.75-18.65,16.63c0,2.89,0.74,5.61,2.03,7.98
							c1.13,2.07,0.83,4.66-0.94,6.22c-5.45,4.82-8.66,12.12-7.86,20.14c1.14,11.37,10.55,20.41,21.96,21.13
							c13.74,0.87,25.16-10.02,25.16-23.57c0-6.99-3.04-13.27-7.87-17.6C115.49,134.12,115,131.56,116.15,129.49z"/>
					</defs>
					<clipPath id="SVGID_00000183937764391898781070000001565568094003565449_">
						<use xlink:href="#SVGID_00000060001043100926052670000005923303796521188737_"  style="overflow:visible;"/>
					</clipPath>
					<g style="clip-path:url(#SVGID_00000183937764391898781070000001565568094003565449_);">
						<line class="st4" x1="88.85" y1="145.31" x2="88.85" y2="141.79"/>
						<line class="st4" x1="93.99" y1="143.55" x2="97.59" y2="146.54"/>
						<line class="st4" x1="84.86" y1="155.18" x2="88.85" y2="152.3"/>
						<line class="st4" x1="95.79" y1="155.18" x2="97.59" y2="158.42"/>
						<line class="st4" x1="80.06" y1="146.54" x2="81.74" y2="146.54"/>
						<line class="st4" x1="80.9" y1="136.12" x2="83.42" y2="138.86"/>
						<line class="st4" x1="99.75" y1="136.12" x2="101.91" y2="134.06"/>
						<line class="st4" x1="92.79" y1="134.06" x2="92.55" y2="130.46"/>
						<line class="st4" x1="105.51" y1="143.55" x2="108.63" y2="145.31"/>
						<line class="st4" x1="104.07" y1="152.3" x2="105.51" y2="153.74"/>
						<line class="st4" x1="110.79" y1="136.12" x2="113.19" y2="132.26"/>
						<line class="st4" x1="104.07" y1="126.93" x2="104.07" y2="122.78"/>
						<line class="st4" x1="84.86" y1="124.85" x2="80.9" y2="122.78"/>
						<line class="st4" x1="93.99" y1="118.7" x2="93.99" y2="115.82"/>
						<line class="st4" x1="75.26" y1="130.46" x2="73.34" y2="130.46"/>
						<line class="st4" x1="73.34" y1="136.12" x2="73.34" y2="136.12"/>
						<line class="st4" x1="73.34" y1="146.54" x2="71.42" y2="152.3"/>
						<line class="st4" x1="77.42" y1="155.18" x2="77.42" y2="155.18"/>
						<line class="st4" x1="82.16" y1="161.9" x2="83.42" y2="162.38"/>
						<line class="st4" x1="92.55" y1="166.46" x2="93.99" y2="165.74"/>
						<line class="st4" x1="90.63" y1="160.22" x2="92.55" y2="160.22"/>
						<line class="st4" x1="104.07" y1="162.38" x2="105.51" y2="162.38"/>
						<line class="st4" x1="111.99" y1="156.8" x2="113.19" y2="156.8"/>
						<line class="st4" x1="114.39" y1="146.54" x2="115.11" y2="149.42"/>
						<line class="st4" x1="119.19" y1="143.55" x2="120.63" y2="143.55"/>
						<line class="st4" x1="119.19" y1="136.12" x2="119.19" y2="135.09"/>
						<line class="st4" x1="112.59" y1="123.82" x2="114.39" y2="122.78"/>
						<line class="st4" x1="121.59" y1="124.85" x2="122.79" y2="124.85"/>
						<line class="st4" x1="111.99" y1="115.82" x2="110.79" y2="113.9"/>
						<line class="st4" x1="104.07" y1="117.26" x2="101.91" y2="118.7"/>
						<line class="st4" x1="97.59" y1="123.82" x2="99.75" y2="126.93"/>
						<line class="st4" x1="84.86" y1="117.26" x2="86.86" y2="118.7"/>
						<line class="st4" x1="85.86" y1="132.26" x2="86.86" y2="130.46"/>
						<line class="st4" x1="73.34" y1="123.82" x2="72.38" y2="122.78"/>
						<line class="st4" x1="77.42" y1="113.9" x2="77.42" y2="115.82"/>
						<line class="st4" x1="90.63" y1="108.62" x2="88.85" y2="109.82"/>
						<line class="st4" x1="125.91" y1="134.19" x2="128.55" y2="135.09"/>
						<line class="st4" x1="132.63" y1="130.46" x2="134.55" y2="130.46"/>
						<line class="st4" x1="128.55" y1="121.58" x2="128.55" y2="120.86"/>
						<line class="st4" x1="123.99" y1="117.26" x2="122.79" y2="117.26"/>
						<line class="st4" x1="68.06" y1="126.93" x2="66.86" y2="126.93"/>
						<line class="st4" x1="65.9" y1="137.49" x2="65.42" y2="137.49"/>
						<line class="st4" x1="65.9" y1="144.43" x2="65.9" y2="144.43"/>
						<line class="st4" x1="75.26" y1="141.79" x2="77.42" y2="141.79"/>
						<line class="st4" x1="113.49" y1="161.9" x2="115.11" y2="164.3"/>
						<line class="st4" x1="122.79" y1="153.02" x2="125.91" y2="152.3"/>
						<line class="st4" x1="129.51" y1="145.31" x2="132.63" y2="146.54"/>
						<line class="st4" x1="100.83" y1="109.82" x2="100.83" y2="112.22"/>
						<line class="st4" x1="117.99" y1="111.02" x2="117.51" y2="112.22"/>
						<line class="st4" x1="108.63" y1="128.54" x2="108.63" y2="131.36"/>
						<line class="st4" x1="76.34" y1="164.3" x2="75.26" y2="166.46"/>
						<line class="st4" x1="82.88" y1="170.78" x2="82.88" y2="172.22"/>
						<line class="st4" x1="100.83" y1="172.22" x2="101.91" y2="173.42"/>
						<line class="st4" x1="108.63" y1="169.34" x2="110.79" y2="170.78"/>
						<line class="st4" x1="93.27" y1="173.42" x2="92.55" y2="176.54"/>
						<line class="st4" x1="64.22" y1="158.42" x2="65.9" y2="156.8"/>
						<line class="st4" x1="64.22" y1="153.02" x2="64.22" y2="152.66"/>
						<line class="st4" x1="127.23" y1="164.3" x2="128.55" y2="164.3"/>
						<line class="st4" x1="120.63" y1="160.22" x2="122.19" y2="160.22"/>
						<line class="st4" x1="120.63" y1="166.46" x2="121.59" y2="169.34"/>
						<line class="st4" x1="116.31" y1="176.54" x2="117.51" y2="174.98"/>
						<line class="st4" x1="131.07" y1="125.37" x2="134.55" y2="122.78"/>
						<line class="st4" x1="107.07" y1="109.82" x2="110.79" y2="107.42"/>
						<line class="st4" x1="102.99" y1="104.54" x2="102.99" y2="105.02"/>
						<line class="st4" x1="80.9" y1="107.42" x2="82.16" y2="109.82"/>
						<line class="st4" x1="137.19" y1="140.54" x2="138.63" y2="140.3"/>
						<line class="st4" x1="133.59" y1="155.18" x2="135.75" y2="157.61"/>
						<line class="st4" x1="108.63" y1="176.54" x2="110.19" y2="176.54"/>
					</g>
					
						<use xlink:href="#SVGID_00000060001043100926052670000005923303796521188737_"  style="overflow:visible;fill:none;stroke:#0083D4;stroke-width:1.9666;stroke-linecap:round;stroke-linejoin:round;stroke-miterlimit:10;"/>
				</g>
				<line class="st1" x1="101.5" y1="156.33" x2="101.5" y2="217.82"/>
			</g>
			<g>
				<path class="st2" d="M522.82,183.78h-36.26c-1.52,0-2.63-1.44-2.25-2.91l18.13-69.16c0.61-2.31,3.89-2.31,4.49,0l18.13,69.16
					C525.45,182.34,524.34,183.78,522.82,183.78z"/>
				<g>
					<defs>
						<path id="SVGID_00000000184002428849585520000005826519038398942870_" d="M522.82,183.78h-36.26c-1.52,0-2.63-1.44-2.25-2.91
							l18.13-69.16c0.61-2.31,3.89-2.31,4.49,0l18.13,69.16C525.45,182.34,524.34,183.78,522.82,183.78z"/>
					</defs>
					<clipPath id="SVGID_00000070110204601399551400000003291877229181759379_">
						<use xlink:href="#SVGID_00000000184002428849585520000005826519038398942870_"  style="overflow:visible;"/>
					</clipPath>
					<g style="clip-path:url(#SVGID_00000070110204601399551400000003291877229181759379_);">
						<line class="st4" x1="491.82" y1="155.13" x2="491.82" y2="151.61"/>
						<line class="st4" x1="496.96" y1="153.37" x2="500.56" y2="156.36"/>
						<line class="st4" x1="487.84" y1="165" x2="491.82" y2="162.12"/>
						<line class="st4" x1="498.76" y1="165" x2="500.56" y2="168.24"/>
						<line class="st4" x1="483.04" y1="156.36" x2="484.72" y2="156.36"/>
						<line class="st4" x1="483.88" y1="145.94" x2="486.4" y2="148.68"/>
						<line class="st4" x1="502.72" y1="145.94" x2="504.88" y2="143.88"/>
						<line class="st4" x1="495.76" y1="143.88" x2="495.52" y2="140.28"/>
						<line class="st4" x1="508.48" y1="153.37" x2="511.6" y2="155.13"/>
						<line class="st4" x1="507.04" y1="162.12" x2="508.48" y2="163.56"/>
						<line class="st4" x1="513.76" y1="145.94" x2="516.16" y2="142.08"/>
						<line class="st4" x1="507.04" y1="136.75" x2="507.04" y2="132.6"/>
						<line class="st4" x1="487.84" y1="134.67" x2="483.88" y2="132.6"/>
						<line class="st4" x1="496.96" y1="128.52" x2="496.96" y2="125.64"/>
						<line class="st4" x1="478.24" y1="140.28" x2="476.32" y2="140.28"/>
						<line class="st4" x1="476.32" y1="145.94" x2="476.32" y2="145.94"/>
						<line class="st4" x1="476.32" y1="156.36" x2="474.4" y2="162.12"/>
						<line class="st4" x1="480.4" y1="165" x2="480.4" y2="165"/>
						<line class="st4" x1="485.14" y1="171.72" x2="486.4" y2="172.2"/>
						<line class="st4" x1="495.52" y1="176.28" x2="496.96" y2="175.56"/>
						<line class="st4" x1="493.6" y1="170.04" x2="495.52" y2="170.04"/>
						<line class="st4" x1="507.04" y1="172.2" x2="508.48" y2="172.2"/>
						<line class="st4" x1="514.96" y1="166.62" x2="516.16" y2="166.62"/>
						<line class="st4" x1="517.36" y1="156.36" x2="518.08" y2="159.24"/>
						<line class="st4" x1="522.17" y1="153.37" x2="523.61" y2="153.37"/>
						<line class="st4" x1="522.17" y1="145.94" x2="522.17" y2="144.91"/>
						<line class="st4" x1="515.56" y1="133.64" x2="517.36" y2="132.6"/>
						<line class="st4" x1="524.57" y1="134.67" x2="525.77" y2="134.67"/>
						<line class="st4" x1="514.96" y1="125.64" x2="513.76" y2="123.72"/>
						<line class="st4" x1="507.04" y1="127.08" x2="504.88" y2="128.52"/>
						<line class="st4" x1="500.56" y1="133.64" x2="502.72" y2="136.75"/>
						<line class="st4" x1="487.84" y1="127.08" x2="489.83" y2="128.52"/>
						<line class="st4" x1="488.84" y1="142.08" x2="489.83" y2="140.28"/>
						<line class="st4" x1="476.32" y1="133.64" x2="475.36" y2="132.6"/>
						<line class="st4" x1="480.4" y1="123.72" x2="480.4" y2="125.64"/>
						<line class="st4" x1="493.6" y1="118.44" x2="491.82" y2="119.64"/>
						<line class="st4" x1="528.89" y1="144.01" x2="531.53" y2="144.91"/>
						<line class="st4" x1="535.61" y1="140.28" x2="537.53" y2="140.28"/>
						<line class="st4" x1="531.53" y1="131.4" x2="531.53" y2="130.68"/>
						<line class="st4" x1="526.97" y1="127.08" x2="525.77" y2="127.08"/>
						<line class="st4" x1="471.04" y1="136.75" x2="469.84" y2="136.75"/>
						<line class="st4" x1="468.88" y1="147.31" x2="468.4" y2="147.31"/>
						<line class="st4" x1="468.88" y1="154.25" x2="468.88" y2="154.25"/>
						<line class="st4" x1="478.24" y1="151.61" x2="480.4" y2="151.61"/>
						<line class="st4" x1="516.46" y1="171.72" x2="518.08" y2="174.12"/>
						<line class="st4" x1="525.77" y1="162.84" x2="528.89" y2="162.12"/>
						<line class="st4" x1="532.49" y1="155.13" x2="535.61" y2="156.36"/>
						<line class="st4" x1="503.8" y1="119.64" x2="503.8" y2="122.04"/>
						<line class="st4" x1="520.96" y1="120.84" x2="520.48" y2="122.04"/>
						<line class="st4" x1="511.6" y1="138.36" x2="511.6" y2="141.18"/>
						<line class="st4" x1="479.32" y1="174.12" x2="478.24" y2="176.28"/>
						<line class="st4" x1="485.86" y1="180.6" x2="485.86" y2="182.04"/>
						<line class="st4" x1="503.8" y1="182.04" x2="504.88" y2="183.24"/>
						<line class="st4" x1="511.6" y1="179.16" x2="513.76" y2="180.6"/>
						<line class="st4" x1="496.24" y1="183.24" x2="495.52" y2="186.36"/>
						<line class="st4" x1="467.2" y1="168.24" x2="468.88" y2="166.62"/>
						<line class="st4" x1="467.2" y1="162.84" x2="467.2" y2="162.48"/>
						<line class="st4" x1="530.21" y1="174.12" x2="531.53" y2="174.12"/>
						<line class="st4" x1="523.61" y1="170.04" x2="525.17" y2="170.04"/>
						<line class="st4" x1="523.61" y1="176.28" x2="524.57" y2="179.16"/>
						<line class="st4" x1="519.28" y1="186.36" x2="520.48" y2="184.8"/>
						<line class="st4" x1="534.05" y1="135.19" x2="537.53" y2="132.6"/>
						<line class="st4" x1="510.04" y1="119.64" x2="513.76" y2="117.24"/>
						<line class="st4" x1="505.96" y1="114.36" x2="505.96" y2="114.84"/>
						<line class="st4" x1="483.88" y1="117.24" x2="485.14" y2="119.64"/>
						<line class="st4" x1="540.17" y1="150.36" x2="541.61" y2="150.12"/>
						<line class="st4" x1="536.57" y1="165" x2="538.73" y2="167.43"/>
						<line class="st4" x1="511.6" y1="186.36" x2="513.17" y2="186.36"/>
					</g>
					
						<use xlink:href="#SVGID_00000000184002428849585520000005826519038398942870_"  style="overflow:visible;fill:none;stroke:#0083D4;stroke-width:1.9666;stroke-linecap:round;stroke-linejoin:round;stroke-miterlimit:10;"/>
				</g>
				<line class="st1" x1="504.69" y1="175.01" x2="504.69" y2="217.82"/>
				<polyline class="st1" points="511.4,168.3 504.69,175.01 497.98,168.3 				"/>
			</g>
			<g>
				<path class="st2" d="M48.07,158.37c0.64-1.74,0.95-3.64,0.84-5.63c-0.39-7.17-6.33-13.04-13.5-13.34
					c-8.08-0.34-14.74,6.11-14.74,14.12c0,1.71,0.31,3.35,0.87,4.86c0.61,1.65,0.08,3.48-1.29,4.58
					c-5.92,4.73-9.48,12.28-8.64,20.62c1.13,11.23,10.41,20.15,21.67,20.86c13.57,0.86,24.84-9.89,24.84-23.27
					c0-7.37-3.42-13.93-8.75-18.2C47.99,161.86,47.46,160.02,48.07,158.37z"/>
				<line class="st1" x1="34.8" y1="183.29" x2="34.8" y2="217.82"/>
				<line class="st1" x1="28.14" y1="186.93" x2="34.8" y2="192.98"/>
			</g>
			<g>
				<ellipse class="st2" cx="755.56" cy="148.01" rx="10.9" ry="39.93"/>
				<line class="st1" x1="755.56" y1="147.86" x2="755.56" y2="217.82"/>
				<line class="st1" x1="761.46" y1="153.46" x2="755.56" y2="156.95"/>
				<line class="st1" x1="761.46" y1="164.07" x2="755.56" y2="167.55"/>
			</g>
			<g>
				<ellipse class="st2" cx="404.41" cy="148.01" rx="10.9" ry="39.93"/>
				<line class="st1" x1="404.41" y1="147.86" x2="404.41" y2="217.82"/>
				<line class="st1" x1="410.32" y1="153.46" x2="404.41" y2="156.95"/>
				<line class="st1" x1="410.32" y1="164.07" x2="404.41" y2="167.55"/>
			</g>
			<g>
				<g>
					<path class="st2" d="M295.51,157.36c-0.02-0.39-0.03-0.79-0.03-1.19v-26.46c0-11.48,9.31-20.79,20.79-20.79
						c11.48,0,20.79,9.31,20.79,20.79v26.46c0,11.48-9.31,20.79-20.79,20.79c-4.59,0-8.84-1.49-12.28-4.01"/>
					<g>
						<defs>
							<path id="SVGID_00000065032110427512690910000004287435594139796618_" d="M295.51,157.36c-0.02-0.39-0.03-0.79-0.03-1.19
								v-26.46c0-11.48,9.31-20.79,20.79-20.79c11.48,0,20.79,9.31,20.79,20.79v26.46c0,11.48-9.31,20.79-20.79,20.79
								c-4.59,0-8.84-1.49-12.28-4.01"/>
						</defs>
						<clipPath id="SVGID_00000009581164646798885770000015726151558741470143_">
							<use xlink:href="#SVGID_00000065032110427512690910000004287435594139796618_"  style="overflow:visible;"/>
						</clipPath>
						<g style="clip-path:url(#SVGID_00000009581164646798885770000015726151558741470143_);">
							<line class="st4" x1="304.01" y1="148.75" x2="304.01" y2="145.23"/>
							<line class="st4" x1="309.15" y1="146.99" x2="312.75" y2="149.98"/>
							<line class="st4" x1="300.03" y1="158.62" x2="304.01" y2="155.74"/>
							<line class="st4" x1="310.95" y1="158.62" x2="312.75" y2="161.85"/>
							<line class="st4" x1="295.23" y1="149.98" x2="296.91" y2="149.98"/>
							<line class="st4" x1="296.07" y1="139.56" x2="298.59" y2="142.3"/>
							<line class="st4" x1="314.91" y1="139.56" x2="317.07" y2="137.5"/>
							<line class="st4" x1="307.95" y1="137.5" x2="307.71" y2="133.9"/>
							<line class="st4" x1="320.67" y1="146.99" x2="323.79" y2="148.75"/>
							<line class="st4" x1="319.23" y1="155.74" x2="320.67" y2="157.18"/>
							<line class="st4" x1="325.95" y1="139.56" x2="328.35" y2="135.7"/>
							<line class="st4" x1="319.23" y1="130.36" x2="319.23" y2="126.22"/>
							<line class="st4" x1="300.03" y1="128.29" x2="296.07" y2="126.22"/>
							<line class="st4" x1="309.15" y1="122.13" x2="309.15" y2="119.25"/>
							<line class="st4" x1="290.43" y1="133.9" x2="288.51" y2="133.9"/>
							<line class="st4" x1="288.51" y1="139.56" x2="288.51" y2="139.56"/>
							<line class="st4" x1="288.51" y1="149.98" x2="286.59" y2="155.74"/>
							<line class="st4" x1="292.59" y1="158.62" x2="292.59" y2="158.62"/>
							<line class="st4" x1="297.33" y1="165.34" x2="298.59" y2="165.82"/>
							<line class="st4" x1="307.71" y1="169.9" x2="309.15" y2="169.18"/>
							<line class="st4" x1="305.79" y1="163.66" x2="307.71" y2="163.66"/>
							<line class="st4" x1="319.23" y1="165.82" x2="320.67" y2="165.82"/>
							<line class="st4" x1="327.15" y1="160.24" x2="328.35" y2="160.24"/>
							<line class="st4" x1="329.55" y1="149.98" x2="330.27" y2="152.86"/>
							<line class="st4" x1="334.35" y1="146.99" x2="335.79" y2="146.99"/>
							<line class="st4" x1="334.35" y1="139.56" x2="334.35" y2="138.53"/>
							<line class="st4" x1="327.75" y1="127.25" x2="329.55" y2="126.22"/>
							<line class="st4" x1="336.75" y1="128.29" x2="337.95" y2="128.29"/>
							<line class="st4" x1="327.15" y1="119.25" x2="325.95" y2="117.33"/>
							<line class="st4" x1="319.23" y1="120.69" x2="317.07" y2="122.13"/>
							<line class="st4" x1="312.75" y1="127.25" x2="314.91" y2="130.36"/>
							<line class="st4" x1="300.03" y1="120.69" x2="302.02" y2="122.13"/>
							<line class="st4" x1="301.02" y1="135.7" x2="302.02" y2="133.9"/>
							<line class="st4" x1="288.51" y1="127.25" x2="287.55" y2="126.22"/>
							<line class="st4" x1="292.59" y1="117.33" x2="292.59" y2="119.25"/>
							<line class="st4" x1="305.79" y1="112.05" x2="304.01" y2="113.25"/>
							<line class="st4" x1="341.07" y1="137.63" x2="343.71" y2="138.53"/>
							<line class="st4" x1="347.79" y1="133.9" x2="349.71" y2="133.9"/>
							<line class="st4" x1="343.71" y1="125.02" x2="343.71" y2="124.3"/>
							<line class="st4" x1="339.15" y1="120.69" x2="337.95" y2="120.69"/>
							<line class="st4" x1="283.23" y1="130.36" x2="282.03" y2="130.36"/>
							<line class="st4" x1="281.07" y1="140.93" x2="280.59" y2="140.93"/>
							<line class="st4" x1="281.07" y1="147.87" x2="281.07" y2="147.87"/>
							<line class="st4" x1="290.43" y1="145.23" x2="292.59" y2="145.23"/>
							<line class="st4" x1="328.65" y1="165.34" x2="330.27" y2="167.74"/>
							<line class="st4" x1="337.95" y1="156.46" x2="341.07" y2="155.74"/>
							<line class="st4" x1="344.67" y1="148.75" x2="347.79" y2="149.98"/>
							<line class="st4" x1="315.99" y1="113.25" x2="315.99" y2="115.65"/>
							<line class="st4" x1="333.15" y1="114.45" x2="332.67" y2="115.65"/>
							<line class="st4" x1="323.79" y1="131.98" x2="323.79" y2="134.8"/>
							<line class="st4" x1="291.51" y1="167.74" x2="290.43" y2="169.9"/>
							<line class="st4" x1="298.05" y1="174.22" x2="298.05" y2="175.66"/>
							<line class="st4" x1="315.99" y1="175.66" x2="317.07" y2="176.86"/>
							<line class="st4" x1="323.79" y1="172.78" x2="325.95" y2="174.22"/>
							<line class="st4" x1="308.43" y1="176.86" x2="307.71" y2="179.98"/>
							<line class="st4" x1="279.39" y1="161.85" x2="281.07" y2="160.24"/>
							<line class="st4" x1="279.39" y1="156.46" x2="279.39" y2="156.1"/>
							<line class="st4" x1="342.39" y1="167.74" x2="343.71" y2="167.74"/>
							<line class="st4" x1="335.79" y1="163.66" x2="337.35" y2="163.66"/>
							<line class="st4" x1="335.79" y1="169.9" x2="336.75" y2="172.78"/>
							<line class="st4" x1="331.47" y1="179.98" x2="332.67" y2="178.42"/>
							<line class="st4" x1="346.23" y1="128.81" x2="349.71" y2="126.22"/>
							<line class="st4" x1="322.23" y1="113.25" x2="325.95" y2="110.85"/>
							<line class="st4" x1="318.15" y1="107.97" x2="318.15" y2="108.45"/>
							<line class="st4" x1="296.07" y1="110.85" x2="297.33" y2="113.25"/>
							<line class="st4" x1="352.35" y1="143.98" x2="353.79" y2="143.74"/>
							<line class="st4" x1="348.75" y1="158.62" x2="350.91" y2="161.04"/>
							<line class="st4" x1="323.79" y1="179.98" x2="325.36" y2="179.98"/>
						</g>
						
							<use xlink:href="#SVGID_00000065032110427512690910000004287435594139796618_"  style="overflow:visible;fill:none;stroke:#0083D4;stroke-width:1.9666;stroke-linecap:round;stroke-linejoin:round;stroke-miterlimit:10;"/>
					</g>
					<line class="st1" x1="316.27" y1="161.19" x2="316.27" y2="217.82"/>
				</g>
				<circle class="st2" cx="290.48" cy="169.97" r="13.63"/>
				<line class="st1" x1="291.43" y1="171.78" x2="316.27" y2="192.98"/>
				<g>
					<defs>
						<circle id="SVGID_00000173857652724536660300000014757198556547339658_" cx="290.48" cy="169.97" r="13.63"/>
					</defs>
					<clipPath id="SVGID_00000137092051368653619870000008921261757851303564_">
						<use xlink:href="#SVGID_00000173857652724536660300000014757198556547339658_"  style="overflow:visible;"/>
					</clipPath>
					<g style="clip-path:url(#SVGID_00000137092051368653619870000008921261757851303564_);">
						<line class="st4" x1="280.47" y1="174.89" x2="280.47" y2="171.37"/>
						<line class="st4" x1="285.61" y1="173.13" x2="289.21" y2="176.12"/>
						<line class="st4" x1="276.49" y1="184.76" x2="280.47" y2="181.88"/>
						<line class="st4" x1="287.41" y1="184.76" x2="289.21" y2="188"/>
						<line class="st4" x1="271.69" y1="176.12" x2="273.37" y2="176.12"/>
						<line class="st4" x1="272.53" y1="165.7" x2="275.05" y2="168.44"/>
						<line class="st4" x1="291.37" y1="165.7" x2="293.53" y2="163.64"/>
						<line class="st4" x1="284.41" y1="163.64" x2="284.17" y2="160.04"/>
						<line class="st4" x1="297.13" y1="173.13" x2="300.25" y2="174.89"/>
						<line class="st4" x1="295.69" y1="181.88" x2="297.13" y2="183.32"/>
						<line class="st4" x1="302.41" y1="165.7" x2="304.81" y2="161.84"/>
						<line class="st4" x1="295.69" y1="156.51" x2="295.69" y2="152.36"/>
						<line class="st4" x1="276.49" y1="154.43" x2="272.53" y2="152.36"/>
						<line class="st4" x1="285.61" y1="148.28" x2="285.61" y2="145.4"/>
						<line class="st4" x1="266.89" y1="160.04" x2="264.97" y2="160.04"/>
						<line class="st4" x1="264.97" y1="165.7" x2="264.97" y2="165.7"/>
						<line class="st4" x1="264.97" y1="176.12" x2="263.05" y2="181.88"/>
						<line class="st4" x1="269.05" y1="184.76" x2="269.05" y2="184.76"/>
						<line class="st4" x1="273.79" y1="191.48" x2="275.05" y2="191.96"/>
						<line class="st4" x1="284.17" y1="196.04" x2="285.61" y2="195.32"/>
						<line class="st4" x1="282.25" y1="189.8" x2="284.17" y2="189.8"/>
						<line class="st4" x1="295.69" y1="191.96" x2="297.13" y2="191.96"/>
						<line class="st4" x1="303.61" y1="186.38" x2="304.81" y2="186.38"/>
						<line class="st4" x1="306.01" y1="176.12" x2="306.73" y2="179"/>
						<line class="st4" x1="310.81" y1="173.13" x2="312.25" y2="173.13"/>
						<line class="st4" x1="310.81" y1="165.7" x2="310.81" y2="164.67"/>
						<line class="st4" x1="304.21" y1="153.39" x2="306.01" y2="152.36"/>
						<line class="st4" x1="313.21" y1="154.43" x2="314.41" y2="154.43"/>
						<line class="st4" x1="303.61" y1="145.4" x2="302.41" y2="143.48"/>
						<line class="st4" x1="295.69" y1="146.84" x2="293.53" y2="148.28"/>
						<line class="st4" x1="289.21" y1="153.39" x2="291.37" y2="156.51"/>
						<line class="st4" x1="276.49" y1="146.84" x2="278.48" y2="148.28"/>
						<line class="st4" x1="277.49" y1="161.84" x2="278.48" y2="160.04"/>
						<line class="st4" x1="264.97" y1="153.39" x2="264.01" y2="152.36"/>
						<line class="st4" x1="269.05" y1="143.48" x2="269.05" y2="145.4"/>
						<line class="st4" x1="282.25" y1="138.2" x2="280.47" y2="139.4"/>
						<line class="st4" x1="317.53" y1="163.77" x2="320.17" y2="164.67"/>
						<line class="st4" x1="324.25" y1="160.04" x2="326.17" y2="160.04"/>
						<line class="st4" x1="320.17" y1="151.16" x2="320.17" y2="150.44"/>
						<line class="st4" x1="315.61" y1="146.84" x2="314.41" y2="146.84"/>
						<line class="st4" x1="259.69" y1="156.51" x2="258.49" y2="156.51"/>
						<line class="st4" x1="257.53" y1="167.07" x2="257.05" y2="167.07"/>
						<line class="st4" x1="257.53" y1="174.01" x2="257.53" y2="174.01"/>
						<line class="st4" x1="266.89" y1="171.37" x2="269.05" y2="171.37"/>
						<line class="st4" x1="305.11" y1="191.48" x2="306.73" y2="193.88"/>
						<line class="st4" x1="314.41" y1="182.6" x2="317.53" y2="181.88"/>
						<line class="st4" x1="321.13" y1="174.89" x2="324.25" y2="176.12"/>
						<line class="st4" x1="292.45" y1="139.4" x2="292.45" y2="141.8"/>
						<line class="st4" x1="309.61" y1="140.6" x2="309.13" y2="141.8"/>
						<line class="st4" x1="300.25" y1="158.12" x2="300.25" y2="160.94"/>
						<line class="st4" x1="267.97" y1="193.88" x2="266.89" y2="196.04"/>
						<line class="st4" x1="274.51" y1="200.36" x2="274.51" y2="201.8"/>
						<line class="st4" x1="292.45" y1="201.8" x2="293.53" y2="203"/>
						<line class="st4" x1="300.25" y1="198.92" x2="302.41" y2="200.36"/>
						<line class="st4" x1="284.89" y1="203" x2="284.17" y2="206.12"/>
						<line class="st4" x1="255.85" y1="188" x2="257.53" y2="186.38"/>
						<line class="st4" x1="255.85" y1="182.6" x2="255.85" y2="182.24"/>
						<line class="st4" x1="318.85" y1="193.88" x2="320.17" y2="193.88"/>
						<line class="st4" x1="312.25" y1="189.8" x2="313.81" y2="189.8"/>
						<line class="st4" x1="312.25" y1="196.04" x2="313.21" y2="198.92"/>
						<line class="st4" x1="307.93" y1="206.12" x2="309.13" y2="204.56"/>
						<line class="st4" x1="322.69" y1="154.95" x2="326.17" y2="152.36"/>
						<line class="st4" x1="298.69" y1="139.4" x2="302.41" y2="137"/>
						<line class="st4" x1="294.61" y1="134.12" x2="294.61" y2="134.6"/>
						<line class="st4" x1="272.53" y1="137" x2="273.79" y2="139.4"/>
						<line class="st4" x1="328.81" y1="170.12" x2="330.25" y2="169.88"/>
						<line class="st4" x1="325.21" y1="184.76" x2="327.37" y2="187.19"/>
						<line class="st4" x1="300.25" y1="206.12" x2="301.82" y2="206.12"/>
					</g>
					
						<use xlink:href="#SVGID_00000173857652724536660300000014757198556547339658_"  style="overflow:visible;fill:none;stroke:#0083D4;stroke-width:1.9666;stroke-linecap:round;stroke-linejoin:round;stroke-miterlimit:10;"/>
				</g>
			</g>
			<g>
				<g>
					<path class="st2" d="M-17.05,157.36c-0.02-0.39-0.03-0.79-0.03-1.19v-26.46c0-11.48,9.31-20.79,20.79-20.79
						c11.48,0,20.79,9.31,20.79,20.79v26.46c0,11.48-9.31,20.79-20.79,20.79c-4.59,0-8.84-1.49-12.28-4.01"/>
					<line class="st1" x1="3.71" y1="161.19" x2="3.71" y2="217.82"/>
				</g>
				<circle class="st2" cx="-22.07" cy="169.97" r="13.63"/>
				<line class="st1" x1="-21.12" y1="171.78" x2="3.71" y2="192.98"/>
			</g>
			<g>
				<g>
					<path class="st2" d="M847.27,157.36c-0.02-0.39-0.03-0.79-0.03-1.19v-26.46c0-11.48,9.31-20.79,20.79-20.79
						c11.48,0,20.79,9.31,20.79,20.79v26.46c0,11.48-9.31,20.79-20.79,20.79c-4.59,0-8.84-1.49-12.28-4.01"/>
					<line class="st1" x1="868.03" y1="161.19" x2="868.03" y2="217.82"/>
				</g>
				<circle class="st2" cx="842.25" cy="169.97" r="13.63"/>
				<line class="st1" x1="843.2" y1="171.78" x2="868.03" y2="192.98"/>
			</g>
			<g>
				<path class="st2" d="M139.7,190.68L139.7,190.68c-11.48,0-20.79-9.31-20.79-20.79v-26.46c0-11.48,9.31-20.79,20.79-20.79h0
					c11.48,0,20.79,9.31,20.79,20.79v26.46C160.49,181.37,151.18,190.68,139.7,190.68z"/>
				<line class="st1" x1="139.7" y1="174.9" x2="139.7" y2="217.82"/>
			</g>
			<g>
				<circle class="st2" cx="544.88" cy="168.05" r="27.01"/>
				<line class="st1" x1="544.88" y1="170.43" x2="544.88" y2="217.82"/>
				<line class="st1" x1="544.88" y1="180.57" x2="554.57" y2="176.3"/>
			</g>
			<g>
				<circle class="st2" cx="792.52" cy="168.05" r="27.01"/>
				<g>
					<defs>
						<circle id="SVGID_00000079454438116946069340000009644390484972721083_" cx="792.52" cy="168.05" r="27.01"/>
					</defs>
					<clipPath id="SVGID_00000136399010810861814410000011922197737997808035_">
						<use xlink:href="#SVGID_00000079454438116946069340000009644390484972721083_"  style="overflow:visible;"/>
					</clipPath>
					<g style="clip-path:url(#SVGID_00000136399010810861814410000011922197737997808035_);">
						<line class="st4" x1="778.9" y1="169.71" x2="778.9" y2="166.19"/>
						<line class="st4" x1="784.04" y1="167.95" x2="787.64" y2="170.94"/>
						<line class="st4" x1="774.92" y1="179.58" x2="778.9" y2="176.7"/>
						<line class="st4" x1="785.84" y1="179.58" x2="787.64" y2="182.81"/>
						<line class="st4" x1="770.12" y1="170.94" x2="771.8" y2="170.94"/>
						<line class="st4" x1="770.96" y1="160.52" x2="773.48" y2="163.26"/>
						<line class="st4" x1="789.8" y1="160.52" x2="791.96" y2="158.46"/>
						<line class="st4" x1="782.84" y1="158.46" x2="782.6" y2="154.86"/>
						<line class="st4" x1="795.56" y1="167.95" x2="798.68" y2="169.71"/>
						<line class="st4" x1="794.12" y1="176.7" x2="795.56" y2="178.14"/>
						<line class="st4" x1="800.84" y1="160.52" x2="803.24" y2="156.66"/>
						<line class="st4" x1="794.12" y1="151.32" x2="794.12" y2="147.17"/>
						<line class="st4" x1="774.92" y1="149.25" x2="770.96" y2="147.17"/>
						<line class="st4" x1="784.04" y1="143.09" x2="784.04" y2="140.21"/>
						<line class="st4" x1="765.32" y1="154.86" x2="763.4" y2="154.86"/>
						<line class="st4" x1="763.4" y1="160.52" x2="763.4" y2="160.52"/>
						<line class="st4" x1="763.4" y1="170.94" x2="761.48" y2="176.7"/>
						<line class="st4" x1="767.48" y1="179.58" x2="767.48" y2="179.58"/>
						<line class="st4" x1="772.22" y1="186.3" x2="773.48" y2="186.78"/>
						<line class="st4" x1="782.6" y1="190.86" x2="784.04" y2="190.14"/>
						<line class="st4" x1="780.68" y1="184.62" x2="782.6" y2="184.62"/>
						<line class="st4" x1="794.12" y1="186.78" x2="795.56" y2="186.78"/>
						<line class="st4" x1="802.04" y1="181.2" x2="803.24" y2="181.2"/>
						<line class="st4" x1="804.44" y1="170.94" x2="805.16" y2="173.82"/>
						<line class="st4" x1="809.24" y1="167.95" x2="810.68" y2="167.95"/>
						<line class="st4" x1="809.24" y1="160.52" x2="809.24" y2="159.49"/>
						<line class="st4" x1="802.64" y1="148.21" x2="804.44" y2="147.17"/>
						<line class="st4" x1="811.64" y1="149.25" x2="812.84" y2="149.25"/>
						<line class="st4" x1="802.04" y1="140.21" x2="800.84" y2="138.29"/>
						<line class="st4" x1="794.12" y1="141.65" x2="791.96" y2="143.09"/>
						<line class="st4" x1="787.64" y1="148.21" x2="789.8" y2="151.32"/>
						<line class="st4" x1="774.92" y1="141.65" x2="776.91" y2="143.09"/>
						<line class="st4" x1="775.91" y1="156.66" x2="776.91" y2="154.86"/>
						<line class="st4" x1="763.4" y1="148.21" x2="762.44" y2="147.17"/>
						<line class="st4" x1="767.48" y1="138.29" x2="767.48" y2="140.21"/>
						<line class="st4" x1="780.68" y1="133.01" x2="778.9" y2="134.21"/>
						<line class="st4" x1="815.96" y1="158.59" x2="818.6" y2="159.49"/>
						<line class="st4" x1="822.68" y1="154.86" x2="824.6" y2="154.86"/>
						<line class="st4" x1="818.6" y1="145.97" x2="818.6" y2="145.25"/>
						<line class="st4" x1="814.04" y1="141.65" x2="812.84" y2="141.65"/>
						<line class="st4" x1="758.12" y1="151.32" x2="756.92" y2="151.32"/>
						<line class="st4" x1="755.96" y1="161.89" x2="755.48" y2="161.89"/>
						<line class="st4" x1="755.96" y1="168.83" x2="755.96" y2="168.83"/>
						<line class="st4" x1="765.32" y1="166.19" x2="767.48" y2="166.19"/>
						<line class="st4" x1="803.54" y1="186.3" x2="805.16" y2="188.7"/>
						<line class="st4" x1="812.84" y1="177.42" x2="815.96" y2="176.7"/>
						<line class="st4" x1="819.56" y1="169.71" x2="822.68" y2="170.94"/>
						<line class="st4" x1="790.88" y1="134.21" x2="790.88" y2="136.61"/>
						<line class="st4" x1="808.04" y1="135.41" x2="807.56" y2="136.61"/>
						<line class="st4" x1="798.68" y1="152.94" x2="798.68" y2="155.76"/>
						<line class="st4" x1="766.4" y1="188.7" x2="765.32" y2="190.86"/>
						<line class="st4" x1="772.94" y1="195.18" x2="772.94" y2="196.62"/>
						<line class="st4" x1="790.88" y1="196.62" x2="791.96" y2="197.82"/>
						<line class="st4" x1="798.68" y1="193.74" x2="800.84" y2="195.18"/>
						<line class="st4" x1="783.32" y1="197.82" x2="782.6" y2="200.94"/>
						<line class="st4" x1="754.28" y1="182.81" x2="755.96" y2="181.2"/>
						<line class="st4" x1="754.28" y1="177.42" x2="754.28" y2="177.06"/>
						<line class="st4" x1="817.28" y1="188.7" x2="818.6" y2="188.7"/>
						<line class="st4" x1="810.68" y1="184.62" x2="812.24" y2="184.62"/>
						<line class="st4" x1="810.68" y1="190.86" x2="811.64" y2="193.74"/>
						<line class="st4" x1="806.36" y1="200.94" x2="807.56" y2="199.38"/>
						<line class="st4" x1="821.12" y1="149.77" x2="824.6" y2="147.17"/>
						<line class="st4" x1="797.12" y1="134.21" x2="800.84" y2="131.81"/>
						<line class="st4" x1="793.04" y1="128.93" x2="793.04" y2="129.41"/>
						<line class="st4" x1="770.96" y1="131.81" x2="772.22" y2="134.21"/>
						<line class="st4" x1="827.24" y1="164.94" x2="828.68" y2="164.7"/>
						<line class="st4" x1="823.64" y1="179.58" x2="825.8" y2="182"/>
						<line class="st4" x1="798.68" y1="200.94" x2="800.25" y2="200.94"/>
					</g>
					
						<use xlink:href="#SVGID_00000079454438116946069340000009644390484972721083_"  style="overflow:visible;fill:none;stroke:#0083D4;stroke-width:1.9666;stroke-linecap:round;stroke-linejoin:round;stroke-miterlimit:10;"/>
				</g>
				<line class="st1" x1="792.52" y1="170.43" x2="792.52" y2="217.82"/>
				<line class="st1" x1="792.52" y1="180.57" x2="802.21" y2="176.3"/>
			</g>
			<g>
				<path class="st2" d="M381.87,158.37c0.64-1.74,0.95-3.64,0.84-5.63c-0.39-7.17-6.33-13.04-13.5-13.34
					c-8.08-0.34-14.74,6.11-14.74,14.12c0,1.71,0.31,3.35,0.87,4.86c0.61,1.65,0.08,3.48-1.29,4.58
					c-5.92,4.73-9.48,12.28-8.64,20.62c1.13,11.23,10.41,20.15,21.67,20.86c13.57,0.86,24.84-9.89,24.84-23.27
					c0-7.37-3.42-13.93-8.75-18.2C381.78,161.86,381.26,160.02,381.87,158.37z"/>
				<line class="st1" x1="368.6" y1="183.29" x2="368.6" y2="217.82"/>
				<line class="st1" x1="361.93" y1="186.93" x2="368.6" y2="192.98"/>
			</g>
		</g>
		<polygon class="st2" points="-24.5,218.62 878.3,218.62 878.3,444.38 -24.5,349.08 		"/>
		<g>
			<path class="st10" d="M-28.8,250.33c117.07,0,117.07,24.75,229.84,24.75c112.77,0,112.77-24.75,225.55-24.75
				c112.78,0,112.78,24.75,225.56,24.75s112.78-24.75,228.25-24.75v123.92H-28.54L-28.8,250.33z"/>
			<g>
				<path class="st11" d="M-24.5,250.33c112.77,0,112.77,24.75,225.55,24.75c112.77,0,112.77-24.75,225.55-24.75
					c112.78,0,112.78,24.75,225.56,24.75s112.78-24.75,225.56-24.75"/>
			</g>
			<g>
				<g>
					<path class="st2" d="M12.04,237.68c-4.3,5.79-4.3,13.2-4.3,13.2s6.99-1.97,11.29-7.75c4.3-5.79,4.3-13.2,4.3-13.2
						S16.34,231.89,12.04,237.68z"/>
					<path class="st2" d="M2.64,237.68c4.3,5.79,4.3,13.2,4.3,13.2s-6.99-1.97-11.29-7.75c-4.3-5.79-4.3-13.2-4.3-13.2
						S-1.67,231.89,2.64,237.68z"/>
				</g>
				<g>
					<path class="st2" d="M95.78,248.66c-4.3,5.79-4.3,13.2-4.3,13.2s6.99-1.97,11.29-7.75c4.3-5.79,4.3-13.2,4.3-13.2
						S100.09,242.87,95.78,248.66z"/>
					<path class="st2" d="M86.38,248.66c4.3,5.79,4.3,13.2,4.3,13.2s-6.99-1.97-11.29-7.75c-4.3-5.79-4.3-13.2-4.3-13.2
						S82.08,242.87,86.38,248.66z"/>
				</g>
				<g>
					<path class="st2" d="M168.64,259.58c-4.3,5.79-4.3,13.2-4.3,13.2s6.99-1.97,11.29-7.75s4.3-13.2,4.3-13.2
						S172.95,253.8,168.64,259.58z"/>
					<path class="st2" d="M159.24,259.58c4.3,5.79,4.3,13.2,4.3,13.2s-6.99-1.97-11.29-7.75s-4.3-13.2-4.3-13.2
						S154.94,253.8,159.24,259.58z"/>
				</g>
				<g>
					<path class="st2" d="M333.31,244.36c-4.3,5.79-4.3,13.2-4.3,13.2s6.99-1.97,11.29-7.75c4.3-5.79,4.3-13.2,4.3-13.2
						S337.62,238.57,333.31,244.36z"/>
					<path class="st2" d="M323.91,244.36c4.3,5.79,4.3,13.2,4.3,13.2s-6.99-1.97-11.29-7.75c-4.3-5.79-4.3-13.2-4.3-13.2
						S319.6,238.57,323.91,244.36z"/>
				</g>
				<g>
					<path class="st2" d="M427.81,236.36c-4.3,5.79-4.3,13.2-4.3,13.2s6.98-1.97,11.29-7.75c4.3-5.79,4.3-13.2,4.3-13.2
						S432.11,230.58,427.81,236.36z"/>
					<path class="st2" d="M418.4,236.36c4.3,5.79,4.3,13.2,4.3,13.2s-6.99-1.97-11.29-7.75c-4.3-5.79-4.3-13.2-4.3-13.2
						S414.1,230.58,418.4,236.36z"/>
				</g>
				<g>
					<path class="st2" d="M514.51,243.19c-4.3,5.79-4.3,13.2-4.3,13.2s6.99-1.97,11.29-7.75c4.3-5.79,4.3-13.2,4.3-13.2
						S518.81,237.4,514.51,243.19z"/>
					<path class="st2" d="M505.1,243.19c4.3,5.79,4.3,13.2,4.3,13.2s-6.99-1.97-11.29-7.75c-4.3-5.79-4.3-13.2-4.3-13.2
						S500.8,237.4,505.1,243.19z"/>
				</g>
				<g>
					<path class="st2" d="M598.25,260.79c-4.3,5.79-4.3,13.2-4.3,13.2s6.99-1.97,11.29-7.75c4.3-5.79,4.3-13.2,4.3-13.2
						S602.56,255,598.25,260.79z"/>
					<path class="st2" d="M588.85,260.79c4.3,5.79,4.3,13.2,4.3,13.2s-6.99-1.97-11.29-7.75c-4.3-5.79-4.3-13.2-4.3-13.2
						S584.54,255,588.85,260.79z"/>
				</g>
				<g>
					<path class="st2" d="M682,258.1c-4.3,5.79-4.3,13.2-4.3,13.2s6.99-1.97,11.29-7.75c4.3-5.79,4.3-13.2,4.3-13.2
						S686.3,252.32,682,258.1z"/>
					<path class="st2" d="M672.59,258.1c4.3,5.79,4.3,13.2,4.3,13.2s-6.99-1.97-11.29-7.75c-4.3-5.79-4.3-13.2-4.3-13.2
						S668.29,252.32,672.59,258.1z"/>
				</g>
				<g>
					<path class="st2" d="M765.74,245.74c-4.3,5.79-4.3,13.2-4.3,13.2s6.99-1.97,11.29-7.75s4.3-13.2,4.3-13.2
						S770.05,239.95,765.74,245.74z"/>
					<path class="st2" d="M756.34,245.74c4.3,5.79,4.3,13.2,4.3,13.2s-6.99-1.97-11.29-7.75s-4.3-13.2-4.3-13.2
						S752.03,239.95,756.34,245.74z"/>
				</g>
				<g>
					<path class="st2" d="M849.49,237.68c-4.3,5.79-4.3,13.2-4.3,13.2s6.98-1.97,11.29-7.75c4.3-5.79,4.3-13.2,4.3-13.2
						S853.79,231.89,849.49,237.68z"/>
					<path class="st2" d="M840.08,237.68c4.3,5.79,4.3,13.2,4.3,13.2s-6.99-1.97-11.29-7.75c-4.3-5.79-4.3-13.2-4.3-13.2
						S835.78,231.89,840.08,237.68z"/>
				</g>
			</g>
		</g>
		<g>
			<path class="st10" d="M-28.8,331.05c117.07,0,117.07,24.75,229.84,24.75c112.77,0,112.77-24.75,225.55-24.75
				c112.78,0,112.78,24.75,225.56,24.75s112.78-24.75,228.25-24.75v123.92H-28.54L-28.8,331.05z"/>
			<g>
				<path class="st11" d="M-24.5,331.05c112.77,0,112.77,24.75,225.55,24.75c112.77,0,112.77-24.75,225.55-24.75
					c112.78,0,112.78,24.75,225.56,24.75s112.78-24.75,225.56-24.75"/>
			</g>
			<g>
				<g>
					<path class="st2" d="M12.04,318.4c-4.3,5.79-4.3,13.2-4.3,13.2s6.99-1.97,11.29-7.75s4.3-13.2,4.3-13.2
						S16.34,312.62,12.04,318.4z"/>
					<path class="st2" d="M2.64,318.4c4.3,5.79,4.3,13.2,4.3,13.2s-6.99-1.97-11.29-7.75s-4.3-13.2-4.3-13.2
						S-1.67,312.62,2.64,318.4z"/>
				</g>
				<g>
					<path class="st2" d="M95.78,329.38c-4.3,5.79-4.3,13.2-4.3,13.2s6.99-1.97,11.29-7.75s4.3-13.2,4.3-13.2
						S100.09,323.6,95.78,329.38z"/>
					<path class="st2" d="M86.38,329.38c4.3,5.79,4.3,13.2,4.3,13.2s-6.99-1.97-11.29-7.75s-4.3-13.2-4.3-13.2
						S82.08,323.6,86.38,329.38z"/>
				</g>
				<g>
					<path class="st2" d="M168.64,340.31c-4.3,5.79-4.3,13.2-4.3,13.2s6.99-1.97,11.29-7.75c4.3-5.79,4.3-13.2,4.3-13.2
						S172.95,334.52,168.64,340.31z"/>
					<path class="st2" d="M159.24,340.31c4.3,5.79,4.3,13.2,4.3,13.2s-6.99-1.97-11.29-7.75c-4.3-5.79-4.3-13.2-4.3-13.2
						S154.94,334.52,159.24,340.31z"/>
				</g>
				<g>
					<path class="st2" d="M253.22,340.31c-4.3,5.79-4.3,13.2-4.3,13.2s6.99-1.97,11.29-7.75c4.3-5.79,4.3-13.2,4.3-13.2
						S257.52,334.52,253.22,340.31z"/>
					<path class="st2" d="M243.81,340.31c4.3,5.79,4.3,13.2,4.3,13.2s-6.99-1.97-11.29-7.75c-4.3-5.79-4.3-13.2-4.3-13.2
						S239.51,334.52,243.81,340.31z"/>
				</g>
				<g>
					<path class="st2" d="M333.31,325.08c-4.3,5.79-4.3,13.2-4.3,13.2s6.99-1.97,11.29-7.75s4.3-13.2,4.3-13.2
						S337.62,319.3,333.31,325.08z"/>
					<path class="st2" d="M323.91,325.08c4.3,5.79,4.3,13.2,4.3,13.2s-6.99-1.97-11.29-7.75c-4.3-5.79-4.3-13.2-4.3-13.2
						S319.6,319.3,323.91,325.08z"/>
				</g>
				<g>
					<path class="st2" d="M427.81,317.09c-4.3,5.79-4.3,13.2-4.3,13.2s6.98-1.97,11.29-7.75c4.3-5.79,4.3-13.2,4.3-13.2
						S432.11,311.3,427.81,317.09z"/>
					<path class="st2" d="M418.4,317.09c4.3,5.79,4.3,13.2,4.3,13.2s-6.99-1.97-11.29-7.75c-4.3-5.79-4.3-13.2-4.3-13.2
						S414.1,311.3,418.4,317.09z"/>
				</g>
				<g>
					<path class="st2" d="M514.51,323.91c-4.3,5.79-4.3,13.2-4.3,13.2s6.99-1.97,11.29-7.75c4.3-5.79,4.3-13.2,4.3-13.2
						S518.81,318.13,514.51,323.91z"/>
					<path class="st2" d="M505.1,323.91c4.3,5.79,4.3,13.2,4.3,13.2s-6.99-1.97-11.29-7.75c-4.3-5.79-4.3-13.2-4.3-13.2
						S500.8,318.13,505.1,323.91z"/>
				</g>
				<g>
					<path class="st2" d="M598.25,341.52c-4.3,5.79-4.3,13.2-4.3,13.2s6.99-1.97,11.29-7.75s4.3-13.2,4.3-13.2
						S602.56,335.73,598.25,341.52z"/>
					<path class="st2" d="M588.85,341.52c4.3,5.79,4.3,13.2,4.3,13.2s-6.99-1.97-11.29-7.75s-4.3-13.2-4.3-13.2
						S584.54,335.73,588.85,341.52z"/>
				</g>
				<g>
					<path class="st2" d="M682,338.83c-4.3,5.79-4.3,13.2-4.3,13.2s6.99-1.97,11.29-7.75s4.3-13.2,4.3-13.2S686.3,333.04,682,338.83
						z"/>
					<path class="st2" d="M672.59,338.83c4.3,5.79,4.3,13.2,4.3,13.2s-6.99-1.97-11.29-7.75s-4.3-13.2-4.3-13.2
						S668.29,333.04,672.59,338.83z"/>
				</g>
				<g>
					<path class="st2" d="M765.74,326.47c-4.3,5.79-4.3,13.2-4.3,13.2s6.99-1.97,11.29-7.75s4.3-13.2,4.3-13.2
						S770.05,320.68,765.74,326.47z"/>
					<path class="st2" d="M756.34,326.47c4.3,5.79,4.3,13.2,4.3,13.2s-6.99-1.97-11.29-7.75s-4.3-13.2-4.3-13.2
						S752.03,320.68,756.34,326.47z"/>
				</g>
				<g>
					<path class="st2" d="M849.49,318.4c-4.3,5.79-4.3,13.2-4.3,13.2s6.98-1.97,11.29-7.75s4.3-13.2,4.3-13.2
						S853.79,312.62,849.49,318.4z"/>
					<path class="st2" d="M840.08,318.4c4.3,5.79,4.3,13.2,4.3,13.2s-6.99-1.97-11.29-7.75s-4.3-13.2-4.3-13.2
						S835.78,312.62,840.08,318.4z"/>
				</g>
			</g>
		</g>
		<g>
			<g>
				<path class="st11" d="M-24.5,289.78c112.77,0,112.77,24.75,225.55,24.75c112.77,0,112.77-24.75,225.55-24.75
					c112.78,0,112.78,24.75,225.56,24.75s112.78-24.75,225.56-24.75"/>
			</g>
			<g>
				<g>
					<path class="st2" d="M291.19,293.25c-4.3,5.79-4.3,13.2-4.3,13.2s6.99-1.97,11.29-7.75s4.3-13.2,4.3-13.2
						S295.49,287.47,291.19,293.25z"/>
					<path class="st2" d="M281.78,293.25c4.3,5.79,4.3,13.2,4.3,13.2s-6.98-1.97-11.29-7.75s-4.3-13.2-4.3-13.2
						S277.48,287.47,281.78,293.25z"/>
				</g>
				<g>
					<path class="st2" d="M206.37,300.68c-4.3,5.79-4.3,13.2-4.3,13.2s6.99-1.97,11.29-7.75s4.3-13.2,4.3-13.2
						S210.67,294.89,206.37,300.68z"/>
					<path class="st2" d="M196.97,300.68c4.3,5.79,4.3,13.2,4.3,13.2s-6.99-1.97-11.29-7.75s-4.3-13.2-4.3-13.2
						S192.66,294.89,196.97,300.68z"/>
				</g>
				<g>
					<path class="st2" d="M116.42,292.99c-4.3,5.79-4.3,13.2-4.3,13.2s6.99-1.97,11.29-7.75s4.3-13.2,4.3-13.2
						S120.72,287.2,116.42,292.99z"/>
					<path class="st2" d="M107.01,292.99c4.3,5.79,4.3,13.2,4.3,13.2s-6.99-1.97-11.29-7.75s-4.3-13.2-4.3-13.2
						S102.71,287.2,107.01,292.99z"/>
				</g>
				<g>
					<path class="st2" d="M370.95,277.9c-4.3,5.79-4.3,13.2-4.3,13.2s6.98-1.97,11.29-7.75c4.3-5.79,4.3-13.2,4.3-13.2
						S375.25,272.11,370.95,277.9z"/>
					<path class="st2" d="M361.54,277.9c4.3,5.79,4.3,13.2,4.3,13.2s-6.99-1.97-11.29-7.75c-4.3-5.79-4.3-13.2-4.3-13.2
						S357.24,272.11,361.54,277.9z"/>
				</g>
				<g>
					<path class="st2" d="M450.7,275.06c-4.3,5.79-4.3,13.2-4.3,13.2s6.99-1.97,11.29-7.75s4.3-13.2,4.3-13.2
						S455.01,269.28,450.7,275.06z"/>
					<path class="st2" d="M441.3,275.06c4.3,5.79,4.3,13.2,4.3,13.2s-6.98-1.97-11.29-7.75s-4.3-13.2-4.3-13.2
						S436.99,269.28,441.3,275.06z"/>
				</g>
				<g>
					<path class="st2" d="M530.46,285.73c-4.3,5.79-4.3,13.2-4.3,13.2s6.98-1.97,11.29-7.75s4.3-13.2,4.3-13.2
						S534.76,279.94,530.46,285.73z"/>
					<path class="st2" d="M521.06,285.73c4.3,5.79,4.3,13.2,4.3,13.2s-6.99-1.97-11.29-7.75c-4.3-5.79-4.3-13.2-4.3-13.2
						S516.75,279.94,521.06,285.73z"/>
				</g>
				<g>
					<path class="st2" d="M610.22,300.24c-4.3,5.79-4.3,13.2-4.3,13.2s6.98-1.97,11.29-7.75s4.3-13.2,4.3-13.2
						S614.52,294.46,610.22,300.24z"/>
					<path class="st2" d="M600.81,300.24c4.3,5.79,4.3,13.2,4.3,13.2s-6.98-1.97-11.29-7.75s-4.3-13.2-4.3-13.2
						S596.51,294.46,600.81,300.24z"/>
				</g>
				<g>
					<path class="st2" d="M689.97,297.55c-4.3,5.79-4.3,13.2-4.3,13.2s6.98-1.97,11.29-7.75s4.3-13.2,4.3-13.2
						S694.28,291.77,689.97,297.55z"/>
					<path class="st2" d="M680.57,297.55c4.3,5.79,4.3,13.2,4.3,13.2s-6.98-1.97-11.29-7.75s-4.3-13.2-4.3-13.2
						S676.26,291.77,680.57,297.55z"/>
				</g>
				<g>
					<path class="st2" d="M769.73,285.19c-4.3,5.79-4.3,13.2-4.3,13.2s6.99-1.97,11.29-7.75s4.3-13.2,4.3-13.2
						S774.03,279.41,769.73,285.19z"/>
					<path class="st2" d="M760.33,285.19c4.3,5.79,4.3,13.2,4.3,13.2s-6.98-1.97-11.29-7.75s-4.3-13.2-4.3-13.2
						S756.02,279.41,760.33,285.19z"/>
				</g>
				<g>
					<path class="st2" d="M849.49,277.13c-4.3,5.79-4.3,13.2-4.3,13.2s6.98-1.97,11.29-7.75c4.3-5.79,4.3-13.2,4.3-13.2
						S853.79,271.34,849.49,277.13z"/>
					<path class="st2" d="M840.08,277.13c4.3,5.79,4.3,13.2,4.3,13.2s-6.99-1.97-11.29-7.75c-4.3-5.79-4.3-13.2-4.3-13.2
						S835.78,271.34,840.08,277.13z"/>
				</g>
			</g>
			<g>
				<g>
					<path class="st2" d="M195.9,218.55v46.77h26.93c0,0,0-27.53,0-39.21"/>
					<path class="st2" d="M230.47,203.97l0.88,11.98l-2.72,16.18c-1.75,0.9-2.9,2.76-2.79,4.85c0.14,2.84,2.56,5.03,5.4,4.89
						c2.84-0.14,5.03-2.56,4.89-5.41c-0.05-0.93-0.34-1.79-0.81-2.52l2.62-17.02l-0.6-12.21"/>
					<path class="st2" d="M196.55,184.39l-8.08,5.1l-2.05,13.84c-1.6,1.14-2.46,3.15-2.05,5.2c0.56,2.79,3.27,4.6,6.06,4.04
						c2.79-0.56,4.6-3.27,4.04-6.06c-0.18-0.92-0.6-1.72-1.17-2.38l0.86-9.56l6.22-4.37"/>
					<path class="st2" d="M220.97,175.78c-5.77-1.89-13.16-1.5-18.9,0.39c-2.99,0.99-5.44,2.67-8.08,4.34l9.45,14.34l-8.8,22.8
						l3.91,2.8c5.97,6.39,15.15,8.67,23.42,5.81l1.81-0.45l5.74-22.31l10.73,1.66c-0.71-9.34-0.55-16.08-6.1-21.63
						c0-0.01-4.19-3.77-6.58-5.06"/>
					<g>
						<path class="st2" d="M223.1,181.32"/>
						<path class="st2" d="M223.21,181.48"/>
						<line class="st2" x1="231.65" y1="195.66" x2="229.52" y2="203.49"/>
						<line class="st2" x1="205.96" y1="187.25" x2="203.45" y2="194.84"/>
					</g>
					<line class="st2" x1="209.37" y1="235.86" x2="209.37" y2="265.31"/>
					<path class="st2" d="M187.18,274.23c0-4.71,8.89-8.53,14.81-8.53s6.63,3.82,6.63,8.53H187.18z"/>
					<path class="st2" d="M231.55,274.23c0-4.71-8.89-8.53-14.81-8.53s-6.63,3.82-6.63,8.53H231.55z"/>
					<path class="st2" d="M220,145.28c4.23-5.92,11.34-8.77,17.75-6.52l1.62,0.57c6.36,2.23,10.18,8.31,9.8,16.09"/>
					<path class="st2" d="M214.78,156.25c-6.28-3.62-9.93-7.2-9.12-9.52c0.89-2.54,6.91-2.92,15.16-1.39
						c4.21,0.78,9,2.06,13.98,3.81c4.85,1.7,9.28,3.63,13,5.59c7.58,4,12.18,8.14,11.27,10.71c-0.83,2.36-6.11,2.86-13.51,1.68"/>
					<path class="st2" d="M215.97,156.99c-1.73-0.61-2.64-2.5-2.03-4.23s2.5-2.64,4.23-2.03"/>
					<path class="st2" d="M244.32,166.92c1.73,0.61,3.62-0.3,4.23-2.03s-0.3-3.62-2.03-4.23"/>
					<g>
						<path class="st2" d="M228.95,174.73l-1.09,3.11c-0.04,0.11-0.08,0.21-0.13,0.31c-0.75,1.63-2.61,2.47-4.35,1.93
							c-0.04-0.01-0.07-0.02-0.11-0.04c-0.04-0.01-0.07-0.03-0.11-0.04c-1.7-0.66-2.63-2.48-2.19-4.22c0.03-0.11,0.06-0.22,0.1-0.32
							l1.27-3.51"/>
					</g>
					<path class="st2" d="M247.46,157.93c-0.05,0.16-0.1,0.32-0.16,0.48l-2.3,6.56c-0.57,1.61-1.39,3.06-2.41,4.32
						c-2.83,3.51-7.18,5.52-11.7,5.39c-1.46-0.04-2.94-0.3-4.4-0.81l-0.96-0.34c-1.45-0.51-2.77-1.22-3.94-2.1
						c-3.63-2.74-5.77-7.05-5.77-11.59c0-1.59,0.26-3.22,0.82-4.81l2.3-6.56c0.05-0.13,0.09-0.25,0.14-0.38"/>
					<line class="st2" x1="228.89" y1="160.4" x2="228.2" y2="162.36"/>
					<line class="st2" x1="238.3" y1="163.71" x2="237.62" y2="165.67"/>
					<path class="st2" d="M247.46,157.93c0,0-6.76-3.01-14.02-5.56c-8.52-2.99-14.34-4.27-14.34-4.27"/>
					<path class="st2" d="M227.97,156.46c0.62-0.36,1.38-0.47,2.08-0.3c0.7,0.17,1.32,0.62,1.7,1.22"/>
					<path class="st2" d="M241.26,161.12c-0.26-0.67-0.79-1.23-1.44-1.53c-0.65-0.3-1.42-0.34-2.09-0.11"/>
					<path class="st2" d="M229.26,167.31c0,0,1.53,2.76,4.17,1.67"/>
				</g>
				<path class="st1" d="M257.43,276.67l0.79-7.39l-17.06-12.28c-2.63-1.89-2.86-4.83-0.51-6.56l8.63-6.39
					c2.34-1.73,6.37-1.61,9,0.28l17.06,12.28l-0.75,7.05"/>
				<polyline class="st1" points="245.54,247.67 267.37,263.37 266.61,270.43 				"/>
				<path class="st2" d="M244.92,247.3c0,0-28.35-20.4-50.98-36.69"/>
				<path class="st2" d="M185.32,204.41c-10.91-7.85-18.92-13.62-18.92-13.62"/>
			</g>
		</g>
	</g>
	
		<use xlink:href="#SVGID_1_"  style="overflow:visible;fill:none;stroke:#0083D4;stroke-width:1.9666;stroke-linecap:round;stroke-linejoin:round;stroke-miterlimit:10;"/>
</g>
</svg>
