<?xml version="1.0" encoding="utf-8"?>
<!-- Generator: Adobe Illustrator 27.2.0, SVG Export Plug-In . SVG Version: 6.00 Build 0)  -->
<svg version="1.1" id="Layer_1" xmlns="http://www.w3.org/2000/svg" xmlns:xlink="http://www.w3.org/1999/xlink" x="0px" y="0px"
	 viewBox="0 0 1000 470" style="enable-background:new 0 0 1000 470;" xml:space="preserve">
<style type="text/css">
	.st0{fill:#A3D300;}
	.st1{fill:#0083D4;}
	.st2{fill:#00CE7C;}
</style>
<g>
	<g>
		<g>
			<g>
				<g>
					<path class="st0" d="M75.9,306.9c-2.5,0-4.5-2-4.5-4.5V174.7c0-2.5,2-4.5,4.5-4.5s4.5,2,4.5,4.5v127.7
						C80.4,304.9,78.4,306.9,75.9,306.9z"/>
				</g>
				<g>
					<path class="st0" d="M99.4,307c-2.5,0-4.5-2-4.5-4.5V174.7c0-2.5,2-4.5,4.5-4.5s4.5,2,4.5,4.5v127.7
						C103.8,305,101.8,307,99.4,307z"/>
				</g>
				<g>
					<path class="st0" d="M122.8,307c-2.5,0-4.5-2-4.5-4.5V174.7c0-2.5,2-4.5,4.5-4.5s4.5,2,4.5,4.5v127.7
						C127.3,305,125.3,307,122.8,307z"/>
				</g>
				<g>
					<path class="st0" d="M146.3,307c-2.5,0-4.5-2-4.5-4.5V174.8c0-2.5,2-4.5,4.5-4.5s4.5,2,4.5,4.5v127.7
						C150.8,305,148.8,307,146.3,307z"/>
				</g>
				<g>
					<path class="st0" d="M169.7,307c-2.5,0-4.5-2-4.5-4.5V174.8c0-2.5,2-4.5,4.5-4.5s4.5,2,4.5,4.5v127.7
						C174.2,305,172.2,307,169.7,307z"/>
				</g>
				<g>
					<path class="st0" d="M193.2,307c-2.5,0-4.5-2-4.5-4.5V174.8c0-2.5,2-4.5,4.5-4.5c2.5,0,4.5,2,4.5,4.5v127.7
						C197.7,305,195.7,307,193.2,307z"/>
				</g>
				<g>
					<path class="st0" d="M216.7,307c-2.5,0-4.5-2-4.5-4.5V174.8c0-2.5,2-4.5,4.5-4.5s4.5,2,4.5,4.5v127.7
						C221.2,305,219.2,307,216.7,307z"/>
				</g>
				<g>
					<path class="st0" d="M240.1,307c-2.5,0-4.5-2-4.5-4.5V174.8c0-2.5,2-4.5,4.5-4.5s4.5,2,4.5,4.5v127.7
						C244.6,305,242.6,307,240.1,307z"/>
				</g>
				<g>
					<path class="st0" d="M263.6,307.1c-2.5,0-4.5-2-4.5-4.5V174.8c0-2.5,2-4.5,4.5-4.5s4.5,2,4.5,4.5v127.7
						C268.1,305,266.1,307.1,263.6,307.1z"/>
				</g>
				<g>
					<path class="st0" d="M287.1,307.1c-2.5,0-4.5-2-4.5-4.5V174.8c0-2.5,2-4.5,4.5-4.5c2.5,0,4.5,2,4.5,4.5v127.7
						C291.5,305.1,289.5,307.1,287.1,307.1z"/>
				</g>
			</g>
			<g>
				<path class="st1" d="M143.7,160.3c-24-7.3-48.4-10.6-72.8,0H143.7z"/>
				<g>
					<path class="st1" d="M207.3,104c3.7,1,7.4,2,11.1,2.7C214.8,105.7,211.1,104.8,207.3,104z"/>
					<path class="st1" d="M242.4,116.3c-7.6-3.9-15.6-7.1-24-9.5c-3.7-0.8-7.4-1.7-11.1-2.7c-8.4-1.6-17-2.5-25.8-2.5
						c-1.2,0-2.5,0.2-3.7,0.2c20.5,7.6,41.4,14.7,62.4,14.7C241,116.3,241.7,116.3,242.4,116.3z"/>
					<path class="st1" d="M240.2,155.6c13.3,0,26.7-2.9,40.1-10.2c-1.7-1.8-3.3-3.7-5.1-5.5c-33.5,17.2-66.8,4.8-101.9-8.4
						c-17-6.4-34.3-12.9-51.7-15.8c-3.6,1.8-7.1,3.8-10.5,5.9c19.6,1.5,39.3,8.9,59.7,16.6C193.6,146.8,216.8,155.6,240.2,155.6z"/>
					<path class="st1" d="M240.2,136c8.7,0,17.4-1.2,26.1-4.1c-2.3-1.9-4.8-3.6-7.2-5.4c-28.1,7.1-56.4-3.5-85.8-14.6
						c-6.7-2.5-13.4-5-20.2-7.4c-4.3,0.9-8.6,2.1-12.7,3.4c10,3,20.1,6.8,30.4,10.7C193.6,127.2,216.8,136,240.2,136z"/>
					<path class="st1" d="M288.2,160.3c0.9-0.6,1.8-1.2,2.6-1.8c-1.4-2-2.8-3.9-4.3-5.8c-4.2,3-8.3,5.6-12.4,7.6H288.2z"/>
					<path class="st1" d="M171,157.9c2.2,0.8,4.3,1.6,6.5,2.4h21.6c-8.4-2.7-16.9-5.9-25.6-9.1c-26.1-9.8-52.8-19.8-79.7-16.6
						c-3.2,2.8-6.3,5.8-9.3,8.9C112.8,136,141.3,146.7,171,157.9z"/>
				</g>
			</g>
			<g>
				<path class="st2" d="M181.5,368.5c14.9,0,29.2-2.5,42.6-7.1h-85.2C152.3,366,166.6,368.5,181.5,368.5z"/>
				<path class="st2" d="M108,346.4H255c3.4-2.2,6.6-4.6,9.8-7.2H98.2C101.3,341.7,104.6,344.2,108,346.4z"/>
				<path class="st2" d="M286.8,317H76.3c1.9,2.5,4,4.9,6,7.2h198.4C282.8,321.8,284.8,319.4,286.8,317z"/>
			</g>
			<g>
				<path class="st0" d="M48,235c0,16.8,3.2,32.8,8.9,47.7v-95.3C51.2,202.2,48,218.2,48,235z"/>
				<path class="st0" d="M315,234.6c-0.1-16.7-3.3-32.7-9-47.4v95.8c5.7-14.8,8.9-30.7,9-47.4V234.6z"/>
			</g>
		</g>
	</g>
	<g>
		<path class="st1" d="M479.1,293.6h-71.3V173.5c0-3.6-2.9-6.5-6.5-6.5h-3.3c-3.6,0-6.5,2.9-6.5,6.5v129.9c0,3.6,2.9,6.5,6.5,6.5h81
			c3.6,0,6.5-2.9,6.5-6.5v-3.3C485.6,296.5,482.7,293.6,479.1,293.6z"/>
		<path class="st1" d="M571.9,170.8c-1.1-2.3-3.3-3.7-5.8-3.7h-3.6c-2.5,0-4.8,1.5-5.9,3.7l-60.6,129.9c-0.9,2-0.8,4.3,0.4,6.2
			c1.2,1.9,3.2,3,5.5,3h3.8c2.5,0,4.8-1.5,5.9-3.7l17.7-38h70.4l18,38c1.1,2.3,3.3,3.7,5.8,3.7h3.8c2.2,0,4.3-1.1,5.5-3
			c1.2-1.9,1.3-4.2,0.4-6.2L571.9,170.8z M536.9,251.7l27.4-58.9l27.4,58.9H536.9z"/>
		<path class="st1" d="M656.4,167.1h-3.3c-3.6,0-6.5,2.9-6.5,6.5v129.9c0,3.6,2.9,6.5,6.5,6.5h3.3c3.6,0,6.5-2.9,6.5-6.5V173.5
			C662.9,170,660,167.1,656.4,167.1z"/>
		<path class="st1" d="M805,277.3c-1.2-1.3-2.9-2-4.6-2.1c-1.7,0-3.5,0.7-4.7,1.9c-10.3,10.4-24.5,16.4-39,16.4
			c-30.4,0-55.2-24.8-55.2-55.2s24.8-55.2,55.2-55.2c14.6,0,28.4,5.6,38.8,15.8c2.5,2.4,6.4,2.5,8.9,0.1l2.4-2.3
			c1.3-1.2,2-2.9,2.1-4.6c0-1.8-0.7-3.5-1.9-4.7c-13.5-13.3-31.3-20.6-50.2-20.6c-39.4,0-71.4,32-71.4,71.4s32,71.4,71.4,71.4
			c19.1,0,37.1-7.4,50.6-20.9c2.5-2.5,2.5-6.4,0.2-9L805,277.3z"/>
		<path class="st1" d="M951.4,300.6l-61.1-129.9c-1.1-2.3-3.3-3.7-5.8-3.7h-3.6c-2.5,0-4.8,1.5-5.9,3.7l-60.6,129.9
			c-0.9,2-0.8,4.3,0.4,6.2c1.2,1.9,3.2,3,5.5,3h3.8c2.5,0,4.8-1.5,5.9-3.7l17.7-38h70.4l18,38c1.1,2.3,3.3,3.7,5.8,3.7h3.8
			c2.2,0,4.3-1.1,5.5-3C952.2,305,952.3,302.6,951.4,300.6z M855.3,251.7l27.4-58.9l27.4,58.9H855.3z"/>
	</g>
</g>
</svg>
