<?xml version="1.0" encoding="utf-8"?>
<!-- Generator: Adobe Illustrator 27.2.0, SVG Export Plug-In . SVG Version: 6.00 Build 0)  -->
<svg version="1.1" id="Layer_1" xmlns="http://www.w3.org/2000/svg" xmlns:xlink="http://www.w3.org/1999/xlink" x="0px" y="0px"
	 viewBox="0 0 2000 100" style="enable-background:new 0 0 2000 100;" xml:space="preserve">
<style type="text/css">
	.st0{fill:none;stroke:#A3D300;stroke-width:2;stroke-miterlimit:10;}
</style>
<g>
	<path class="st0" d="M1000,41.91c-23.97,0-25.4,16.18-49.38,16.18S926.65,42.3,902.68,42.3c-23.97,0-23.97,15.79-47.94,15.79
		c-23.97,0-23.97-15.79-47.94-15.79c-23.96,0-23.96,15.79-47.92,15.79c-23.97,0-23.97-15.79-47.93-15.79s-23.96,15.79-47.93,15.79
		c-23.96,0-23.96-15.79-47.93-15.79c-23.96,0-23.96,15.79-47.92,15.79c-23.97,0-23.97-15.79-47.93-15.79
		c-23.96,0-23.96,15.79-47.92,15.79S447.36,42.3,423.4,42.3s-23.96,15.79-47.92,15.79S351.52,42.3,327.55,42.3
		c-23.96,0-23.96,15.79-47.93,15.79c-23.96,0-23.96-15.79-47.93-15.79c-23.96,0-23.96,15.79-47.92,15.79S159.81,42.3,135.85,42.3
		s-23.96,15.79-47.92,15.79C63.96,58.09,63.96,42.3,40,42.3"/>
	<path class="st0" d="M1960,41.91c-23.97,0-25.4,16.18-49.38,16.18c-23.97,0-23.97-15.79-47.95-15.79
		c-23.97,0-23.97,15.79-47.94,15.79s-23.97-15.79-47.94-15.79c-23.96,0-23.96,15.79-47.92,15.79c-23.97,0-23.97-15.79-47.93-15.79
		c-23.96,0-23.96,15.79-47.93,15.79c-23.96,0-23.96-15.79-47.93-15.79c-23.96,0-23.96,15.79-47.92,15.79
		c-23.97,0-23.97-15.79-47.93-15.79c-23.96,0-23.96,15.79-47.92,15.79c-23.96,0-23.96-15.79-47.92-15.79
		c-23.96,0-23.96,15.79-47.92,15.79c-23.96,0-23.96-15.79-47.93-15.79c-23.96,0-23.96,15.79-47.93,15.79
		c-23.96,0-23.96-15.79-47.93-15.79c-23.96,0-23.96,15.79-47.92,15.79c-23.96,0-23.96-15.79-47.92-15.79
		c-23.96,0-23.96,15.79-47.92,15.79c-23.96,0-23.96-15.79-47.92-15.79"/>
</g>
</svg>
